<svg xmlns="http://www.w3.org/2000/svg" width="554.159" height="407.129" viewBox="0 0 554.159 407.129">
  <g id="Catering_Accounting" data-name="Catering Accounting" transform="translate(-87.3 -81.204)">
    <path id="Path_5271" data-name="Path 5271" d="M1414.5,586.951l-15.064-18.106A2.676,2.676,0,0,0,1397,567.16a2.8,2.8,0,0,0-2.4,1.784l-27.239,35.9-19.7-19.158a2.373,2.373,0,0,0-3.568.116l-19.238,20.746H1216.566c-1.579,0-1.579,7.349,0,7.349H1325.9a2.489,2.489,0,0,0,1.837-.892l18.293-19.72,20.4,19.836a2.417,2.417,0,0,0,2.257.687,2.97,2.97,0,0,0,1.9-1.695L1397.1,577.72l13.887,15.751a2.548,2.548,0,0,0,3.47,1.418" transform="translate(-987.572 -148.584)" fill="#e1f3ff"/>
    <path id="Path_5272" data-name="Path 5272" d="M1549.283,514.929c-1.292-.892-2.247-.624-3.556-.152a9.182,9.182,0,0,0-3.177,2.283L1479.479,581l-20.626-19.158a2.574,2.574,0,0,0-3.737.116l-20.206,20.755h2.346c-1.646,0-3.1,4.459-1.449,4.459l.2,1.935c.7,0,1.383.633,1.926.08l19.186-19.729,21.4,19.836a2.609,2.609,0,0,0,2.362.687,3.081,3.081,0,0,0,2-1.695l62.315-62.433c2.815-3.059,4.543-5.351,4.815-6.975C1550.534,515.633,1550.288,515.767,1549.283,514.929Z" transform="translate(-1010.943 -142.874)" fill="#e1f3ff"/>
    <g id="Group_5951" data-name="Group 5951" transform="translate(87.3 155.874)">
      <path id="Path_5205" data-name="Path 5205" d="M276.941,373.25s-46.81,28.729-66.56,55.429S190.63,527.421,190.63,537.921c0,0,23.321-80.567,38.328-93.051S268.214,412.378,276.941,373.25Z" transform="translate(-86.82 -246.325)" fill="#34a1fe" opacity="0.7"/>
      <path id="Path_5206" data-name="Path 5206" d="M256.777,403.89q-9.307,7.12-18.107,14.974a165.826,165.826,0,0,0-16.738,16.863,65.517,65.517,0,0,0-7.083,9.884,34.669,34.669,0,0,0-2.549,5.7l-2.173,5.7q-4.346,11.394-7.967,23.124a391.73,391.73,0,0,0-11.516,47.755c-.724,4.044-1.405,8.088-2.006,12.148s-1.2,8.127-1.651,12.218-.659,8.205-.905,12.3-.21,8.228-.261,12.335h.159c.623-8.174,1.376-16.332,2.4-24.451.5-4.067,1.115-8.111,1.774-12.148s1.34-8.065,2.057-12.093a420.688,420.688,0,0,1,11.349-47.622c2.361-7.807,5.034-15.466,7.822-23.093l2.079-5.722a32.967,32.967,0,0,1,2.4-5.551,64.789,64.789,0,0,1,6.837-9.782,183.952,183.952,0,0,1,16.39-17.066q8.633-8.033,17.8-15.38Z" transform="translate(-85.494 -253.045)" fill="#e1f3ff"/>
      <path id="Path_5207" data-name="Path 5207" d="M122.262,376.668s21.815,30.572,22.184,64.29,6.91,77.523,5.07,97.587c0,0-12.371-64.36-19.642-82.332S83.3,352.365,47.3,340.21C47.3,340.21,94.254,340.608,122.262,376.668Z" transform="translate(-47.3 -239.079)" fill="#34a1fe" opacity="0.7"/>
      <path id="Path_5208" data-name="Path 5208" d="M93.44,360.3c7.178,3.818,13.392,9.368,18.976,15.481a116.329,116.329,0,0,1,14.616,20.259c1.007,1.85,2.093,3.654,3.035,5.535l2.817,5.668c1.767,3.818,3.3,7.807,4.715,11.781,2.759,8.041,5.07,16.277,7.1,24.584,4.136,16.605,7.4,33.468,10.364,50.378q2.238,12.686,4.179,25.435c1.354,8.486,2.571,17,3.752,25.521-1.673-17.175-3.983-34.2-6.678-51.2s-5.975-33.89-10.046-50.589c-2.108-8.33-4.462-16.6-7.293-24.693-1.449-4.036-3.02-8.026-4.845-11.906l-2.9-5.683c-.978-1.889-2.108-3.685-3.151-5.535A115.055,115.055,0,0,0,112.974,375.2C107.158,369.262,100.784,363.774,93.44,360.3Z" transform="translate(-60.022 -243.485)" fill="#e1f3ff"/>
      <path id="Path_5209" data-name="Path 5209" d="M217.314,243.076c6.2,10.93,9.032,27.7,3.549,51.221s-26.334,84.666-26.8,106.619c0,0-4.346-60.113,0-93.035s-1.55-82.058-5.135-97.212C188.908,210.67,211.933,233.568,217.314,243.076Z" transform="translate(-86.352 -210.67)" fill="#34a1fe" opacity="0.7"/>
      <path id="Path_5210" data-name="Path 5210" d="M200.99,236.78a74.969,74.969,0,0,1,9.3,32.734,83.977,83.977,0,0,1-.724,17.175c-.13,1.429-.493,2.818-.724,4.231s-.521,2.8-.862,4.208c-.63,2.811-1.289,5.621-1.869,8.447a677.821,677.821,0,0,0-10.451,68.474c-1.144,11.507-1.956,23.062-2.173,34.663s-.724,23.085-1.079,34.632l-2.9,69.279,2.267-34.592,1.883-34.624q.905-17.316,1.311-34.671c.268-11.515,1.137-23.03,2.31-34.5q3.393-34.449,10.075-68.381c.543-2.826,1.159-5.629,1.76-8.447.311-1.4.536-2.85.811-4.27s.587-2.842.724-4.294a83.208,83.208,0,0,0,.485-17.4A75.144,75.144,0,0,0,200.99,236.78Z" transform="translate(-86.512 -216.396)" fill="#e1f3ff"/>
      <path id="Path_5211" data-name="Path 5211" d="M160.405,621.982h37.467a6.084,6.084,0,0,0,6.04-5.338l4.295-35H150.07l4.295,35.026A6.084,6.084,0,0,0,160.405,621.982Z" transform="translate(-75.637 -289.553)" fill="#203ab3"/>
      <rect id="Rectangle_4058" data-name="Rectangle 4058" width="66.169" height="18.99" rx="2.99" transform="translate(136.424 299.134) rotate(180)" fill="#e1f3ff"/>
    </g>
    <rect id="Rectangle_4056" data-name="Rectangle 4056" width="308.407" height="303.852" rx="7.4" transform="translate(242.82 81.204)" fill="#f2f6f9"/>
    <path id="Path_5180" data-name="Path 5180" d="M629.807,136.193V111.343a9.778,9.778,0,0,0-2.838-6.9,9.6,9.6,0,0,0-6.844-2.837H331.082a9.726,9.726,0,0,0-9.682,9.733v24.849Z" transform="translate(-78.58 -20.376)" fill="#afe6ff"/>
    <path id="Path_5181" data-name="Path 5181" d="M629.807,130.914V111.343a9.778,9.778,0,0,0-2.838-6.9,9.6,9.6,0,0,0-6.844-2.837H331.082a9.726,9.726,0,0,0-9.682,9.733v19.571Z" transform="translate(-78.58 -20.376)" fill="#1b1bbd"/>
    <ellipse id="Ellipse_551" data-name="Ellipse 551" cx="4.496" cy="4.537" rx="4.496" ry="4.537" transform="translate(261.063 91.334)" fill="#44c8f5"/>
    <ellipse id="Ellipse_552" data-name="Ellipse 552" cx="4.496" cy="4.537" rx="4.496" ry="4.537" transform="translate(276.836 91.334)" fill="#44c8f5"/>
    <ellipse id="Ellipse_553" data-name="Ellipse 553" cx="4.496" cy="4.537" rx="4.496" ry="4.537" transform="translate(292.608 91.334)" fill="#44c8f5"/>
    <path id="Path_5201" data-name="Path 5201" d="M642.808,256.176h-.051a1.159,1.159,0,0,1-1.108-1.2l.4-9.416a1.16,1.16,0,1,1,2.318.1l-.406,9.415A1.151,1.151,0,0,1,642.808,256.176Z" transform="translate(-159.555 -41.597)" fill="#f4769a"/>
    <g id="Group_5952" data-name="Group 5952" transform="translate(289.402 164.785)">
      <rect id="Rectangle_4057" data-name="Rectangle 4057" width="216.955" height="160.02" rx="3.83" fill="#fff"/>
      <path id="Path_5182" data-name="Path 5182" d="M450.13,359.9a1.159,1.159,0,0,1-1.152-1.159v-53a1.159,1.159,0,1,1,2.31,0v52.995a1.159,1.159,0,0,1-1.159,1.166Z" transform="translate(-386.628 -222.938)" fill="#e1f3ff" stroke="#e1f3ff" stroke-width="8"/>
      <path id="Path_5183" data-name="Path 5183" d="M425.107,359.9a1.159,1.159,0,0,1-1.159-1.159v-53a1.159,1.159,0,1,1,2.31,0v52.995a1.159,1.159,0,0,1-1.152,1.166Z" transform="translate(-384.787 -222.938)" fill="#e1f3ff" stroke="#e1f3ff" stroke-width="8"/>
      <path id="Path_5184" data-name="Path 5184" d="M400.079,359.94a1.159,1.159,0,0,1-1.159-1.159v-53a1.159,1.159,0,0,1,2.318,0v52.995a1.159,1.159,0,0,1-1.159,1.166Z" transform="translate(-382.06 -222.973)" fill="#e1f3ff" stroke="#e1f3ff" stroke-width="8"/>
      <path id="Path_5185" data-name="Path 5185" d="M475.159,359.94A1.159,1.159,0,0,1,474,358.781v-53a1.159,1.159,0,0,1,2.318,0v52.995a1.159,1.159,0,0,1-1.159,1.166Z" transform="translate(-389.355 -222.973)" fill="#e1f3ff" stroke="#e1f3ff" stroke-width="8"/>
      <path id="Path_5186" data-name="Path 5186" d="M500.187,359.905a1.159,1.159,0,0,1-1.159-1.159v-53a1.159,1.159,0,1,1,2.31,0v52.995a1.159,1.159,0,0,1-1.152,1.166Z" transform="translate(-391.191 -222.938)" fill="#e1f3ff" stroke="#e1f3ff" stroke-width="8"/>
      <path id="Path_5187" data-name="Path 5187" d="M525.21,359.9a1.159,1.159,0,0,1-1.152-1.159v-53a1.159,1.159,0,1,1,2.31,0v52.995a1.159,1.159,0,0,1-1.159,1.166Z" transform="translate(-393.923 -222.938)" fill="#e1f3ff" stroke="#e1f3ff" stroke-width="8"/>
      <path id="Path_5188" data-name="Path 5188" d="M550.239,359.94a1.159,1.159,0,0,1-1.159-1.159v-53a1.159,1.159,0,0,1,2.318,0v52.995a1.159,1.159,0,0,1-1.159,1.166Z" transform="translate(-396.651 -222.973)" fill="#e1f3ff" stroke="#e1f3ff" stroke-width="8"/>
      <path id="Path_5189" data-name="Path 5189" d="M575.267,359.9a1.159,1.159,0,0,1-1.159-1.159v-53a1.159,1.159,0,1,1,2.31,0v52.995a1.159,1.159,0,0,1-1.152,1.166Z" transform="translate(-398.486 -222.938)" fill="#e1f3ff" stroke="#e1f3ff" stroke-width="8"/>
      <path id="Path_5192" data-name="Path 5192" d="M650.347,359.9a1.159,1.159,0,0,1-1.159-1.159v-53a1.159,1.159,0,1,1,2.31,0v52.995a1.159,1.159,0,0,1-1.152,1.166Z" transform="translate(-451.269 -222.938)" fill="#e1f3ff" stroke="#e1f3ff" stroke-width="8"/>
      <path id="Path_5193" data-name="Path 5193" d="M.927,88.539A.881.881,0,0,1,.335,88.3a1.074,1.074,0,0,1-.112-1.433L28.1,51.223a.934.934,0,0,1,.645-.363.916.916,0,0,1,.693.242L48.711,68.731,81.559,29.866a.9.9,0,0,1,1.314-.089l18.091,16.629L136.6,2.444l-5.813.968a.955.955,0,0,1-1.077-.847,1.008,1.008,0,0,1,.787-1.16l8.377-1.4a.929.929,0,0,1,.967.519,1.082,1.082,0,0,1-.114,1.156L101.775,48.5a.9.9,0,0,1-1.326.1L82.341,31.962,49.492,70.827a.9.9,0,0,1-1.308.089l-19.245-17.6L1.667,88.176A.915.915,0,0,1,.927,88.539Z" transform="translate(44.523 42.666) rotate(9)" fill="#00aeef" stroke="#83b9fd" stroke-width="6"/>
      <path id="Path_5194" data-name="Path 5194" d="M421.968,224.649H400.044a1.159,1.159,0,1,1,0-2.31h21.924a1.159,1.159,0,1,1,0,2.31Z" transform="translate(-381.995 -200.285)" fill="#83b9fd"/>
      <path id="Path_5195" data-name="Path 5195" d="M549.047,224.649H527.124a1.159,1.159,0,0,1,0-2.31h21.924a1.159,1.159,0,1,1,0,2.31Z" transform="translate(-417.085 -200.285)" fill="#83b9fd"/>
      <path id="Path_5196" data-name="Path 5196" d="M421.968,238.579H400.044a1.159,1.159,0,1,1,0-2.31h21.924a1.159,1.159,0,1,1,0,2.31Z" transform="translate(-381.995 -204.125)" fill="#83b9fd"/>
      <path id="Path_5197" data-name="Path 5197" d="M442.092,266.679H400.084a1.159,1.159,0,1,1,0-2.31h42.008a1.159,1.159,0,1,1,0,2.31Z" transform="translate(-382.006 -211.873)" fill="#83b9fd"/>
      <path id="Path_5198" data-name="Path 5198" d="M428.391,280.618H400.079a1.159,1.159,0,0,1,0-2.318h28.312a1.159,1.159,0,0,1,0,2.318Z" transform="translate(-382.03 -215.716)" fill="#83b9fd"/>
      <path id="Path_5199" data-name="Path 5199" d="M566.786,252.428H524.779a1.159,1.159,0,0,1,0-2.318h42.008a1.159,1.159,0,0,1,0,2.318Z" transform="translate(-416.413 -207.943)" fill="#83b9fd"/>
      <path id="Path_5200" data-name="Path 5200" d="M553.016,266.359H524.7a1.159,1.159,0,1,1,0-2.31h28.312a1.159,1.159,0,1,1,0,2.31Z" transform="translate(-416.367 -211.785)" fill="#83b9fd"/>
      <circle id="Ellipse_554" data-name="Ellipse 554" cx="5.519" cy="5.519" r="5.519" transform="translate(86.975 18.387) rotate(-6.98)" fill="#34a1fe"/>
      <circle id="Ellipse_555" data-name="Ellipse 555" cx="5.519" cy="5.519" r="5.519" transform="translate(85.322 42.858) rotate(-45)" fill="#203ab3"/>
    </g>
    <path id="Path_5202" data-name="Path 5202" d="M823.864,195.428a2.977,2.977,0,0,1-2.984-2.977V168.92a2.984,2.984,0,0,1,5.961,0v23.5a2.977,2.977,0,0,1-2.977,3.006Z" transform="translate(-226.813 -37.828)" fill="#e1f3ff"/>
    <path id="Path_5203" data-name="Path 5203" d="M831.193,188.111h-23.5a2.984,2.984,0,0,1,0-5.961h23.5a2.984,2.984,0,0,1,0,5.961Z" transform="translate(-222.394 -42.258)" fill="#e1f3ff"/>
    <path id="Path_5204" data-name="Path 5204" d="M849.971,454.046a13.638,13.638,0,1,1,13.645-13.631A13.638,13.638,0,0,1,849.971,454.046Zm0-21.315a7.684,7.684,0,1,0,7.677,7.684A7.684,7.684,0,0,0,849.971,432.731Z" transform="translate(-222.157 -109.707)" fill="#e1f3ff"/>
    <g id="Group_5953" data-name="Group 5953" transform="translate(199.004 207.444)">
      <path id="Path_62767" data-name="Path 62767" d="M403.667,199.068c-.442-2.062-.736-4.123-1.031-4.86a10.328,10.328,0,0,0-.884-1.325,6.442,6.442,0,0,1-1.178-2.5v-3.534c0-1.62-.736-2.945-2.5-2.945h0c-1.767,0-2.651,1.62-2.5,3.387v2.356a10.89,10.89,0,0,1-.736,4.271c-.884,2.8-.147,6.185.736,8.836.589,1.62,2.651,2.651,5.449,3.829,1.473.589,3.829,1.031,2.8-.589-.736-1.473-5.007-3.534-3.682-7.952,0-.147.295-.736.589-.736.884,0,1.031,1.767,1.325,2.8.589,1.325,1.473,1.767,2.062,1.62C404.7,201.424,404.109,200.541,403.667,199.068Z" transform="matrix(0.695, -0.719, 0.719, 0.695, -280.524, 291.41)" fill="#fab9af"/>
      <path id="Path_5215" data-name="Path 5215" d="M316.81,318.616c.319,36.655,26.7,59.832,26.7,59.832,11.291,8.966,34.866,20.714,34.866,20.714a20.115,20.115,0,0,0,2.006-2.086,14.662,14.662,0,0,0,1.514-2.477s-29.42-21.953-33.512-28.29c-11.719-18.15-5.968-43.326-19.1-50.626-1.405-.782-7.793-4.346-10.813-1.977C318.157,313.908,316.781,315.074,316.81,318.616Z" transform="translate(-180.419 -314.145) rotate(9)" fill="#1b1bbd"/>
      <path id="Path_5216" data-name="Path 5216" d="M333.68,368.9c1.369,2.484,10.828,12.711,10.828,12.711,1.043-.659-1.535-7.663-5.258-15.3-1.224-4.4-2.948-11.2-3.44-13.4-3.621-15.934-3.071-18.411-6.2-22.293-5.794-7.17-8.959-6.207-8.959-6.207-1.014,1.789,1.934,7.735,2.977,10.364A262.661,262.661,0,0,1,333.68,368.9Z" transform="translate(-236.101 -271.078)" fill="#0000a6"/>
      <path id="Path_5217" data-name="Path 5217" d="M316.428,394.514l-11.914-83.733-32.15-4.411L255.64,393.905Z" transform="translate(-218.234 -266.115)" fill="#fab9af"/>
      <path id="Path_5218" data-name="Path 5218" d="M304.611,606.1l.036,9.415a20.612,20.612,0,0,1-.775,5.678l-.826,2.9a3.737,3.737,0,0,0,3.621,4.751h20.243a.912.912,0,0,0,.956-.768c.239-2.759-7.721-4.606-13.71-6.924-4.57-1.767-4.346-9.973-3.766-14.768a2.9,2.9,0,0,0-3.107-3.2h0A2.9,2.9,0,0,0,304.611,606.1Z" transform="translate(-231.266 -347.951)" fill="#fab9af"/>
      <path id="Path_5219" data-name="Path 5219" d="M241.65,602.674l-3.252,10.8a4.845,4.845,0,0,1-.637,1.34l-2.3,3.4a3.9,3.9,0,0,0,2.093,5.91s4.65,1.63,9.416,3.208c4.9,1.608,11.074.261,11.074-1.028,0-2.9-2.687-.594-7.178-3.621-1.5-1.007-3.056-2.057-4.44-3.143-3.868-3.035-.493-10.719,1.876-15.043a2.651,2.651,0,0,0-1.767-3.81l-1.115-.239A3.238,3.238,0,0,0,241.65,602.674Z" transform="translate(-212.486 -347.18)" fill="#fab9af"/>
      <path id="Path_5220" data-name="Path 5220" d="M290.12,428.051l35.627-2.991s3.585,25.929-5.418,72.862C316.107,519.932,307.292,562,307.292,562a10.074,10.074,0,0,1-6.656.63s-.666-18.556-1.079-38.531c-.391-19.164-.492-39.639-1.717-46.353C295.364,464.069,290.12,428.051,290.12,428.051Z" transform="translate(-227.741 -298.841)" fill="#1e2d64"/>
      <path id="Path_5221" data-name="Path 5221" d="M300.492,559.1c.55-4.107,2.3-37.148,5.316-48.142,4.107-14.956-7.677-31.723-4.049-42.544,10.669-31.788,2.564-38.756,2.564-38.756l-14.2-.471s5.244,36.018,7.735,49.707c1.224,6.7,1.325,27.175,1.717,46.353C299.861,539.142,300.267,552.352,300.492,559.1Z" transform="translate(-227.741 -299.98)" fill="#0f1446"/>
      <path id="Path_5222" data-name="Path 5222" d="M284.175,426.521c3.672,19.744,11.893,49.25-3.933,76.99s-32.484,56.558-32.484,56.558A9.017,9.017,0,0,1,241.87,558s2.774-12.566,6.786-27.247c4.592-16.8,10.4-36.547,8.749-46.846-3.107-19.295-6.671-45.006-5.591-57.485S282.241,416.142,284.175,426.521Z" transform="translate(-214.437 -296.862)" fill="#1e2d64"/>
      <path id="Path_5223" data-name="Path 5223" d="M315.7,395.7a3.122,3.122,0,0,0,1.724-3.324l-13.146-81.6-32.15-4.411-17.281,86.188a2.955,2.955,0,0,0,2.347,3.5,205.693,205.693,0,0,0,36.583,3.477C305.843,399.533,312.622,397.186,315.7,395.7Z" transform="translate(-217.998 -266.115)" fill="#fff"/>
      <path id="Path_5224" data-name="Path 5224" d="M277.859,328.149c-3.918,10.6-10.14,31.549-6.576,49.975,5.07,25.929,11.53,36.409,3.122,42.457s-24.517-4.041-24.98-7.4,3.136-44.651,7.243-62.541S272.152,307,272.152,307l5.968.536S279.728,323.086,277.859,328.149Z" transform="translate(-216.509 -266.289)" fill="#1b1bbd"/>
      <path id="Path_5225" data-name="Path 5225" d="M276,332.86a36.937,36.937,0,0,0,2.955-17.926h0a4.44,4.44,0,0,0-7.583,1.1c-3.549,8.8-9.415,24.256-12.189,36.308C255.1,370.233,273.788,337.778,276,332.86Z" transform="translate(-219.05 -268.016)" fill="#0000a6"/>
      <path id="Path_5226" data-name="Path 5226" d="M314.734,311.39s2.491,11.625.55,28.971-6.453,69.972,9.3,77.939c4.99,2.52,16.383-10.473,16.383-12.791,0-4.136-3.8-18.005-7.4-30.608-2.9-10.14-5.794-43.956-6.859-56.877a6.345,6.345,0,0,0-5.461-5.794Z" transform="translate(-234.096 -267.499)" fill="#1b1bbd"/>
      <path id="Path_5227" data-name="Path 5227" d="M247.31,397.251s-4.346,4.845-3.737,5.628,3.006-1.412,3.4-1.267-3.361,4.628-4.121,5.389-.333,1.289.464,1.55c.514.167.225,1.514.514,2s.768,1.347,1.782,1.152,6.113-6.692,5.968-9.307S249.49,396.426,247.31,397.251Z" transform="translate(-214.597 -291.139)" fill="#ea9f96"/>
      <path id="Path_5228" data-name="Path 5228" d="M251.816,393.236a23.835,23.835,0,0,1-2.492-1.55l-4.157-3.049a2.9,2.9,0,0,0-4.548,1.572h0a2.9,2.9,0,0,0,1.564,3.411c2.173,1.043,3.976,1.89,5.012,2.4a3.838,3.838,0,0,1,1.789,1.6c.521.869.579,1.521.536,3.933s-1.391,3.237-2.173,4.418c-1.391,2.173-3.868,3.194-2.535,3.9,1.072.572,3.621-.6,5.331-2.752a17.826,17.826,0,0,0,2.665-4.693C255.176,396.184,253.119,393.975,251.816,393.236Z" transform="translate(-214.062 -288.637)" fill="#fab9af"/>
      <path id="Path_5229" data-name="Path 5229" d="M281.912,262.488s.608,4.845-2.318,8.387,1.325,6.844,2.318,9.256-.239,5.99,2.535,7.627,10.669,2.071,11.921-.811S290.821,260.837,281.912,262.488Z" transform="translate(-224.56 -253.992)" fill="#32285f"/>
      <path id="Path_5230" data-name="Path 5230" d="M315,265.667c.427,15.847-14.319,18.889-22.894,18.889s-8.923-19-8.923-25.842,6.736-7.924,15.311-7.924c6.757,0,13.153,5.236,15.782,10.256A10.834,10.834,0,0,1,315,265.667Z" transform="translate(-225.827 -250.79)" fill="#32285f"/>
      <path id="Path_5231" data-name="Path 5231" d="M301.077,259.24c-7.178,0-9.857,5.106-9.988,14.558a19.2,19.2,0,0,0,2.817,9.278,7,7,0,0,1,.674,5.476L293,293.882c-1.072,4.947,1.282,7.663,4.744,8.648a6.75,6.75,0,0,0,5.28-.862c1.782-1.152,1.927-3.621,1.6-5.729l-.406-1.521a3.781,3.781,0,0,1,2.709-4.708c5.526-1.21,6.316-6.967,7.793-15.934C316.265,264.476,308.248,259.24,301.077,259.24Z" transform="translate(-228.008 -253.12)" fill="#fab9af"/>
      <path id="Path_5232" data-name="Path 5232" d="M316.862,253.094l-4.121,1.253a8.141,8.141,0,0,1-4.635,0L299.849,252c-4.976,0-13.2,2.81-12.153,9.988l.913,5.07a4.577,4.577,0,0,0,4.114,3.723h0a1.608,1.608,0,0,0,3.165-.427h0a4.874,4.874,0,0,1,3.846-4.744,17.9,17.9,0,0,1,8.691.065c5.714,1.528,11.733-2.006,12.313-7.895a11.279,11.279,0,0,0,.051-1.13C320.816,254.281,318.861,252.536,316.862,253.094Z" transform="translate(-227.047 -251.124)" fill="#32285f"/>
      <path id="Path_5233" data-name="Path 5233" d="M294.129,278.069c0,2.173-.818,3.962-2.9,3.962s-3.462-3.013-3.462-5.2,1.354-2.73,3.462-2.73S294.129,275.874,294.129,278.069Z" transform="translate(-227.093 -257.217)" fill="#fab9af"/>
      <path id="Path_5234" data-name="Path 5234" d="M319.562,285.755a1.644,1.644,0,0,1-1.608,1.992h0a1.651,1.651,0,0,1-1.644-1.55v-6.989a.963.963,0,0,1,.978-.978.8.8,0,0,1,.775.623Z" transform="translate(-234.962 -258.356)" fill="#fa968c"/>
      <path id="Path_5235" data-name="Path 5235" d="M248.765,307.833c-12.82,6.968-24.7,16.789-43.775,39.726a4.266,4.266,0,0,0,.2,5.707c4.085,4.186,13.544,12.4,31.672,21.323a13.038,13.038,0,0,0,2.441-6.41s-18.071-18.107-19.15-19.027c0,0,30.354-18.005,37.865-24.488s7.105-13.616,4.809-16.571S252.148,305.993,248.765,307.833Z" transform="translate(-203.993 -266.057)" fill="#1b1bbd"/>
      <path id="Path_5236" data-name="Path 5236" d="M297.254,328.75a.978.978,0,0,0-.927.688c-1.108,3.513-6.113,19.729-7.243,28.471-.905,7.127,1.97,19.678,3.621,26.074a9.858,9.858,0,0,0,4.534,6l1.13.666a2.006,2.006,0,0,0,2.752-.724l.92-1.593a4.6,4.6,0,0,0,.319-3.954c-1.941-5.07-6.714-18.483-6.3-27.4.138-3.136,3.18-22.221,3.962-27.081a.971.971,0,0,0-.963-1.123Z" transform="translate(-227.408 -272.286)" fill="#e1f3ff"/>
      <path id="Path_5237" data-name="Path 5237" d="M299.106,325.484a.97.97,0,0,0-.913.724c-1.029,3.542-5.664,19.867-6.584,28.63-.724,7.149,2.412,19.628,4.215,25.965a9.85,9.85,0,0,0,4.672,5.9l1.144.645a2,2,0,0,0,2.73-.782l.884-1.615a4.585,4.585,0,0,0,.232-3.962c-2.057-5.012-7.127-18.324-6.924-27.247.072-3.143,2.68-22.293,3.353-27.167a.971.971,0,0,0-.985-1.1Z" transform="translate(-228.122 -271.381)" fill="#3b3b8f"/>
      <path id="Path_5238" data-name="Path 5238" d="M304.107,324.155h-3.085a.942.942,0,0,1-.941-.942v-3.085a.942.942,0,0,1,.941-.942l2.788-.3a1.528,1.528,0,0,1,1.238,1.238v3.085A.942.942,0,0,1,304.107,324.155Z" transform="translate(-230.487 -269.567)" fill="#3b3b8f"/>
      <path id="Path_5239" data-name="Path 5239" d="M292.017,306.16l-5.207.913s1.036,8.409,5.193,14.7a.775.775,0,0,0,1.275,0l3.694-5.135a1.811,1.811,0,0,0,.087-2Z" transform="translate(-226.828 -266.057)" fill="#fff"/>
      <path id="Path_5240" data-name="Path 5240" d="M308.391,309.23l5.207,1.709a20.855,20.855,0,0,1-3.846,11.176.76.76,0,0,1-1.267,0l-3.027-4.693a1.89,1.89,0,0,1-.116-1.818Z" transform="translate(-231.888 -266.904)" fill="#fff"/>
    </g>
    <path id="Path_5245" data-name="Path 5245" d="M628.406,239.576c1.709,1.173,4.107,2.071,4.737,2.607.167.145,2.339,2.318,3.86,3.853a8.792,8.792,0,0,1,2.31,4.063,5.722,5.722,0,0,1,.167,2.955s-2.209,1.637-3.81.782l-1.449-3.39a10.364,10.364,0,0,0-4.186-.833c-2.94-.225-5.186-3.281-7.322-5a7.419,7.419,0,0,1-2.593-6,8.213,8.213,0,0,1,2.723,2.079,10.239,10.239,0,0,0,5.381,2.528c.224,0,.811,0,.92-.217.326-.768-1.333-1.586-2.028-2.281-.971-.985-1.123-2-.8-2.455S627.189,238.765,628.406,239.576Z" transform="translate(-153.619 -39.86)" fill="#fab9af"/>
    <path id="Path_5246" data-name="Path 5246" d="M632.916,211.692a48.606,48.606,0,1,1,48.606-48.6,48.606,48.606,0,0,1-48.606,48.6Zm0-76.86a28.247,28.247,0,1,0,28.247,28.247,28.247,28.247,0,0,0-28.247-28.247Z" transform="translate(-143.745 -5.761)" fill="#34a1fe"/>
    <path id="Path_5247" data-name="Path 5247" d="M700.946,162.743H678.754a27.363,27.363,0,0,0-27.334-27.334v-22.2A49.584,49.584,0,0,1,700.946,162.743Z" transform="translate(-162.25 -5.411)" fill="#fff"/>
    <path id="Path_5248" data-name="Path 5248" d="M764.205,282.361s-2.05,4.389-.384,8.626-3.346,6.055-5.012,8.025-1.615,5.722-4.73,6.424-10.7-1.318-11-4.418S756.3,278.08,764.205,282.361Z" transform="translate(-187.521 -51.885)" fill="#3b3b8f"/>
    <path id="Path_5249" data-name="Path 5249" d="M727.636,273.773c-5.258,14.826,7.728,22.213,15.825,24.842s14.232-15.21,16.332-21.656-3.933-9.546-12.03-12.168c-6.374-2.071-14.007.913-18.034,4.845A10.808,10.808,0,0,0,727.636,273.773Z" transform="translate(-182.929 -47.02)" fill="#3b3b8f"/>
    <path id="Path_5250" data-name="Path 5250" d="M745.766,272.566c6.772,2.173,7.243,7.771,4.461,16.731a14.841,14.841,0,0,1-4.534,7.076,9.59,9.59,0,0,0-2.767,5.838l-.152,5.519c-.5,5-3.549,6.837-7.127,6.7-1.166-.043-5.541,4.049-5.541,4.049s.724-6.156.369-6.62c-1.333-1.63-.254-3.868.724-5.751l.855-1.311a3.759,3.759,0,0,0-1.115-5.273c-4.845-2.832-3.831-8.5-2.484-17.382C729.832,272.855,738.994,270.371,745.766,272.566Z" transform="translate(-183.183 -49.144)" fill="#fab9af"/>
    <path id="Path_5251" data-name="Path 5251" d="M730.618,260.2l3.5,2.441a8.032,8.032,0,0,0,4.346,1.448l8.481.268c4.693,1.528,11.588,6.692,8.409,13.153l-2.419,4.512a4.527,4.527,0,0,1-5.019,2.252h0a1.6,1.6,0,1,1-2.9-1.369h0a4.845,4.845,0,0,0-2.173-5.657c-2.4-1.449-5.852-.826-9-.913-8.546-.232-9.713-7.185-8.445-12.914a10.088,10.088,0,0,1,.3-1.086C726.482,260.1,728.865,259.049,730.618,260.2Z" transform="translate(-182.528 -45.81)" fill="#3b3b8f"/>
    <path id="Path_5252" data-name="Path 5252" d="M754.282,293.454c-.666,2.071-.442,4,1.55,4.643s4.186-1.782,4.86-3.853-.442-2.991-2.433-3.621S754.955,291.39,754.282,293.454Z" transform="translate(-190.519 -54.287)" fill="#fab9af"/>
    <path id="Path_5253" data-name="Path 5253" d="M725.48,300.365a2.991,2.991,0,0,1,1.209-2.4,3.1,3.1,0,0,1,2.767-.174c1.912.623,4.954,3.223,4.179,5.606s-4.6,2.347-6.46,1.767h0C726.212,304.848,725.183,303.769,725.48,300.365Zm2.108-1.043a1.63,1.63,0,0,0-.485,1.181h0c-.181,2.086.232,2.991.55,3.1h0c1.5.464,4.078.362,4.425-.724s-1.738-3.1-3.129-3.549a1.68,1.68,0,0,0-1.362-.007Z" transform="translate(-182.656 -56.236)" fill="#3b3b8f"/>
    <path id="Path_5254" data-name="Path 5254" d="M728.672,293.26a1.63,1.63,0,0,0,.9,2.39h0a1.63,1.63,0,0,0,2.028-.963l2.173-6.591a.985.985,0,0,0-.058-.724,1.006,1.006,0,0,0-.565-.485.79.79,0,0,0-.92.355Z" transform="translate(-183.486 -53.288)" fill="#fa968c"/>
    <path id="Path_5255" data-name="Path 5255" d="M725.432,299.671a1.1,1.1,0,0,0,.4-.645.725.725,0,0,1,.29-.427.485.485,0,0,1,.435-.058c.145.051.348.181.3.326-.493,1.354-.862,3.2,1.181,3.781,2.8.789,6.518-.283,7.489-1.275a3.136,3.136,0,0,1,1.832-1.036,3.332,3.332,0,0,0,2.477-1.6h0a3.129,3.129,0,0,1,2.434-1.521l.391-.036a.645.645,0,0,1,.637.92,12.975,12.975,0,0,0-1.449,4.237,6.171,6.171,0,0,1-1.586,4.07,7.547,7.547,0,0,1-2.752,1.043,5.925,5.925,0,0,0-2.948,1.811,4.592,4.592,0,0,1-3.064,1.543,2.817,2.817,0,0,1-2.9-2.376,1.658,1.658,0,0,0-.84-1.2,3.317,3.317,0,0,1-1.448-2.615v-.036s-1.448,0-1.63-2.47a2.977,2.977,0,0,1,.753-2.434Z" transform="translate(-182.441 -56.136)" fill="#3b3b8f"/>
    <path id="Path_5256" data-name="Path 5256" d="M694.033,322.363s4.49,32.462.637,47.461-11.2,34.1-7.344,37.046,26.255,2.484,28.971-.449-.674-81.509-8.568-85.739S694.562,315.128,694.033,322.363Z" transform="translate(-171.851 -61.663)" fill="#0000a6"/>
    <path id="Path_5257" data-name="Path 5257" d="M705.943,295.305s-7.887-6.069-40.7-12.059l-20.048-30.079c-2.173-.123-5.07-.369-5.591,1.4,0,0,11.726,29.268,21.171,39.994s35.576,15.876,42.732,14.109S710.868,298.651,705.943,295.305Z" transform="translate(-158.991 -43.977)" fill="#0000a6"/>
    <path id="Path_5258" data-name="Path 5258" d="M722.671,608.682l2.477,9.705a3.779,3.779,0,0,0,.485,1.021l1.753,2.607a2.962,2.962,0,0,1-1.593,4.5s-3.534,1.246-7.185,2.441-8.438.2-8.438-.782c0-2.173,2.042-.449,5.468-2.738,1.144-.768,2.325-1.564,3.382-2.4,2.941-2.3.369-8.155-1.449-11.451-.652-1.181.036-4.136,1.354-4.418l.855-.181A2.455,2.455,0,0,1,722.671,608.682Z" transform="translate(-178.449 -141.543)" fill="#fab9af"/>
    <path id="Path_5259" data-name="Path 5259" d="M732.293,423.442,696.5,423s-9.234,47.005-11.089,67.7c-1.34,15,24.835,70.7,24.835,70.7,2.252.818,4.483-.616,6.7-1.354,0,0-7.648-50.221-6.272-62.707,1.449-13.037,15.594-40.32,16.318-47.23A159.9,159.9,0,0,1,732.293,423.442Z" transform="translate(-171.608 -90.829)" fill="#1e2d64"/>
    <path id="Path_5260" data-name="Path 5260" d="M727.805,440.05c.123,3.708,2.694,19.946,1.55,32.867-.123,1.405-2.513,6.236-4.614,11.813-1.115,2.969-1.543,3.976-2.528,6.772-.514,1.449-.724,1.622-1.449,1.644-1.514.043-1.84-13.182-.55-24.625.311-2.752.529-4.621.724-6.671.724-6.374,1.774-14.92,2.9-25.241" transform="translate(-180.997 -94.582)" fill="#0f1446"/>
    <path id="Path_5261" data-name="Path 5261" d="M787.715,606.228l2.9,9.633a4.627,4.627,0,0,0,.565,1.2l2.057,3.056a3.469,3.469,0,0,1-1.869,5.266s-4.143,1.448-8.423,2.9-9.872.232-9.872-.92c0-2.564,2.39-.529,6.4-3.208,1.34-.9,2.73-1.84,3.962-2.81,3.448-2.709.435-9.56-1.673-13.413a2.361,2.361,0,0,1,1.593-3.44l1-.217A2.9,2.9,0,0,1,787.715,606.228Z" transform="translate(-195.792 -140.792)" fill="#fab9af"/>
    <path id="Path_5262" data-name="Path 5262" d="M739.958,403.174c6.931-.311,14.58,3.831,15.21,10.741,1.108,12.045,1.63,24.625,1.63,48.961a152.075,152.075,0,0,0,1.55,23.749c1.818,11.161,16.557,63.91,16.557,63.91-1.311,1.2-4.491,2.3-6.627,2.506,0,0-31.535-45.969-37.307-62.939s-6.765-70.457-4.737-85.783Z" transform="translate(-182.612 -85.358)" fill="#1e2d64"/>
    <path id="Path_5263" data-name="Path 5263" d="M709.954,343.273A48.048,48.048,0,0,1,713.011,328s3-8.735,8.691-9.785a31.116,31.116,0,0,1,17.383,1.137l2.687.884c4.672,1.535,7.547,6.642,6.7,11.878l-9.459,58.528c-8.691,6.7-20.816,8.858-35.765,7.243a2.767,2.767,0,0,1-2.173-3.527l6.446-29.152" transform="translate(-175.908 -61.736)" fill="#fff"/>
    <path id="Path_5264" data-name="Path 5264" d="M717.162,328.311a.949.949,0,0,1,.818.811c.3,3.621-4.809,19.968-5.635,28.63-.681,7.163,1.246,18.324-.159,24.973-.536,2.557-1.883,5.186-4.309,6.164l-1.217.485a2,2,0,0,1-2.615-1.13l-.666-1.717a4.614,4.614,0,0,1,.282-3.962c2.687-4.715,1.927-18.382,2.9-27.262.333-3.129,5.946-21.417,7.7-26.3.2-.572.529-1.065,1.123-.97Z" transform="translate(-176.488 -64.642)" fill="#e1f3ff"/>
    <path id="Path_5265" data-name="Path 5265" d="M716.69,326.911a.956.956,0,0,1,.782.855c.145,3.621-5.686,19.729-6.888,28.355-.992,7.12.449,18.36-1.253,24.937-.652,2.535-2.108,5.106-4.57,5.968l-1.239.435a2.006,2.006,0,0,1-2.564-1.246l-.594-1.738a4.635,4.635,0,0,1,.456-3.955c2.9-4.585,2.731-18.273,4.07-27.1.471-3.107,6.873-21.134,8.843-25.936.225-.558.579-1.036,1.166-.92Z" transform="translate(-175.677 -64.234)" fill="#3b3b8f"/>
    <path id="Path_5266" data-name="Path 5266" d="M730.5,329.612l3.013.724a.942.942,0,0,0,1.13-.724l.724-3.013a.942.942,0,0,0-.724-1.13l-2.651-.92a1.535,1.535,0,0,0-1.492.934l-.724,3.006a.942.942,0,0,0,.724,1.123Z" transform="translate(-183.847 -63.683)" fill="#5159bf"/>
    <path id="Path_5267" data-name="Path 5267" d="M729.463,331.681c-5.28,25.726-5.533,26.581-2.52,44.441,2.477,14.63,3.1,20.656,11.979,31.144,3.8,4.469,24.263,5.693,26.733-2.419,2.434-7.967-8.691-26.2-9.416-39.647-.9-15.659-1.043-34.765-1.043-34.765s2.535-9.633-9.416-10.64C733.113,318.717,730.3,327.611,729.463,331.681Z" transform="translate(-182.539 -62.348)" fill="#1b1bbd"/>
    <path id="Path_5268" data-name="Path 5268" d="M747.418,335.355c-1.586.413-18.107,6.207-21.728,21.5.145-9.416,2.658-17.918,3.962-24.408.9-4.461,3.288-15.847,15.63-12.8C756.877,322.513,749.765,334.746,747.418,335.355Z" transform="translate(-182.728 -62.19)" fill="#0000a6"/>
    <rect id="Rectangle_4060" data-name="Rectangle 4060" width="18.165" height="5.917" rx="1.47" transform="matrix(-0.959, 0.283, -0.283, -0.959, 580.326, 319.846)" fill="#0000a6"/>
    <path id="Path_5269" data-name="Path 5269" d="M690.819,225.584c-1.253,1.659-3.245,3.266-3.665,3.969-.116.2-1.485,2.948-2.448,4.882a8.8,8.8,0,0,0-.905,4.585,5.641,5.641,0,0,0,.775,2.853s2.615.855,3.86-.456l.3-3.672a10.4,10.4,0,0,1,3.708-2.115c2.716-1.137,3.882-4.751,5.367-7.062a7.454,7.454,0,0,0,.565-6.518,8.134,8.134,0,0,0-1.927,2.832,10.213,10.213,0,0,1-4.309,4.1c-.2.1-.76.29-.942.08-.55-.623.768-1.919,1.2-2.8.616-1.238.442-2.245,0-2.578S691.71,224.4,690.819,225.584Z" transform="translate(-171.171 -35.421)" fill="#fab9af"/>
    <path id="Path_5270" data-name="Path 5270" d="M740.264,300.495s-9.7-6.591-40.479-20.787l-11.06-36.7a5.794,5.794,0,0,0-5.975.369s1.239,29.891,7.67,42.645c6.229,12.349,37.6,28.247,44.992,28.6S747.058,304.384,740.264,300.495Z" transform="translate(-170.888 -41.019)" fill="#1b1bbd"/>
    <path id="Path_5273" data-name="Path 5273" d="M1363.8,286.42a38.165,38.165,0,0,1-76.329,0" transform="translate(-836.677 -128.047)" fill="none" stroke="#0000a6" stroke-miterlimit="10" stroke-width="11"/>
    <g id="Group_5955" data-name="Group 5955" transform="translate(481.521 138.411)">
      <path id="Path_5274" data-name="Path 5274" d="M14.54,7.863a2.43,2.43,0,0,1-2.587.981,4.919,4.919,0,0,0-3.032-.178c-1.962.535-2.943,1.516-2.943,3.3,0,3.835,10.614.714,10.614,8.473A9.976,9.976,0,0,1,11.6,29.09a2.506,2.506,0,0,0-1.249,2.141v.8a2.656,2.656,0,0,1-1.962,2.408h0a1.467,1.467,0,0,1-1.962-1.427v-.446a1.452,1.452,0,0,0-1.516-1.516,12.189,12.189,0,0,1-4.014-.624,1.644,1.644,0,0,1-.535-2.5c.178-.268.357-.624.535-.892A2.334,2.334,0,0,1,3.57,25.79a7.981,7.981,0,0,0,4.1.089c2.23-.624,3.211-1.784,3.211-3.568,0-4.1-10.614-1.338-10.614-8.562A9.586,9.586,0,0,1,5.086,5.455,2.506,2.506,0,0,0,6.335,3.314V2.6A2.656,2.656,0,0,1,8.3.193h0A1.467,1.467,0,0,1,10.259,1.62v.535a1.43,1.43,0,0,0,1.427,1.516,8,8,0,0,1,3.032.8c.892.446.981,1.695.268,2.765A3.776,3.776,0,0,0,14.54,7.863Z" transform="translate(-0.019 -0.131)" fill="#4d4cad"/>
    </g>
  </g>
</svg>
