<svg xmlns="http://www.w3.org/2000/svg" xmlns:xlink="http://www.w3.org/1999/xlink" width="452.142" height="430.295" viewBox="0 0 452.142 430.295">
  <defs>
    <linearGradient id="linear-gradient" x1="0.751" y1="0.019" x2="0.079" y2="0.685" gradientUnits="objectBoundingBox">
      <stop offset="0" stop-color="#fff"/>
      <stop offset="1" stop-color="#fff" stop-opacity="0"/>
    </linearGradient>
    <linearGradient id="linear-gradient-2" x1="0.67" y1="0.283" x2="0.149" y2="0.949" xlink:href="#linear-gradient"/>
    <clipPath id="clip-path">
      <ellipse id="Ellipse_1335" data-name="Ellipse 1335" cx="20.614" cy="20.614" rx="20.614" ry="20.614" transform="translate(4 0)" fill="#002182"/>
    </clipPath>
  </defs>
  <g id="Translation_Employees" data-name="Translation Employees" transform="translate(-178.984 -106.561)">
    <g id="OBJECTS" transform="translate(178.984 127)">
      <g id="Group_126" data-name="Group 126">
        <g id="Group_125" data-name="Group 125">
          <g id="Group_118" data-name="Group 118" transform="translate(20.133)">
            <path id="Path_52" data-name="Path 52" d="M446.948,207.714c-1.126,0-4.022-.161-8.2-.483a217,217,0,0,1-83.487-22.842c-22.038-11.1-51.315-15.764-67.24-11.582h-.161a10.756,10.756,0,0,1-13.191-7.721c-3.7-13.673-22.038-23.486-41.341-23.486-23.164,0-41.824,13.03-41.824,28.955,0,6.756,3.378,13.03,9.008,17.856,15.925,13.995,24.773,34.424,22.842,55.658a56.835,56.835,0,0,0,.8,16.569,40.9,40.9,0,0,0,2.252,7.56c6.113,15.6,30.081,34.746,31.529,49.224C269.2,429.06,298.473,469.6,405.928,485.522c107.295,15.925,203.651-33.459,214.911-110.351C632.1,298.6,613.762,209.966,446.948,207.714Z" transform="translate(-191.5 -118.114)" fill="#e1f3ff"/>
            <path id="Path_53" data-name="Path 53" d="M281.8,135.365a9.125,9.125,0,0,1-5.791-2.9A18.91,18.91,0,0,0,262.334,127c-9.652,0-17.534,6.6-17.534,14.638s7.882,14.638,17.534,14.638a19.353,19.353,0,0,0,12.225-4.182,7.877,7.877,0,0,1,5.63-1.448,7.638,7.638,0,0,0,8.365-7.561A7.818,7.818,0,0,0,281.8,135.365Z" transform="translate(-159.061 -127)" fill="#e1f3ff"/>
            <path id="Path_54" data-name="Path 54" d="M285.86,151.382c0,2.252-2.574,4.182-5.63,4.182-3.217,0-5.63-1.769-5.63-4.182,0-2.252,2.574-4.182,5.63-4.182C283.447,147.2,285.86,149.13,285.86,151.382Z" transform="translate(-140.924 -114.706)" fill="#e1f3ff"/>
            <path id="Path_55" data-name="Path 55" d="M427.529,182.239c0,4.022-5.469,7.239-12.065,7.239S403.4,186.26,403.4,182.239,408.869,175,415.465,175C422.221,175,427.529,178.217,427.529,182.239Z" transform="translate(-62.534 -97.786)" fill="#e1f3ff"/>
            <path id="Path_56" data-name="Path 56" d="M427.8,172.9a3.7,3.7,0,1,1-3.7-3.7A3.742,3.742,0,0,1,427.8,172.9Z" transform="translate(-52.188 -101.316)" fill="#e1f3ff"/>
          </g>
          <g id="Group_119" data-name="Group 119" transform="translate(0 201.56)">
            <path id="Path_57" data-name="Path 57" d="M224.372,326.5c-1.126-8.043-2.735-20.751-10.617-30.725C201.53,280.335,179.17,277.6,179.17,277.6s-2.413,22.36,10.134,37.8c6.756,8.365,20.912,14.478,28.794,17.051a8.111,8.111,0,0,1,5.63,7.721c-.8,53.728-9.008,79.466-9.008,79.466l7.882-.965C229.359,360.444,225.981,337.762,224.372,326.5Z" transform="translate(-178.984 -236.902)" fill="#e1f3ff"/>
            <path id="Path_58" data-name="Path 58" d="M225.925,315.493c2.091-6.6,5.469-17.212,13.673-24.29,12.708-11.26,31.851-10.3,31.851-10.3s-1.448,19.143-14.156,30.4c-6.917,6.113-19.786,9.169-26.864,9.973a7,7,0,0,0-5.952,5.791c-7.4,45.524-4.182,68.366-4.182,68.366l-6.6-1.93C216.6,343.322,223.03,324.662,225.925,315.493Z" transform="translate(-157.856 -234.901)" fill="#e1f3ff"/>
            <path id="Path_59" data-name="Path 59" d="M217.444,297.985c1.77-8.043,4.5-20.751,13.191-30.081,13.673-14.638,36.194-15.6,36.194-15.6s.643,22.681-13.191,37.159c-7.56,7.882-22.2,12.869-30.4,14.8a8.034,8.034,0,0,0-6.274,7.4,655.282,655.282,0,0,0,.965,98.126l-7.882-1.609C207.953,349.139,215.031,309.084,217.444,297.985Z" transform="translate(-160.313 -252.3)" fill="#009ad3"/>
            <path id="Path_60" data-name="Path 60" d="M213.394,341a26.678,26.678,0,0,0-4.665-11.26,16.575,16.575,0,0,0-4.022-4.182c-6.917-4.826-16.408-3.378-16.408-3.378s1.609,9.491,8.365,14.317c4.022,2.9,9.008,3.539,12.386,3.539a3.742,3.742,0,0,1,3.7,3.7c-.161,10.939-2.413,25.9-2.413,25.9l4.343-.8C215.968,358.693,214.52,347.111,213.394,341Z" transform="translate(-173.315 -209.896)" fill="#00aeef"/>
            <path id="Path_61" data-name="Path 61" d="M235.825,313s-8.847,3.7-12.065,11.582c-1.769,4.343-.8,10.939-.483,13.351a4.59,4.59,0,0,1,0,2.091L219.9,369.141h5.308a119.02,119.02,0,0,1-.322-24.934,7.67,7.67,0,0,1,2.9-5.308c2.735-1.93,6.756-5.308,8.365-9.33C239.525,321.847,235.825,313,235.825,313Z" transform="translate(-154.082 -215.357)" fill="#00aeef"/>
            <path id="Path_62" data-name="Path 62" d="M211.864,396h21.073a4.283,4.283,0,0,0,1.93-.483,26.084,26.084,0,0,0,13.673-23V352.082a4.259,4.259,0,0,0-4.182-4.182H200.282a4.259,4.259,0,0,0-4.182,4.182v20.429a26.208,26.208,0,0,0,13.673,23A4.453,4.453,0,0,0,211.864,396Z" transform="translate(-168.567 -194.116)" fill="#5968f6"/>
            <rect id="Rectangle_21" data-name="Rectangle 21" width="52.441" height="12.547" transform="translate(27.533 165.687)" fill="#e1e1ff"/>
            <rect id="Rectangle_22" data-name="Rectangle 22" width="52.441" height="3.056" transform="translate(27.533 165.687)" fill="#fff0f2"/>
          </g>
          <rect id="Rectangle_23" data-name="Rectangle 23" width="5.002" height="72.966" transform="translate(179.981 -3.11) rotate(10.614)" fill="#f2f2f2"/>
          <path id="Path_63" data-name="Path 63" d="M357.63,214.64c-20.844-13.34-47.732,6.461-68.159-9.588a3.578,3.578,0,0,1-1.251-3.126l7.5-39.811a3.185,3.185,0,0,1,4.794-2.084c20.844,13.34,47.732-6.461,68.159,9.588a3.577,3.577,0,0,1,1.251,3.127c-2.5,13.34-5,26.68-7.5,39.811A3.1,3.1,0,0,1,357.63,214.64Z" transform="translate(-112.985 -180.026)" fill="#203ab3"/>
          <path id="Path_64" data-name="Path 64" d="M287.878,205.388A3.619,3.619,0,0,0,286,207.681c-.208.417-.208.625,0,.834a2.676,2.676,0,0,1-.834,2.084,4.539,4.539,0,0,0-1.042,1.667,5.2,5.2,0,0,0-.208,3.543,5.95,5.95,0,0,1,0,2.71,2.352,2.352,0,0,0,.208,1.668,2.429,2.429,0,0,0,3.335,1.042,2.247,2.247,0,0,0,1.251-2.293,2.234,2.234,0,0,1,.417-1.251l.208-.208a3.1,3.1,0,0,0,.417-1.876,1.4,1.4,0,0,1,.625-1.667,4.239,4.239,0,0,0,1.251-1.876,1.763,1.763,0,0,0,0-1.459,1.4,1.4,0,0,1,.625-1.667,2.642,2.642,0,0,0,.834-1.876C292.672,205.18,289.129,204.555,287.878,205.388Z" transform="translate(-112.853 -161.755)" fill="#fab9af"/>
          <path id="Path_65" data-name="Path 65" d="M280.327,213.421h0c.625-1.042,1.251-2.084,1.876-2.918l2.71-2.918c1.876-1.876,2.918-3.335,5.211-3.543,3.752-.417,8.754-.625,8.963,1.459.208,1.876-4.586,3.127-7.5,3.543a2.544,2.544,0,0,0-1.876,1.668s1.459,10.839-4.377,11.255l-1.459,3.96-6.67-1.042,1.459-6.67A32.4,32.4,0,0,1,280.327,213.421Z" transform="translate(-119.892 -163.118)" fill="#fab9af"/>
          <path id="Path_66" data-name="Path 66" d="M282.781,233.6s-15.633-6.253-21.26,3.752c-5.836,10.213,2.71,37.1-17.926,40.853-20.844,3.752-22.928,24.387-21.261,33.558,4.794,26.263,42.729,52.525,68.992,24.8s-6.253-46.481-8.754-60.446C279.863,262.159,296.33,243.609,282.781,233.6Z" transform="translate(-179.875 -132.86)" fill="#5046af"/>
          <path id="Path_67" data-name="Path 67" d="M272.445,278.939c-.208-10.838,21.469-22.094-1.042-43.979a1.9,1.9,0,0,0-2.293-.208c-1.876,1.459-7.712,2.293-10.839,5-5.628,5-14.382,18.759-11.672,25.637,5.836,14.8-3.96,27.513-4.794,44.188-.625,17.3,27.514,34.392,41.062,29.6a14.642,14.642,0,0,0,9.171-9.379,12.291,12.291,0,0,0-.834-9.8h0C285.785,310,272.862,314.79,272.445,278.939Z" transform="translate(-158.284 -129.838)" fill="#41378c"/>
          <path id="Path_68" data-name="Path 68" d="M289.79,380.207a252.776,252.776,0,0,0,1.251-82.123,15.943,15.943,0,0,0-14.174-13.34h0a16.967,16.967,0,0,0-18.551,17.717,106.061,106.061,0,0,0,2.084,16.049c4.794,24.178,12.923,140.693,12.923,140.693a4.061,4.061,0,0,1-.208,1.667,10.179,10.179,0,0,1-1.876,3.752c-1.667,2.293-.625,3.96,2.918,6.878,2.918,2.293,1.459,6.462,4.377,6.878,4.169.625,7.087.417,7.5-.625.417-1.459-.625-1.668-4.169-3.335-2.71-1.459-3.127-9.8-3.127-13.131a10.144,10.144,0,0,1,.208-2.5Z" transform="translate(-140.402 -75.407)" fill="#fab9af"/>
          <path id="Path_69" data-name="Path 69" d="M279.044,386.153c6.67-19.8,18.551-83.373,16.05-101.09l-16.05-1.251a17.542,17.542,0,0,0-17.717,12.506c-3.543,11.672-6.878,31.057-3.752,59.612,0,0,2.5,15.424,0,25.429-2.293,8.963-14.8,65.24-17.092,75.453a23.589,23.589,0,0,1-1.251,3.335,7.306,7.306,0,0,1-2.5,2.918c-2.293,1.876-1.667,3.752,1.042,7.3,2.293,2.918-.208,6.67,2.71,7.92,3.96,1.667,6.67,2.084,7.3,1.251.834-1.251-.208-1.667-3.335-4.377-1.251-1.042-1.042-4.586-.625-7.92a31.609,31.609,0,0,1,3.127-10.422C253.407,443.264,273.417,402.619,279.044,386.153Z" transform="translate(-165.299 -76.35)" fill="#fab9af"/>
          <path id="Path_70" data-name="Path 70" d="M294.8,460.492c-18.551,4.794-44.813,3.37-65.449-1.424,1.668-7.712,17.874-75.408,18.5-77.909,2.5-10,0-25.429,0-25.429-3.127-28.347.208-47.94,3.752-59.612a17.542,17.542,0,0,1,17.717-12.506l16.05,1.251h0l6.67.625a16.367,16.367,0,0,1,14.174,13.34,252.688,252.688,0,0,1-1.251,82.123Z" transform="translate(-155.784 -76.567)" fill="#6469d4"/>
          <path id="Path_71" data-name="Path 71" d="M253.525,354.163c-2.084,4.794-3.96,9.8-5.836,14.8-.208-7.087-1.042-13.131-1.042-13.131-3.127-28.347.208-47.94,3.752-59.612a17.542,17.542,0,0,1,17.717-12.506l5.836.417h0l10.213.834h0l6.67.625a16.367,16.367,0,0,1,14.174,13.34c.417,2.5.834,5.628,1.251,8.754C279.58,306.848,263.114,331.443,253.525,354.163Z" transform="translate(-154.371 -76.459)" fill="#5159bf"/>
          <path id="Path_72" data-name="Path 72" d="M320.985,259.883c2.5-12.506,5-44.813,5-44.813-1.251-1.667-6.462-3.96-8.129-1.667l-10.213,44.4c-11.047,13.965-20.218,26.679-24.387,32.932a10.126,10.126,0,0,1-7.087,4.169,109.79,109.79,0,0,0-17.926,2.71C230.94,304.7,242.2,314.7,242.2,314.7a44.1,44.1,0,0,1,8.129,11.464c3.543,7.5,7.921,17.092,10.63,22.719,1.042,3.543-2.084,14.173-3.335,17.508l-2.5,7.5a2.168,2.168,0,0,0,1.251,2.71c12.3,4.169,37.1,4.794,52.943-.208a2.75,2.75,0,0,0,1.667-4.169l-11.672-31.89c-3.127-6.67-2.5-8.337-.417-12.3a8.879,8.879,0,0,0,.834-7.3,34.267,34.267,0,0,0-3.127-6.253,10.058,10.058,0,0,1,.834-11.672C306.394,291.565,318.692,271.556,320.985,259.883Z" transform="translate(-160.341 -153.72)" fill="#1b1bbd"/>
          <path id="Path_73" data-name="Path 73" d="M251.69,234.37c-8.129,2.293-9.588,8.963-6.67,19.8,1.042,3.96,3.96,7.5,6.253,9.588a8.348,8.348,0,0,1,2.5,6.045l-.208,6.67c.417,6.045,3.96,8.337,8.129,8.337a8.1,8.1,0,0,0,5.836-2.71c1.668-1.876,1.042-4.794,0-7.087l-1.042-1.667a4.519,4.519,0,0,1,1.668-6.253,15.838,15.838,0,0,0,4.586-3.543c1.042-1.251,1.668-10.839-2.71-20.635C265.447,232.7,259.819,232.077,251.69,234.37Z" transform="translate(-156.287 -131.125)" fill="#fab9af"/>
          <path id="Path_74" data-name="Path 74" d="M259.219,248.129a1.942,1.942,0,0,1-1.251,2.71h0a1.92,1.92,0,0,1-2.293-1.459l-1.876-8.129a1.253,1.253,0,0,1,.208-.834c.208-.209.417-.417.625-.417a1.592,1.592,0,0,1,1.042.417Z" transform="translate(-145.266 -123.832)" fill="#fa968c"/>
          <path id="Path_75" data-name="Path 75" d="M249.962,245.615c.625,2.5,1.459,5.628-.625,6.253-2.293.625-5.628-3.335-6.253-5.836s.625-3.543,2.71-4.169S249.337,243.114,249.962,245.615Z" transform="translate(-157.061 -121.943)" fill="#fab9af"/>
          <path id="Path_76" data-name="Path 76" d="M243.093,245.081c6.67-12.715,20.844-16.883,27.93-12.506,3.96,2.293,9.171,12.506.625,12.714a11.205,11.205,0,0,1-5.836-1.667,3.1,3.1,0,0,0-1.876-.417l-5.628,1.876a8.752,8.752,0,0,0-5.419,11.255l.625,1.668a1.061,1.061,0,0,1-1.459,1.251l-.417-.625a6.757,6.757,0,0,0-4.169-3.335C243.718,254.043,239.132,252.584,243.093,245.081Z" transform="translate(-158.529 -133.707)" fill="#5046af"/>
          <path id="Path_77" data-name="Path 77" d="M255.839,318.716a38.339,38.339,0,0,0-3.127-4.794c-.208-.208-1.251-.834-1.459-1.042-.834-.625-2.084-1.251-2.293-2.293l-1.459-3.752c-.625-1.876-2.084-2.918-3.96-2.084h0c-1.876.834-2.293,2.71-1.251,4.586l1.042,2.71a9.368,9.368,0,0,1,.834,4.794c.208,3.335,2.293,6.67,4.377,9.171,1.251,1.667,3.96,1.876,7.5,1.876,1.668,0,4.586-.417,2.918-1.876-1.459-1.251-6.67-1.667-7.3-7.087,0-.208,0-.834.208-1.042.834-.417,1.876,1.667,2.5,2.293a2.97,2.97,0,0,0,2.71,1.042C257.715,320.8,256.672,320.175,255.839,318.716Z" transform="translate(-158.352 -53.935)" fill="#fab9af"/>
          <path id="Path_96" data-name="Path 96" d="M251.692,257.988c2.71-2.71,8.963-3.543,14.8-2.293,5.628,1.042-6.462,39.811-17.509,57.944a7.927,7.927,0,0,0-1.042,6.461l11.881,42.1c-1.459,2.918-3.96,3.335-6.67,3.752l-20.01-43.771a20.378,20.378,0,0,1-1.251-13.131C235.642,295.506,243.771,266.326,251.692,257.988Z" transform="translate(-169.629 -107.429)" fill="#1b1bbd"/>
          <g id="Group_40413" data-name="Group 40413" transform="translate(204.825 -5.547) rotate(1)">
            <g id="Group_6" data-name="Group 6" transform="translate(5.132 7.058)">
              <path id="Union_4" data-name="Union 4" d="M1.327,2.563H1.3A1.292,1.292,0,0,1,0,1.282,1.292,1.292,0,0,1,1.3,0h9.463V2.563Z" transform="translate(0 0)" fill="#0a5ba7"/>
            </g>
            <g id="Group_7" data-name="Group 7" transform="translate(7.695 3.726)">
              <path id="Union_5" data-name="Union 5" d="M1.322,2.563H1.3A1.29,1.29,0,0,1,0,1.282,1.29,1.29,0,0,1,1.3,0H8.716V2.563Z" transform="translate(0 0)" fill="#8ac240"/>
            </g>
            <g id="Group_8" data-name="Group 8" transform="translate(3.337 10.391)">
              <path id="Union_3" data-name="Union 3" d="M1.312,2.563H1.287A1.282,1.282,0,1,1,1.287,0H12.048V2.563Z" transform="translate(0 0)" fill="#eb3f5f"/>
            </g>
            <g id="Group_9" data-name="Group 9" transform="translate(5.132 13.723)">
              <path id="Union_2" data-name="Union 2" d="M1.312,2.563H1.287A1.282,1.282,0,1,1,1.287,0H12.048V2.563Z" transform="translate(0 0)" fill="#00b29a"/>
            </g>
            <g id="Group_10" data-name="Group 10" transform="translate(7.695 17.056)">
              <path id="Union_6" data-name="Union 6" d="M1.313,2.563H1.289A1.282,1.282,0,1,1,1.289,0h8.2V2.563Z" transform="translate(0 0)" fill="#f38020"/>
            </g>
            <path id="Union_1" data-name="Union 1" d="M2.645,23.307c-3.162,0-2.607-3.783-2.607-3.783H9.019c6.131,0,6.28-5.951,6.233-7.308q0-.027,0-.052c0-.041,0-.287,0-.515,0-.212,0-.451,0-.519.047-1.358-.1-7.308-6.233-7.308H.037S-.517.038,2.645.038s7.76-.086,7.845,0S19.981-.105,20,11.368c0,.025,0,.44,0,.558h0s0,0,0,0,0,.024,0,.026h0c-.017,11.492-9.424,11.265-9.509,11.35a10.17,10.17,0,0,1-1.369.038C7.5,23.345,4.752,23.307,2.645,23.307Z" transform="translate(0 0)" fill="#fff"/>
          </g>
        </g>
      </g>
    </g>
    <g id="art_5" data-name="art 5" transform="translate(76.959 65.414)">
      <g id="OBJECTS-2" data-name="OBJECTS" transform="translate(281.264 180.51)">
        <g id="art_4_" data-name="art 4 " transform="translate(113.123 80.41)">
          <g id="OBJECTS-3" data-name="OBJECTS" transform="translate(9.653 37.129)">
            <rect id="Rectangle_3987" data-name="Rectangle 3987" width="114.351" height="76.191" rx="8.85" transform="translate(6.559 0)" fill="#5968f6"/>
            <rect id="Rectangle_3988" data-name="Rectangle 3988" width="102.444" height="64.266" transform="translate(12.517 5.967)" fill="#e1f3ff"/>
            <path id="Path_4786" data-name="Path 4786" d="M416.731,328.236H304.636a7.686,7.686,0,0,1-7.686-7.686H424.418a7.686,7.686,0,0,1-7.686,7.686Z" transform="translate(-296.95 -244.35)" fill="#e1f3ff"/>
            <path id="Path_4787" data-name="Path 4787" d="M416.736,325.579H304.641a7.677,7.677,0,0,1-7.2-5.039H297a7.686,7.686,0,0,0,7.641,7.7H416.736a7.686,7.686,0,0,0,7.686-7.686h-.473A7.687,7.687,0,0,1,416.736,325.579Z" transform="translate(-296.954 -244.349)" fill="#83b9fd"/>
            <rect id="Rectangle_3991" data-name="Rectangle 3991" width="120.2" height="1.51" transform="translate(3.63 74.69)" fill="#83b9fd"/>
            <path id="Path_4788" data-name="Path 4788" d="M373.3,323.114H358.8a2.565,2.565,0,0,1-2.574-2.574h19.63a2.574,2.574,0,0,1-2.556,2.574Z" transform="translate(-302.307 -244.349)" fill="#5968f6"/>
            <rect id="Rectangle_3992" data-name="Rectangle 3992" width="14.063" height="2.429" transform="translate(16.155 72.262)" fill="#699dde"/>
            <rect id="Rectangle_3993" data-name="Rectangle 3993" width="14.063" height="2.429" transform="translate(97.541 72.262)" fill="#699dde"/>
            <path id="Path_8703" data-name="Path 8703" d="M331.043,294.169l12-12V263.52L312.39,294.169Z" transform="translate(-228.317 -223.876)" fill="#fff" opacity="0.51"/>
            <path id="Path_8701" data-name="Path 8701" d="M284.568,234.63,250.55,268.636V298.6h.081l63.975-63.975Z" transform="translate(-237.811 -228.31)" opacity="0.51" fill="url(#linear-gradient)"/>
            <path id="Path_8702" data-name="Path 8702" d="M258.79,298.6h18.664l63.975-63.975H322.765Z" transform="translate(-236.547 -228.31)" opacity="0.51" fill="url(#linear-gradient-2)"/>
          </g>
        </g>
        <path id="Path_63213" data-name="Path 63213" d="M487.96,356.244c0,2.451-33.132,4.43-74.025,4.43S345,358.7,345,356.244s28.011-4.414,68.888-4.414S487.96,353.809,487.96,356.244Z" transform="translate(-244.871 -82.688)" fill="#d2f0ff"/>
        <path id="Path_63250" data-name="Path 63250" d="M443.566,316.629a12.445,12.445,0,0,0-2.577.283,4.571,4.571,0,0,1-4.493-1.477,9.143,9.143,0,0,0-6.708-3.283,3.959,3.959,0,0,1-3.5-2.184,11.468,11.468,0,0,0-5.53-5.436,6.6,6.6,0,0,1-3.9-6.19,13.432,13.432,0,0,0-3.975-9.662,8.185,8.185,0,0,1-2.294-7.761,13.826,13.826,0,0,0,.22-5.231,13.369,13.369,0,1,0-18.035,14.532,13.353,13.353,0,0,0,10.714,21.334,14.248,14.248,0,0,0,1.43-.078,11.515,11.515,0,0,0,12.238,14.909,7.855,7.855,0,0,1,6.111,1.854,9.253,9.253,0,0,0,10.4,1.241,7.258,7.258,0,0,1,5.844-.565c5.5,2,12.9-.707,12.9-5.828C452.442,319.535,448.451,316.629,443.566,316.629Z" transform="translate(-222.471 -132.619)" fill="#4d4cad"/>
        <path id="Path_63251" data-name="Path 63251" d="M472.356,351.087c-9.175-7.855-50.177-24.193-50.177-24.193-3.142-1.288-20.313-1.4-23.156-.141,0,0-42.417,16.857-50.947,24.366-2.042,1.807-3.676,5.86-2.576,8.515,2.545,6.158,38.961,4.713,56.666-.471a27.43,27.43,0,0,1,15.946.079c18.349,5.734,56.634,8.342,59.4,2.137C478.7,358.737,478.341,356.192,472.356,351.087Z" transform="translate(-244.789 -97.513)" fill="#1e2d64"/>
        <path id="Path_63252" data-name="Path 63252" d="M371.189,349.737c3.283.6,5.483-1.917,7.776-2.451A7.368,7.368,0,0,1,385.516,349c5.106,4.446,9.9,3.927,15.223,4.038l26.9-4.87s23.031-9.065,30.571-7.478c8.373,1.744,12.018,6.284,12.018,10.683,0,4.085-14.61,11.5-31.718,11.343a311.435,311.435,0,0,1-51.23-5.059s-27.587-7.007-27.854-8.279S367.89,349.14,371.189,349.737Z" transform="translate(-236.64 -89.157)" fill="#fa968c"/>
        <path id="Path_63253" data-name="Path 63253" d="M388.583,295.173a.644.644,0,0,1,.5.613,5.734,5.734,0,0,0,5.7,5.5,2.576,2.576,0,0,1,2.278,1.43,4.869,4.869,0,0,0,1.571,1.728,5,5,0,0,0,6.63-.974,4.148,4.148,0,0,1,3.3-1.571,5.4,5.4,0,0,0,4.257-8.531,3.22,3.22,0,0,1-.77-2.466,4.038,4.038,0,0,0-.9-3.142,4.21,4.21,0,0,0-1.744-1.241,2.812,2.812,0,0,1-1.7-3.378,13.37,13.37,0,0,0,.361-1.791c.786-5.4-4.477-10.651-4.477-10.651h0a3.425,3.425,0,0,1-4.147-.911l-2.027-2.435a.6.6,0,0,0-.9.785l1.257,1.665a5.216,5.216,0,0,1,0,6.1,9.269,9.269,0,0,0-1.571,3.818,16.438,16.438,0,0,0,0,3.912,4.131,4.131,0,0,1-2.686,4.3,10.384,10.384,0,0,1-6.535-.487,9.709,9.709,0,0,1-4.1-2.938l-2.639-3.142a.581.581,0,0,0-.9.738l1.335,1.571a3.142,3.142,0,0,1,.707,1.964C381.5,289.014,383.885,294.309,388.583,295.173Z" transform="translate(-225.316 -131.02)" fill="#4d4cad"/>
        <ellipse id="Ellipse_1326" data-name="Ellipse 1326" cx="17.627" cy="17.045" rx="17.627" ry="17.045" transform="translate(140.588 151.527) rotate(-38.81)" fill="#4d4cad"/>
        <path id="Path_63254" data-name="Path 63254" d="M402.767,355.7l-9.677.283c-6.535.2-12.222-1.225-12.9-7.729l-9.3-47.727c-.126-3.456,2.608-6.818,5.656-8.436,0,0,26.9-4.964,37.374.958l.833.283a9.724,9.724,0,0,1,4.949,8.028l-5,46.391C414.157,354.063,409.082,355.509,402.767,355.7Z" transform="translate(-230.09 -117.912)" fill="#1b1bbd"/>
        <path id="Path_63255" data-name="Path 63255" d="M416.075,294.08c-.377.644-.785,1.272-1.225,1.9a29.236,29.236,0,0,0-5.326,16.04c-.11,5.027.409,10.29-1.115,13.621-1.854,4.037-8.625,4.037-11.987,1.115l-.11-.094a5.121,5.121,0,0,0-6.834-.314,10.463,10.463,0,0,1-7.085,2.482,10.243,10.243,0,0,1-8.153-3.566L378.277,346c.676,6.5,6.362,7.933,12.9,7.729l9.677-.283c6.284-.189,11.39-1.571,11.94-7.949l5.059-46.391a8.971,8.971,0,0,0-1.775-5.027Z" transform="translate(-228.176 -115.663)" fill="#0000a6"/>
        <path id="Path_63256" data-name="Path 63256" d="M388.506,306.817c-2.686,8.4-18.3,41.113-23.2,39.542s3.833-34,6.52-42.417,7.117-13.966,12.018-12.4S391.193,298.412,388.506,306.817Z" transform="translate(-234.116 -117.261)" fill="#1b1bbd"/>
        <path id="Path_63257" data-name="Path 63257" d="M395.368,308.2c3.88,7.855,24.884,36.981,29.519,34.7s-9.552-32.032-13.432-39.887-9.08-12.772-13.7-10.51S391.488,300.271,395.368,308.2Z" transform="translate(-217.35 -116.874)" fill="#1b1bbd"/>
        <path id="Path_63258" data-name="Path 63258" d="M423.432,319.667c-5.75.534-41.71,5.781-41.411,8.955s36.714,3.142,42.417,2.529,8.185-3.409,7.855-6.582S429.119,319.149,423.432,319.667Z" transform="translate(-223.734 -101.095)" fill="#fa968c"/>
        <path id="Path_63259" data-name="Path 63259" d="M396.129,281.85H383.561a10.039,10.039,0,0,1,.6,5.577l-1.21,6.5c-.738,6,1.7,9.065,5.137,9.991a5.624,5.624,0,0,0,5.074-1.414c1.665-1.571,1.65-4.493,1.21-6.975l-.487-1.791C393.16,291.339,396.129,281.85,396.129,281.85Z" transform="translate(-223.279 -122.646)" fill="#fab9af"/>
        <path id="Path_63260" data-name="Path 63260" d="M395.858,281.85H383.29a10.039,10.039,0,0,1,.6,5.577l-.44,2.388a24.927,24.927,0,0,0,4.289,4.069,3.786,3.786,0,0,0,4.791-.142c.314-.251.644-.55.99-.848C393.423,289.658,395.858,281.85,395.858,281.85Z" transform="translate(-223.008 -122.646)" fill="#fa968c"/>
        <path id="Path_63261" data-name="Path 63261" d="M384.012,280.247c.11,1.979.22,4.462-1.571,4.572s-3.692-3.378-3.817-5.357.958-2.529,2.686-2.639S383.934,278.189,384.012,280.247Z" transform="translate(-225.678 -125.52)" fill="#fab9af"/>
        <path id="Path_63262" data-name="Path 63262" d="M392.773,280.067c-.126,1.964-.236,4.446,1.492,4.556s3.707-3.378,3.817-5.341-.958-2.529-2.686-2.639S392.9,278.087,392.773,280.067Z" transform="translate(-217.629 -125.623)" fill="#fab9af"/>
        <path id="Path_63263" data-name="Path 63263" d="M403.281,281.6c0,8.7-5.734,14.673-9.08,17.407a3.77,3.77,0,0,1-4.792.126,21.586,21.586,0,0,1-9.159-17.407c0-10.211,5.546-14.39,11.61-14.39S403.281,271.377,403.281,281.6Z" transform="translate(-224.744 -130.931)" fill="#fab9af"/>
        <path id="Path_63264" data-name="Path 63264" d="M390.093,283.841a1.87,1.87,0,0,1-2.042,2.058h0a1.854,1.854,0,0,1-1.65-1.932l.817-7.855a1.084,1.084,0,0,1,.393-.738,1.116,1.116,0,0,1,.817-.251.9.9,0,0,1,.786.8Z" transform="translate(-221.233 -126.49)" fill="#fa968c"/>
        <path id="Path_63265" data-name="Path 63265" d="M405.811,269.669h0c1.005-1.367-1.791-5.875-6.708-4.6h0a8.514,8.514,0,0,1-5.263-.377,10.747,10.747,0,0,0-5.012-.613,6.818,6.818,0,0,0-5.451,3.519,15.963,15.963,0,0,0-1.43,1.163c-4.038,3.66-3.331,11-3.331,11h0a3.252,3.252,0,0,1,2.624,3.142v3.331a.566.566,0,0,0,.566.566.581.581,0,0,0,.581-.55l.094-2.074a5.231,5.231,0,0,1,3.833-4.713,9.1,9.1,0,0,0,3.645-1.932,15.82,15.82,0,0,0,2.561-2.953A4.132,4.132,0,0,1,397.328,273a10.479,10.479,0,0,1,4.713,4.54,9.882,9.882,0,0,1,1.288,4.886v4.132a.581.581,0,0,0,.566.581.6.6,0,0,0,.581-.581V284.42a3.142,3.142,0,0,1,.691-1.948c2.152-2.733,3.692-8.358.66-12.065A.613.613,0,0,1,405.811,269.669Z" transform="translate(-225.703 -132.835)" fill="#4d4cad"/>
        <path id="Path_63266" data-name="Path 63266" d="M417.277,323.1a16.183,16.183,0,0,0-2.419-4.9c-1.021-1.178-5.263-.157-7.729.566a11.485,11.485,0,0,1-3.8.456c-9.426-.471-27.508-.22-31.7.6-5.671,1.115-8.4,5.561-7.761,8.672,1.053,5,4.085,6.127,9.756,5.027a210.72,210.72,0,0,0,29.676-10.18,13.777,13.777,0,0,1,7.572-1.1Z" transform="translate(-234.153 -102.2)" fill="#fab9af"/>
        <path id="Path_63267" data-name="Path 63267" d="M442.027,362.818c-1.9-.6-7.4-.487-10.746-.6s-4.98-3-7.117-4.006a7.352,7.352,0,0,0-6.755.33c-5.923,3.3-10.51,1.822-15.71.833,0,0-32.378-18.852-42.417-19.559-8.53-.581-12.756,3.833-13.95,8-1.571,5.247,2.592,8.986,7.761,10.73,18.333,6.205,47.742,8.342,60.782,8.122,0,0,16.794-1.445,25.67.141,3.378.6,4.352-.408,4.87-1.571S443.975,363.4,442.027,362.818Z" transform="translate(-244.874 -89.576)" fill="#fab9af"/>
        <rect id="Rectangle_5517" data-name="Rectangle 5517" width="59.399" height="41.396" rx="3.37" transform="translate(134.973 215.461)" fill="#5968f6"/>
        <path id="Path_63268" data-name="Path 63268" d="M422.259,317.66H371.5a4.32,4.32,0,0,0-4.32,4.32v1.288a4.32,4.32,0,0,1,4.32-4.32h50.759a4.32,4.32,0,0,1,4.32,4.32V321.98A4.32,4.32,0,0,0,422.259,317.66Z" transform="translate(-232.207 -102.199)" fill="#394cff"/>
        <path id="Path_63269" data-name="Path 63269" d="M392.738,335.065a7.006,7.006,0,0,1-1.7-4.367v-.77a2.671,2.671,0,0,0-2-2.5.77.77,0,0,1-.55-.723v-.958a.644.644,0,0,0-.675-.628.581.581,0,0,0-.44.2.472.472,0,0,0-.079.424l.251.817a.786.786,0,0,1-.534.927,2.639,2.639,0,0,0-1.791,2.435v.518a6.834,6.834,0,0,1-1.571,4.477,4.839,4.839,0,0,0-1.084,4.273,5.483,5.483,0,0,0,4.336,3.99,5.593,5.593,0,0,0,6.912-5.074,4.933,4.933,0,0,0-1.084-3.048Z" transform="translate(-223.486 -97.939)" fill="#fdfeff"/>
        <path id="Path_63270" data-name="Path 63270" d="M503.253,412.413H351.323a24.853,24.853,0,0,1,0-49.706h39.086v1.571H351.323a23.282,23.282,0,1,0,0,46.564h151.93A23.3,23.3,0,0,0,526.52,387.56V308.743a23.3,23.3,0,0,0-23.266-23.282h-10.4V283.89h10.4a24.869,24.869,0,0,1,24.837,24.853V387.56a24.869,24.869,0,0,1-24.837,24.853Z" transform="translate(-255.452 -121.481)" fill="#5968f6"/>
      </g>
      <path id="Path_63420" data-name="Path 63420" d="M110.356,32.61C110.341,14.6,92.129,0,69.67,0H40.658C18.2,0,0,14.6,0,32.61v1.584C0,51.38,17.37,65.312,38.8,65.312h0a13.431,13.431,0,0,1,10.215,4.337l4.549,5.37a2.142,2.142,0,0,0,1.6.689,2.212,2.212,0,0,0,1.631-.689l4.521-5.37a13.463,13.463,0,0,1,10.214-4.337h0c21.432,0,38.811-13.929,38.827-31.118Z" transform="translate(387.455 205.823) rotate(-8)" fill="#4d4cad"/>
      <text id="Freelancing" transform="matrix(0.985, -0.174, 0.174, 0.985, 403.876, 243.87)" fill="#fff" font-size="16" font-family="Gilroy-ExtraBold, Gilroy" font-weight="800"><tspan x="0" y="0">Freelancing</tspan></text>
    </g>
    <g id="art_5-2" data-name="art 5" transform="translate(82.959 37.831)">
      <g id="OBJECTS-4" data-name="OBJECTS" transform="translate(241.56 189.906)">
        <path id="Path_63211" data-name="Path 63211" d="M348.454,357.659c0,1.833-23.933,3.28-53.456,3.28s-53.438-1.484-53.438-3.28,23.933-3.3,53.438-3.3S348.454,355.844,348.454,357.659Z" transform="translate(-241.56 -52.131)" fill="#d2f0ff"/>
        <path id="Path_63227" data-name="Path 63227" d="M256.814,342.794l-3.537,11.765a5.679,5.679,0,0,1-.7,1.466l-2.529,3.665a4.251,4.251,0,0,0,2.291,6.451s4.471,1.833,9.694,3.519,12.1.275,12.1-1.136c0-3.134-2.932-.641-7.825-3.922-1.649-1.1-2.73-2.254-4.233-3.445-4.233-3.3-.55-11.692,2.034-16.493a2.9,2.9,0,0,0-1.942-4.215l-1.228-.257A3.537,3.537,0,0,0,256.814,342.794Z" transform="translate(-235.098 -63.986)" fill="#fab9af"/>
        <path id="Path_63228" data-name="Path 63228" d="M300.6,294.194c.55-2.309.843-4.691,1.155-5.589a12.258,12.258,0,0,1,.935-1.539,6.945,6.945,0,0,0,1.393-2.9v-3.977c0-1.833.935-3.354,2.841-3.354h0c2.071,0,3.024,1.833,2.767,3.83v2.767a11.8,11.8,0,0,0,.88,4.8,17.648,17.648,0,0,1-.788,10.043c-.586,1.833-5.095,1.521-8.631,1.21-2.364-.2-5.186-.953-4.673-2.016.788-1.668,9.456.495,8.027-4.618,0-.257-.312-.88-.623-.9-.953,0-1.136,2.089-1.594,3.134-.641,1.448-1.649,2.034-2.272,1.833S300.216,295.844,300.6,294.194Z" transform="translate(-195.888 -116.673)" fill="#fab9af"/>
        <path id="Path_63229" data-name="Path 63229" d="M296.878,218.222s30.806,41.416,30.751,64.58c0,15.852-6.652,50.323-6.652,50.323a22.442,22.442,0,0,1-3.17.293,16.765,16.765,0,0,1-3.17-.385s.22-44.074-2.419-51.935S283.9,235.76,283.39,227.5,291.691,211.552,296.878,218.222Z" transform="translate(-206.751 -167.588)" fill="#1b1bbd"/>
        <rect id="Rectangle_5514" data-name="Rectangle 5514" width="120.852" height="76.611" rx="4.48" transform="matrix(0.992, 0.125, -0.125, 0.992, 39.199, 94.18)" fill="#5968f6"/>
        <rect id="Rectangle_5515" data-name="Rectangle 5515" width="105.801" height="65.323" rx="1.24" transform="matrix(0.992, 0.125, -0.125, 0.992, 45.958, 100.729)" fill="#fff"/>
        <path id="Path_63230" data-name="Path 63230" d="M379.576,257.027l.409-3.275a1.574,1.574,0,0,0-1.37-1.779L276.8,239.125a1.574,1.574,0,0,0-1.779,1.37l-.409,3.275Z" transform="translate(-229.254 -138.191)" fill="#c8e6eb"/>
        <path id="Path_63232" data-name="Path 63232" d="M280.617,345.24v9.8a20.875,20.875,0,0,1-.806,5.919l-.843,3.005a3.885,3.885,0,0,0,3.665,4.948h21.038a.953.953,0,0,0,.99-.806c.257-2.877-8.027-4.783-14.257-7.2-4.728-1.833-4.49-10.372-3.9-15.339a3.005,3.005,0,0,0-3.225-3.335h0a3.005,3.005,0,0,0-2.657,3.005Z" transform="translate(-210.539 -62.235)" fill="#fab9af"/>
        <path id="Path_63234" data-name="Path 63234" d="M325.052,310.013l-13.1-92.087-35.369-4.856L258.2,309.353Z" transform="translate(-227.706 -169.766)" fill="#fab9af"/>
        <path id="Path_63235" data-name="Path 63235" d="M273.19,267.959l39.18-3.3s3.94,28.515-5.956,80.139c-4.655,24.208-14.331,70.463-14.331,70.463a11.106,11.106,0,0,1-7.33.7s-.751-20.4-1.191-42.388c-.44-21.056-.55-43.579-1.833-50.946C278.944,307.579,273.19,267.959,273.19,267.959Z" transform="translate(-215.226 -126.814)" fill="#25377a"/>
        <path id="Path_63236" data-name="Path 63236" d="M298.168,269.257a14.257,14.257,0,0,0-9.969,15.174c1.723,15.8,2.8,37.678-3.665,47.445-2.144,3.225-1.5-3.354-2.841-10.721-2.749-15.045-8.5-54.666-8.5-54.666Z" transform="translate(-215.226 -125.29)" fill="#1e2d64"/>
        <path id="Path_63237" data-name="Path 63237" d="M298.722,271.053c4.05,21.7,13.085,54.171-4.325,84.665s-35.68,62.2-35.68,62.2a9.9,9.9,0,0,1-6.487-2.272s3.06-13.818,7.459-29.963c5.058-18.472,11.454-40.188,9.621-51.514-3.409-21.221-7.33-49.48-6.139-63.224S296.6,259.636,298.722,271.053Z" transform="translate(-232.676 -129.413)" fill="#25377a"/>
        <g id="Mask_Group_1" data-name="Mask Group 1" transform="translate(88.191 122.077)" clip-path="url(#clip-path)">
          <g id="language_1_" data-name="language (1)" transform="translate(4.104 0)">
            <path id="Path_63414" data-name="Path 63414" d="M38.349,30.951A20.489,20.489,0,1,0,20.763,41.228a20.33,20.33,0,0,0,9.1-2.217L35.3,39a3.079,3.079,0,0,0,3.064-3.093Z" transform="translate(-0.096 0)" fill="#002084"/>
            <path id="Path_63415" data-name="Path 63415" d="M18.678.084a20.625,20.625,0,0,0,0,41.047V.084Z" transform="translate(-0.096 0.007)" fill="#002084"/>
            <path id="Path_63416" data-name="Path 63416" d="M40.253,26.538a20.713,20.713,0,0,0,0-11.848H29.461l7.056-7.056A20.8,20.8,0,0,0,33.6,4.688L26.53,11.759V.879A20.465,20.465,0,0,0,14.682.873V11.76L7.6,4.676A20.684,20.684,0,0,0,4.683,7.621l7.069,7.069H.955A20.782,20.782,0,0,0,.961,26.538H11.751L4.694,33.6a20.8,20.8,0,0,0,2.917,2.944l7.071-7.071V40.348a20.4,20.4,0,0,0,11.848,0V29.469l9.45,9.45a3.084,3.084,0,0,0,2.379-3.014v-.469l-8.9-8.9H40.253Z" transform="translate(-0.096 0)" fill="#e3e3e3"/>
            <path id="Path_63417" data-name="Path 63417" d="M19.044,41.163V.055a20.357,20.357,0,0,0-4.362.813V11.755L7.6,4.671A20.684,20.684,0,0,0,4.683,7.617l7.069,7.069H.955A20.782,20.782,0,0,0,.961,26.534H11.751L4.694,33.591a20.8,20.8,0,0,0,2.917,2.944l7.071-7.071V40.343A20.234,20.234,0,0,0,19.044,41.163Z" transform="translate(-0.096 0.005)" fill="#fff"/>
            <path id="Path_63418" data-name="Path 63418" d="M40.845,17.273h-16.9v-17a20.506,20.506,0,0,0-6.683,0v17H.365a20.841,20.841,0,0,0,0,6.683h16.9v17a20.428,20.428,0,0,0,6.683,0v-17h16.9a20.765,20.765,0,0,0,0-6.683Z" transform="translate(-0.096 0)" fill="#e20022"/>
            <path id="Path_63419" data-name="Path 63419" d="M20.606,0a20.554,20.554,0,0,0-3.342.273v17H.365a20.841,20.841,0,0,0,0,6.683h16.9v17a20.366,20.366,0,0,0,3.342.275Z" transform="translate(-0.096 0)" fill="#e20022"/>
          </g>
        </g>
        <path id="Path_63238" data-name="Path 63238" d="M324.842,311.358a3.464,3.464,0,0,0,1.833-3.665l-14.459-89.8-35.369-4.856L257.861,307.8a3.244,3.244,0,0,0,2.566,3.848,226.531,226.531,0,0,0,40.317,3.867C314.011,315.591,321.452,312.989,324.842,311.358Z" transform="translate(-228.045 -169.791)" fill="#fff"/>
        <path id="Path_63239" data-name="Path 63239" d="M289.859,218.131c0,6.469,1.283,11.674,1.924,18.106,1.3,13.213,1.393,30.751,1.833,50.909.788,34.819-1.429,44.128-10.666,50.781s-26.957-4.435-27.489-8.137,3.445-49.113,7.935-68.777S280.495,213,280.495,213l5.314.568a4.545,4.545,0,0,1,4.05,4.508Z" transform="translate(-230.026 -169.824)" fill="#1b1bbd"/>
        <path id="Path_63240" data-name="Path 63240" d="M269.5,259.786c4.362-7.019,14.276-29.651,14.276-36.047l-6.8-10.629s-12.095,28.735-16.585,48.4S264.77,267.391,269.5,259.786Z" transform="translate(-226.909 -169.733)" fill="#0000a6"/>
        <path id="Path_63241" data-name="Path 63241" d="M282.29,215a152.218,152.218,0,0,1,4.966,34.489c.531,20.158,2.382,65.5,9.254,83.584,2.2,5.754,18.033-9.511,18.033-14.056s-4.2-19.81-8.155-33.664c-3.189-11.2-7.5-48.856-9.035-62.967-.348-3.17-.825-5.7-3.995-6.121Z" transform="translate(-207.649 -168.159)" fill="#1b1bbd"/>
        <path id="Path_63242" data-name="Path 63242" d="M273.079,195.595a2.932,2.932,0,0,0-3.482,3.665,9.769,9.769,0,0,1,0,5c-1.136,4.142,3.757,5.314,5.5,7s2.107,5.186,5.095,5.5,9.9-2.327,9.859-5.278C290.085,209.119,280.446,197.427,273.079,195.595Z" transform="translate(-218.358 -184.379)" fill="#32285f"/>
        <path id="Path_63243" data-name="Path 63243" d="M284.6,192.59c-7.9,0-10.831,5.626-11,16.017a21.183,21.183,0,0,0,3.115,10.207,7.66,7.66,0,0,1,.733,6.011l-1.741,5.864c-1.173,5.5,1.411,8.43,5.223,9.511a7.477,7.477,0,0,0,5.809-.953c1.961-1.264,2.126-4,1.832-6.3l-.44-1.668a4.142,4.142,0,0,1,2.969-5.168c6.084-1.338,6.946-7.678,8.577-17.5C301.309,198.344,292.494,192.59,284.6,192.59Z" transform="translate(-214.884 -186.817)" fill="#fab9af"/>
        <path id="Path_63244" data-name="Path 63244" d="M302.232,196.752a5.9,5.9,0,0,0-4.948-5.3,22.412,22.412,0,0,1-3.17-.458l-8.558-1.558c-5.5,0-14.514,3.1-13.359,11l.953,5.369a5.351,5.351,0,0,0,4.563,4.325h0a1.136,1.136,0,0,1,.971,0,1.191,1.191,0,0,1,.623.77l.7,3.042c.99,0,1.191-3.3,1.191-4.288a5.369,5.369,0,0,1,4.233-5.2c3.005-.678,3.665-3.042,7.055-2.126l2.529.843c2.9.77,6.524-1.338,6.524-4.325C301.535,198.365,302.232,197.338,302.232,196.752Z" transform="translate(-216.137 -189.44)" fill="#32285f"/>
        <path id="Path_63245" data-name="Path 63245" d="M279.189,203.412c0,2.419-.9,4.362-3.225,4.362s-3.793-3.317-3.793-5.718,1.484-3.005,3.793-3.005S279.189,201.011,279.189,203.412Z" transform="translate(-216.075 -181.439)" fill="#fab9af"/>
        <path id="Path_63246" data-name="Path 63246" d="M288.185,209.123a1.833,1.833,0,0,1-1.833,2.2h0a1.833,1.833,0,0,1-1.833-1.7v-7.7a1.063,1.063,0,0,1,.312-.751,1.1,1.1,0,0,1,.77-.33.88.88,0,0,1,.843.7Z" transform="translate(-205.793 -179.949)" fill="#fa968c"/>
        <path id="Path_63247" data-name="Path 63247" d="M285.2,196.655c3.06.825,4.8,5.9,4.911,7.917h0a1.118,1.118,0,0,0,1.136-1.136v-3.3c0-.568-1.723-4.307-2.291-4.307Z" transform="translate(-205.226 -184.12)" fill="#3b3b8f"/>
        <path id="Path_63248" data-name="Path 63248" d="M261.937,291.543c-.531-2.327-.825-4.71-1.136-5.608a11.506,11.506,0,0,0-.953-1.539,6.854,6.854,0,0,1-1.393-2.9v-3.958c0-1.924-.935-3.372-2.84-3.372h0c-2.071,0-3.024,1.833-2.786,3.83v2.767a11.617,11.617,0,0,1-.861,4.82,17.831,17.831,0,0,0,.77,10.043c.6,1.833,3.005,3.024,6.267,4.38,1.613.678,4.307,1.228,3.28-.715-.88-1.613-5.7-4-4.252-9.163,0-.257.293-.9.623-.9.953,0,1.118,2.089,1.576,3.115.641,1.448,1.668,2.034,2.291,1.833S262.322,293.192,261.937,291.543Z" transform="translate(-233.22 -118.896)" fill="#fab9af"/>
        <path id="Path_63249" data-name="Path 63249" d="M279.152,215.563s-30.787,41.4-30.732,64.58c0,15.852,6.652,50.323,6.652,50.323a22.39,22.39,0,0,0,3.152.293,16.056,16.056,0,0,0,3.17-.4s-.2-43.982,2.437-51.917,27.489-45.43,28.808-53.621C294.033,216.168,286.758,209.039,279.152,215.563Z" transform="translate(-235.848 -169.803)" fill="#1b1bbd"/>
      </g>
    </g>
  </g>
</svg>
