<svg xmlns="http://www.w3.org/2000/svg" xmlns:xlink="http://www.w3.org/1999/xlink" width="410.842" height="407.068" viewBox="0 0 410.842 407.068">
  <defs>
    <linearGradient id="linear-gradient" x1="0.67" y1="0.283" x2="0.149" y2="0.949" gradientUnits="objectBoundingBox">
      <stop offset="0" stop-color="#fff"/>
      <stop offset="1" stop-color="#fff" stop-opacity="0"/>
    </linearGradient>
  </defs>
  <g id="Marketing_Operations" data-name="Marketing Operations" transform="translate(-1085.08 -175.34)">
    <path id="Path_3257" data-name="Path 3257" d="M1406.465,586.153l-14.457-17.375a2.568,2.568,0,0,0-2.337-1.618,2.688,2.688,0,0,0-2.3,1.712l-26.14,34.451-18.907-18.385a2.277,2.277,0,0,0-3.424.111l-18.462,19.909H1216.519c-1.515,0-1.515,7.053,0,7.053h104.919a2.388,2.388,0,0,0,1.763-.856l17.555-18.924,19.575,19.036a2.319,2.319,0,0,0,2.166.659,2.85,2.85,0,0,0,1.823-1.626l25.447-33,13.327,15.116a2.445,2.445,0,0,0,3.33,1.361" transform="translate(-18.416 -56.453)" fill="#f2f6f9"/>
    <path id="Path_3258" data-name="Path 3258" d="M1544.669,514.9c-1.24-.856-2.156-.6-3.412-.146a8.812,8.812,0,0,0-3.049,2.191l-60.527,61.361-19.794-18.385a2.47,2.47,0,0,0-3.586.111l-19.391,19.917h2.251c-1.58,0-2.978,4.28-1.39,4.28l.19,1.857c.671,0,1.327.608,1.848.077l18.412-18.933,20.536,19.036a2.5,2.5,0,0,0,2.267.659,2.957,2.957,0,0,0,1.919-1.626l59.8-59.914c2.7-2.936,4.36-5.136,4.621-6.693C1545.87,515.581,1545.633,515.709,1544.669,514.9Z" transform="translate(-49.701 -48.843)" fill="#f2f6f9"/>
    <g id="Plant" transform="translate(1085.08 206.513)">
      <path id="Path_3259" data-name="Path 3259" d="M1146,454.19a229.152,229.152,0,0,1,12.9,34.785,365.819,365.819,0,0,1,8.5,36.188l1.489,9.175c.531,3.056.933,6.137,1.3,9.21l1.138,9.244.856,9.27.411,4.63.248,4.648.479,9.3c.24,6.205.205,12.411.317,18.625l-3.526-.06c0-6.163.214-12.325.128-18.488l-.257-9.235-.137-4.622-.3-4.613-.6-9.235-.916-9.2c-.291-3.073-.616-6.146-1.07-9.193l-1.276-9.167a366.2,366.2,0,0,0-7.609-36.24A240.394,240.394,0,0,0,1146,454.19Z" transform="translate(-1093.857 -246.689)" fill="#00aeef" opacity="0.7"/>
      <path id="Path_3260" data-name="Path 3260" d="M1085.08,334.16s41.641,23.7,59.213,45.749,17.572,81.492,17.572,90.163c0,0-20.748-66.505-34.1-76.8S1092.843,366.445,1085.08,334.16Z" transform="translate(-1085.08 -229.395)" fill="#00aeef" opacity="0.7"/>
      <path id="Path_3261" data-name="Path 3261" d="M1104.7,357.12c4.545,2.9,8.936,5.991,13.232,9.3s8.559,6.6,12.548,10.271a87.426,87.426,0,0,1,11.255,12.128,33.956,33.956,0,0,1,2.328,3.646c.377.625.659,1.344.984,2.029l.787,1.849,3.158,7.421a286.34,286.34,0,0,1,17.615,62.482,290.918,290.918,0,0,1,3.809,32.268c.8,10.776,1.053,21.561,1.267,32.328q.539,32.294-1.361,64.528h-.342q.394-32.208-.753-64.434c-.428-10.733-1.01-21.458-1.883-32.157a315.135,315.135,0,0,0-4.091-31.926c-3.783-21.124-9.141-42-17.042-61.986l-2.919-7.506a28.791,28.791,0,0,0-3.612-7.1,85.789,85.789,0,0,0-10.553-12.086,253.95,253.95,0,0,0-24.591-20.747Z" transform="translate(-1087.884 -232.703)" fill="#e1f3ff"/>
      <path id="Path_3262" data-name="Path 3262" d="M1200.648,339.376s-19.412,25.233-19.738,53.067-6.146,63.989-4.528,80.525c0,0,11-53.127,17.469-67.96s41.495-85.686,73.481-95.718C1267.333,309.281,1225.555,309.607,1200.648,339.376Z" transform="translate(-1098.194 -225.812)" fill="#00aeef" opacity="0.6"/>
      <path id="Path_3263" data-name="Path 3263" d="M1237.58,324.4a65.265,65.265,0,0,0-16.536,13.13,100.356,100.356,0,0,0-12.676,16.8c-7.575,11.923-11.692,25.438-15.407,39.1q-2.747,10.271-5.016,20.645c-1.592,6.907-2.979,13.866-4.391,20.816s-2.739,13.934-4.023,20.927-2.568,13.977-3.852,20.979q1.652-21.287,5.136-42.4c2.268-14.063,5.084-28.057,8.748-41.872a213.015,213.015,0,0,1,6.565-20.465c1.335-3.347,2.765-6.659,4.442-9.886l2.645-4.7c.856-1.566,1.917-3.047,2.867-4.579a92.786,92.786,0,0,1,13.772-16.545C1225.135,331.547,1230.9,327.07,1237.58,324.4Z" transform="translate(-1098.133 -227.989)" fill="#e1f3ff"/>
      <path id="Path_3264" data-name="Path 3264" d="M1145.592,238.5c-5.512,9.056-8.029,22.87-3.15,42.283s23.427,69.886,23.863,88c0,0,3.877-49.643,0-76.785s1.37-67.729,4.571-80.234C1170.876,211.76,1150.385,230.65,1145.592,238.5Z" transform="translate(-1092.97 -211.76)" fill="#00aeef" opacity="0.8"/>
      <path id="Path_3265" data-name="Path 3265" d="M1162.06,231.41a59.761,59.761,0,0,0-7.771,27.056,63.665,63.665,0,0,0,.856,14.037c.128,1.164.471,2.294.7,3.424s.471,2.277.779,3.424c.582,2.32,1.19,4.639,1.712,6.976a481.137,481.137,0,0,1,9.561,56.585c1,9.526,1.712,19.087,1.909,28.708s.488,19.036.77,28.562q1.018,28.588,1.755,57.227-2.748-28.519-4.5-57.1-.916-14.285-1.361-28.631c-.265-9.458-1.019-18.942-2.08-28.391s-2.26-18.882-3.706-28.245-3.133-18.77-5.016-28.091c-.462-2.328-1-4.648-1.506-6.967s-1.01-4.742-1.292-7.147a64.2,64.2,0,0,1-.257-14.5,61.262,61.262,0,0,1,3.09-14.1,50.955,50.955,0,0,1,6.36-12.83Z" transform="translate(-1094.768 -214.591)" fill="#e1f3ff"/>
      <path id="Path_3266" data-name="Path 3266" d="M1186.95,545.69q-.471,14.867-.111,29.735c.24,9.9.771,19.789,1.866,29.572l-3.509.3c-.522-9.989-.462-19.943-.12-29.88S1186.043,555.567,1186.95,545.69Z" transform="translate(-1099.449 -259.872)" fill="#00aeef" opacity="0.7"/>
      <path id="Path_3267" data-name="Path 3267" d="M1191.508,645.609H1162.15a4.767,4.767,0,0,1-4.716-4.22L1154.07,614h45.561l-3.364,27.39a4.768,4.768,0,0,1-4.759,4.22Z" transform="translate(-1095.02 -269.714)" fill="#203ab3"/>
      <rect id="Rectangle_3788" data-name="Rectangle 3788" width="51.852" height="14.876" rx="2.63" transform="translate(56.012 334.922)" fill="#203ab3"/>
      <path id="Rectangle_21" data-name="Rectangle 21" d="M1197.473,633.3h-41.05l-1.583-12.847h44.208l-1.575,12.847" transform="translate(-1095.131 -270.643)" fill="#e1f3ff"/>
    </g>
    <g id="Window" transform="translate(1190.513 175.34)">
      <rect id="Rectangle_3789" data-name="Rectangle 3789" width="305.256" height="277.901" rx="7.4" fill="#f2f6f9"/>
      <path id="Path_3268" data-name="Path 3268" d="M1507.7,209.286V184.918a9.578,9.578,0,0,0-9.578-9.578h-286.1a9.578,9.578,0,0,0-9.578,9.578v24.368Z" transform="translate(-1202.44 -175.34)" fill="#afe6ff"/>
      <path id="Path_3269" data-name="Path 3269" d="M1507.7,204.15V184.918a9.578,9.578,0,0,0-9.578-9.578h-286.1a9.578,9.578,0,0,0-9.578,9.578V204.15Z" transform="translate(-1202.44 -175.34)" fill="#1b1bbd"/>
      <circle id="Ellipse_501" data-name="Ellipse 501" cx="4.451" cy="4.451" r="4.451" transform="translate(18.051 9.929)" fill="#44c8f5"/>
      <circle id="Ellipse_502" data-name="Ellipse 502" cx="4.451" cy="4.451" r="4.451" transform="translate(33.663 9.929)" fill="#44c8f5"/>
      <circle id="Ellipse_503" data-name="Ellipse 503" cx="4.451" cy="4.451" r="4.451" transform="translate(49.275 9.929)" fill="#44c8f5"/>
      <path id="Path_65397" data-name="Path 65397" d="M258.79,283.946h14.388l34.929-36.079V234.63Z" transform="translate(466.835 471.132) rotate(180)" opacity="0.51" fill="url(#linear-gradient)"/>
      <g id="Group_24154" data-name="Group 24154" transform="matrix(0.966, -0.259, 0.259, 0.966, 3.156, 57.152)">
        <path id="Path_63342" data-name="Path 63342" d="M126.549,33.723l-18.2,69.024a6.991,6.991,0,0,1-8.55,4.983L5.217,82.792A7,7,0,0,1,.233,74.24l18.2-69.023A6.994,6.994,0,0,1,26.984.234l94.582,24.935A7,7,0,0,1,126.549,33.723Z" transform="translate(2.448 4.376)" fill="#87d8f9" opacity="0.421"/>
        <path id="Path_63343" data-name="Path 63343" d="M112.153,33.723l-4.038,15.312L0,20.53,4.036,5.217A6.994,6.994,0,0,1,12.588.234L107.17,25.169A7,7,0,0,1,112.153,33.723Z" transform="translate(16.844 4.376)" fill="#87d8f9"/>
        <rect id="Rectangle_5522" data-name="Rectangle 5522" width="111.811" height="5.15" transform="translate(16.844 24.905) rotate(14.771)" fill="#fff"/>
        <path id="Path_63344" data-name="Path 63344" d="M16.47,10.508A8.372,8.372,0,1,1,10.509.278,8.371,8.371,0,0,1,16.47,10.508Z" transform="translate(37.495 9.349)" fill="#afe6ff"/>
        <path id="Path_63345" data-name="Path 63345" d="M16.467,10.507A8.37,8.37,0,1,1,10.507.279,8.372,8.372,0,0,1,16.467,10.507Z" transform="translate(94.875 24.479)" fill="#afe6ff"/>
        <g id="Group_23307" data-name="Group 23307" transform="translate(40.144 0)">
          <path id="Path_63346" data-name="Path 63346" d="M5.779,23.445a5.558,5.558,0,0,1-1.511-.189A5.717,5.717,0,0,1,.191,16.266L3.352,4.274A5.722,5.722,0,1,1,14.419,7.189L11.259,19.18A5.716,5.716,0,0,1,5.779,23.445Z" transform="translate(0 0)" fill="#fff"/>
          <path id="Path_63347" data-name="Path 63347" d="M5.781,23.45A5.726,5.726,0,0,1,.191,16.264l3.163-12A5.724,5.724,0,0,1,14.424,7.191l-3.163,12A5.728,5.728,0,0,1,5.781,23.45Z" transform="translate(57.377 15.128)" fill="#fff"/>
        </g>
        <rect id="Rectangle_5523" data-name="Rectangle 5523" width="10.878" height="9.238" transform="matrix(0.967, 0.255, -0.255, 0.967, 25.748, 41.745)" fill="#fff"/>
        <rect id="Rectangle_5524" data-name="Rectangle 5524" width="10.879" height="9.238" transform="matrix(0.967, 0.255, -0.255, 0.967, 98.392, 60.898)" fill="#fff"/>
        <rect id="Rectangle_5525" data-name="Rectangle 5525" width="10.877" height="9.237" transform="matrix(0.967, 0.255, -0.255, 0.967, 80.231, 56.11)" fill="#5968f6"/>
        <rect id="Rectangle_5526" data-name="Rectangle 5526" width="10.878" height="9.238" transform="matrix(0.967, 0.255, -0.255, 0.967, 62.069, 51.322)" fill="#fff"/>
        <rect id="Rectangle_5527" data-name="Rectangle 5527" width="10.879" height="9.238" transform="translate(43.909 46.534) rotate(14.77)" fill="#e1f3ff"/>
        <rect id="Rectangle_5528" data-name="Rectangle 5528" width="10.878" height="9.237" transform="translate(21.92 56.261) rotate(14.763)" fill="#e1f3ff"/>
        <rect id="Rectangle_5529" data-name="Rectangle 5529" width="10.878" height="9.237" transform="matrix(0.967, 0.255, -0.255, 0.967, 94.565, 75.414)" fill="#5968f6"/>
        <rect id="Rectangle_5530" data-name="Rectangle 5530" width="10.878" height="9.238" transform="translate(76.404 70.625) rotate(14.772)" fill="#fff"/>
        <rect id="Rectangle_5531" data-name="Rectangle 5531" width="10.878" height="9.238" transform="matrix(0.967, 0.255, -0.255, 0.967, 58.243, 65.836)" fill="#fff"/>
        <rect id="Rectangle_5532" data-name="Rectangle 5532" width="10.878" height="9.238" transform="translate(40.082 61.048) rotate(14.772)" fill="#fff"/>
        <rect id="Rectangle_5533" data-name="Rectangle 5533" width="10.878" height="9.237" transform="matrix(0.967, 0.255, -0.255, 0.967, 18.094, 70.775)" fill="#fff"/>
        <rect id="Rectangle_5534" data-name="Rectangle 5534" width="10.878" height="9.238" transform="translate(90.739 89.927) rotate(14.771)" fill="#fff"/>
        <rect id="Rectangle_5535" data-name="Rectangle 5535" width="10.878" height="9.238" transform="translate(72.576 85.14) rotate(14.763)" fill="#fff"/>
        <rect id="Rectangle_5536" data-name="Rectangle 5536" width="10.878" height="9.238" transform="translate(54.416 80.352) rotate(14.772)" fill="#5968f6"/>
        <rect id="Rectangle_5537" data-name="Rectangle 5537" width="10.878" height="9.237" transform="translate(36.255 75.563) rotate(14.772)" fill="#fff"/>
      </g>
      <rect id="Rectangle_6111" data-name="Rectangle 6111" width="125.102" height="25.489" rx="5.66" transform="translate(156.721 52.728)" fill="#e1f3ff"/>
      <path id="Path_68911" data-name="Path 68911" d="M1501.543,319.116H1396.385a11.752,11.752,0,0,1-11.735-11.735v-5.546a11.752,11.752,0,0,1,11.735-11.735h105.159a11.752,11.752,0,0,1,11.735,11.735v5.546a11.752,11.752,0,0,1-11.735,11.735Zm-105.159-25.489a8.217,8.217,0,0,0-8.208,8.208v5.546a8.217,8.217,0,0,0,8.208,8.208h105.159a8.217,8.217,0,0,0,8.208-8.208v-5.546a8.217,8.217,0,0,0-8.208-8.208Z" transform="translate(-1229.692 -193.874)" fill="#e1f3ff"/>
      <path id="Path_68912" data-name="Path 68912" d="M1501.543,372.117H1396.385a11.743,11.743,0,0,1-11.735-11.726v-5.555a11.743,11.743,0,0,1,11.735-11.726h105.159a11.743,11.743,0,0,1,11.735,11.726v5.555a11.743,11.743,0,0,1-11.735,11.726Zm-105.159-25.489a8.217,8.217,0,0,0-8.208,8.208v5.555a8.217,8.217,0,0,0,8.208,8.2h105.159a8.217,8.217,0,0,0,8.208-8.2v-5.555a8.217,8.217,0,0,0-8.208-8.208Z" transform="translate(-1229.692 -201.512)" fill="#e1f3ff"/>
    </g>
    <g id="Character_2" data-name="Character 2" transform="translate(1192.346 223.212)">
      <path id="Path_3272" data-name="Path 3272" d="M1344.614,329.37c-1.635,1.121-3.92,1.969-4.519,2.482-.154.137-2.225,2.217-3.672,3.672a8.4,8.4,0,0,0-2.208,3.877,5.418,5.418,0,0,0-.154,2.816s2.106,1.558,3.629.745l1.378-3.227a9.8,9.8,0,0,1,3.989-.8c2.8-.214,4.939-3.133,6.976-4.776a7.051,7.051,0,0,0,2.465-5.709,7.755,7.755,0,0,0-2.568,1.977,9.759,9.759,0,0,1-5.135,2.405c-.214,0-.77.043-.856-.205-.317-.728,1.267-1.506,1.934-2.174.924-.933,1.07-1.9.762-2.337S1345.769,328.566,1344.614,329.37Z" transform="translate(-1227.913 -245.207)" fill="#fab9af"/>
      <path id="Path_3273" data-name="Path 3273" d="M1290.7,396.686s-4.28,30.933-.616,45.227,17.255,46.845,13.592,49.643-25.019,2.371-27.612-.428-5.991-92.037,1.541-96.052S1290.162,389.787,1290.7,396.686Z" transform="translate(-1219.134 -254.397)" fill="#0000a6"/>
      <path id="Path_3274" data-name="Path 3274" d="M1265.514,380s6.847-6.959,38.8-11.495L1324.444,338a4.425,4.425,0,0,1,4.28,3.15s-11.178,27.886-20.182,38.106-33.9,15.141-40.759,13.455S1260.815,383.2,1265.514,380Z" transform="translate(-1217.587 -246.647)" fill="#0000a6"/>
      <path id="Path_3275" data-name="Path 3275" d="M1262.383,360.757c-1.232-4.913-3.167-12.12-7.378-14.277-3.424-1.78-8.91.916-12.925,2.029-.394.1-.77.223-1.147.359-5.538,2.011-9.552,5.752-10.271,9.98a20.986,20.986,0,0,1-2.44,7.4,37,37,0,0,0-3.783,8.148,21.4,21.4,0,0,1-7.772,12.231c-4.339,3.184-6.993,9.244-6.556,16.057a22.039,22.039,0,0,0,2.8,9.509,17.333,17.333,0,0,1,2.131,9.167,21.21,21.21,0,0,0,6.111,15.92c5.384,5.136,12.933,5.272,17.88.265,2.319-2.345,2.979-6.308,2.842-10.5-.291-9.1,4.716-16.579,11.914-17.76.317-.051.616-.1.856-.163,5.889-1.241,10.408-7.113,11.127-14.474a22.675,22.675,0,0,0-.625-7.969,29.757,29.757,0,0,1-.856-11.127C1264.789,371.85,1263.7,366,1262.383,360.757Z" transform="translate(-1210.065 -247.784)" fill="#1e2d64"/>
      <path id="Path_3276" data-name="Path 3276" d="M1266.3,388.516a31.927,31.927,0,0,1-.659-3.21,27.96,27.96,0,0,0-.719-3.21c-.265-.924-.488-1.866-.676-2.816-.8-4.1-.856-8.354-2.131-12.351-.856-2.568-2.08-4.759-2.825-7.258a1.421,1.421,0,0,0-1.712-.959c-1.909.445-3.792.916-6.95,1.78a14.439,14.439,0,0,0-10.434,13.01c-1.044,13.019-12.839,24.942-19.447,36.924-6.685,12.377-2.431,28.245,9.244,29.666a11.657,11.657,0,0,0,10.031-3.621,10.194,10.194,0,0,0,2.944-7.515h0c-.291-9.1,4.716-16.579,11.915-17.76.317-.051.616-.1.856-.163,5.889-1.241,10.408-7.113,11.127-14.474A22.674,22.674,0,0,0,1266.3,388.516Z" transform="translate(-1211.147 -249.625)" fill="#0f1446"/>
      <path id="Path_3277" data-name="Path 3277" d="M1220.281,624.338a2.21,2.21,0,0,0-3.792.8c-.317.753-1.267,3.424-1.66,4.143a8.034,8.034,0,0,1-2.32,2.662c-1.96,1.635-1.412,3.218.976,6.325,2,2.568-.18,5.726,2.268,6.77,3.372,1.455,5.837,1.8,6.359,1.018.736-1.121-.24-1.489-2.842-3.749s.146-11.769,1.472-15.595A2.414,2.414,0,0,0,1220.281,624.338Z" transform="translate(-1210.245 -287.789)" fill="#fab9af"/>
      <path id="Path_3278" data-name="Path 3278" d="M1276.075,627.326a2.277,2.277,0,0,0-3.612,1.635,24.133,24.133,0,0,1-.385,2.568,8.241,8.241,0,0,1-1.506,3.193c-1.5,2.063-.582,3.424,2.5,5.889,2.568,2.037,1.224,5.6,3.852,5.991,3.629.582,6.1.308,6.411-.573.445-1.275-.591-1.387-3.663-2.944-3.218-1.626-2.919-9.578-2.568-13.609a2.431,2.431,0,0,0-1.027-2.183Z" transform="translate(-1218.681 -288.27)" fill="#fab9af"/>
      <path id="Path_3279" data-name="Path 3279" d="M1247.34,352.886c-6.736,1.6-8.1,6.993-6.111,15.886a18.476,18.476,0,0,0,4.725,8.071,6.848,6.848,0,0,1,1.849,4.981l-.282,5.358c.1,4.879,2.91,6.9,6.385,7.044a6.505,6.505,0,0,0,4.759-1.986c1.412-1.481.993-3.843.214-5.735l-.719-1.335a3.646,3.646,0,0,1,1.489-5.024c1.429-.685,3.03-.779,3.963-1.806s1.626-9.7-1.626-17.9C1258.621,352.03,1254.068,351.285,1247.34,352.886Z" transform="translate(-1214.435 -248.694)" fill="#fab9af"/>
      <path id="Path_3280" data-name="Path 3280" d="M1264.7,372.574a1.583,1.583,0,0,1-1.173,2.174h0a1.592,1.592,0,0,1-1.832-1.181l-1.233-6.625a.933.933,0,0,1,.753-1.1.77.77,0,0,1,.856.454Z" transform="translate(-1217.324 -250.656)" fill="#fa968c"/>
      <path id="Path_3281" data-name="Path 3281" d="M1237.671,358.621c-.514,1.292-3.424,4.091-1.01,5.461l7.147,4.031a.856.856,0,0,0,1.19-.916l-.539-2.08a2.191,2.191,0,0,1,1.275-2.568l1.25-.522a7.7,7.7,0,0,0,2.568-1.926,7.472,7.472,0,0,1,4.588-2.431,7,7,0,0,1,3.715.573,6.4,6.4,0,0,0,3.578.394,1.326,1.326,0,0,0,1.027-.856C1265.523,348.436,1243.928,343.018,1237.671,358.621Z" transform="translate(-1213.761 -248.199)" fill="#1e2d64"/>
      <path id="Path_3282" data-name="Path 3282" d="M1244.494,371.812c.5,2.054,1.061,4.648-.736,5.076s-4.511-2.876-5-4.93.548-2.842,2.345-3.27S1244.006,369.8,1244.494,371.812Z" transform="translate(-1214.182 -251.059)" fill="#fab9af"/>
      <path id="Path_3283" data-name="Path 3283" d="M1273.6,462.854a13.036,13.036,0,0,1,11.486,10.913,203.635,203.635,0,0,1-1.018,66.933l-8.388,65.05a11.016,11.016,0,0,1-5.067-.591s-6.591-94.9-10.468-114.693-.359-28.9-.359-28.9Z" transform="translate(-1217.018 -264.451)" fill="#4d4cad"/>
      <path id="Path_3284" data-name="Path 3284" d="M1270.52,517.76c-1.481-23.966-7.823-31.156-4.725-55.156v-.591l-5.991-.454s-3.518,9.133.36,28.9c1.4,7.147,3.158,24.12,4.827,42.873C1267.173,557.945,1270.982,525.189,1270.52,517.76Z" transform="translate(-1217.021 -264.45)" fill="#3c3c96"/>
      <path id="Path_3285" data-name="Path 3285" d="M1249.081,461.1a14.439,14.439,0,0,0-14.5,10.271c-2.85,9.415-5.581,25.37-3.022,48.565,0,0,1.969,12.616,0,20.73s-14.551,61-14.551,61a7.959,7.959,0,0,0,4.793,2.174s21.732-42.916,27.227-59.059,15.081-67.917,13.156-82.519Z" transform="translate(-1211.066 -264.381)" fill="#4d4cad"/>
      <path id="Path_3286" data-name="Path 3286" d="M1280.1,417.536c-.2-3.253-5.555-11.324-8.337-15.312,0,0-3.321-8.7-8.782-9.612a32.3,32.3,0,0,0-16.588.993l-2.568.77a9.167,9.167,0,0,0-6.377,10.382l9.064,51.167c8.294,5.863,19.84,7.746,34.091,6.325a2.431,2.431,0,0,0,2.1-3.09l-7.489-25.618a13.4,13.4,0,0,1,2.944-10.271,7.969,7.969,0,0,0,1.943-5.735Z" transform="translate(-1213.99 -254.423)" fill="#fff"/>
      <path id="Path_3287" data-name="Path 3287" d="M1256.133,408.156c.522,10.853,3.612,27.758-7.3,43.25s-.488,26.328-4.81,40.031c-1.832,5.812-21.621,5.991-28.494,1.31-1.917-1.31,10.981-36.685,17.2-49.036s1.558-38.688,1.558-38.688-2.422-10.1,8.936-11.127C1255.277,392.749,1255.927,403.816,1256.133,408.156Z" transform="translate(-1210.825 -254.689)" fill="#1b1bbd"/>
      <path id="Path_3288" data-name="Path 3288" d="M1242.438,408.366c1.447.616,16.186,8.422,17.444,23.35,1.216-8.919.052-17.264-.257-23.564-.214-4.34-.856-15.407-12.916-14.285C1235.351,394.919,1240.315,407.459,1242.438,408.366Z" transform="translate(-1214.308 -254.685)" fill="#0000a6"/>
      <rect id="Rectangle_3792" data-name="Rectangle 3792" width="17.307" height="5.641" rx="1.47" transform="matrix(0.959, 0.283, -0.283, 0.959, 11.746, 206.916)" fill="#0000a6"/>
      <path id="Path_3292" data-name="Path 3292" d="M1295.168,318.434c1.19,1.575,3.09,3.107,3.492,3.783.111.18,1.412,2.8,2.328,4.648a8.3,8.3,0,0,1,.856,4.365,5.335,5.335,0,0,1-.736,2.722s-2.491.813-3.681-.437l-.282-3.5A9.9,9.9,0,0,0,1293.61,328c-2.568-1.087-3.7-4.528-5.135-6.736a7.148,7.148,0,0,1-.539-6.2,7.7,7.7,0,0,1,1.832,2.7,9.744,9.744,0,0,0,4.109,3.9c.2.094.719.282.856.086.522-.6-.736-1.832-1.147-2.679-.582-1.181-.419-2.14,0-2.457S1294.312,317.278,1295.168,318.434Z" transform="translate(-1221.221 -243.344)" fill="#fab9af"/>
      <path id="Path_3293" data-name="Path 3293" d="M1240.542,386.788s9.244-6.282,38.576-19.815L1289.654,332c2.089-1.019,3.895-1.036,5.384,0,0,0-1.318,28.622-7,41s-35.838,26.9-42.882,27.253S1234.062,390.468,1240.542,386.788Z" transform="translate(-1213.987 -245.672)" fill="#1b1bbd"/>
    </g>
    <g id="Character_1" data-name="Character 1" transform="translate(1324.216 322.062)">
      <path id="Path_97" data-name="Path 97" d="M1464.44,624.656l2.568,10.023.505,1.019,1.874,2.713a2.97,2.97,0,0,1-.7,4.126,3.13,3.13,0,0,1-1,.462s-3.732,1.352-7.472,2.568c-3.9,1.19-8.662.171-8.662-.856,0-2.208,2.037-.505,5.606-2.884l3.569-2.568c3.056-2.38.334-8.491-1.524-11.889-.685-1.181,0-4.28,1.352-4.579l.856-.171A2.97,2.97,0,0,1,1464.44,624.656Z" transform="translate(-1376.314 -386.504)" fill="#fab9af"/>
      <path id="Path_98" data-name="Path 98" d="M1462.41,521.863c-.676-1.866-1.352-3.732-1.712-4.579a7.537,7.537,0,0,0-1.018-1.19,8.628,8.628,0,0,1-1.524-2.208l-.514-3.235c-.171-1.523-1.19-2.713-2.713-2.371h0c-1.712.334-2.208,1.866-1.866,3.561l.334,2.379a8.217,8.217,0,0,1-.171,4.074,15.367,15.367,0,0,0,1.874,8.32c.676,1.524,2.885,2.208,5.769,2.893,1.361.334,3.74.505,2.568-1.027-.856-1.181-5.264-2.568-4.588-6.959,0-.171.171-.856.342-.856.856-.171,1.19,1.524,1.712,2.38.685,1.19,1.712,1.524,2.208,1.352C1463.625,523.9,1462.949,523.224,1462.41,521.863Z" transform="translate(-1376.517 -370.023)" fill="#fab9af"/>
      <path id="Path_99" data-name="Path 99" d="M1461.858,403c-4.588,14.26-16.134,41.084-33.278,50.6-11.555,6.454-39.926,15.557-39.926,15.557s-.5-.783-1.167-1.8a9.122,9.122,0,0,1-1.027-2.568s34.819-17.837,39.569-23.11c4.588-5.093,20.208-38.208,24.967-43.3C1456.252,392.451,1464.409,395.019,1461.858,403Z" transform="matrix(0.966, 0.259, -0.259, 0.966, -1212.31, -716.649)" fill="#fab9af"/>
      <path id="Path_99-2" data-name="Path 99" d="M1461.858,403c-4.588,14.26-16,41.3-33.145,50.821-4.99-8.693-4.891-11.228-2.957-12.487,4.588-5.093,20.482-37.863,25.241-42.955C1456.252,392.451,1464.409,395.019,1461.858,403Z" transform="matrix(0.966, 0.259, -0.259, 0.966, -1212.31, -716.649)" fill="#fff"/>
      <path id="Path_100" data-name="Path 100" d="M1456.89,471.749l10.87-77.435,29.718-4.074,15.621,80.833Z" transform="translate(-1377.084 -353.025)" fill="#fab9af"/>
      <path id="Path_101" data-name="Path 101" d="M1528.78,622.193l3.055,10.023a8.495,8.495,0,0,0,.514,1.181l2.208,3.235a3.6,3.6,0,0,1-.976,5,4.088,4.088,0,0,1-.856.437s-4.28,1.524-8.662,2.885c-4.588,1.524-10.194.171-10.194-1.019,0-2.722,2.568-.514,6.625-3.424a34.968,34.968,0,0,0,4.074-2.884c3.569-2.893.514-9.852-1.712-13.926a2.4,2.4,0,0,1,.907-3.287,2.627,2.627,0,0,1,.788-.282l1.018-.171a3.116,3.116,0,0,1,3.21,2.234Z" transform="translate(-1385.293 -386.121)" fill="#fab9af"/>
      <path id="Path_102" data-name="Path 102" d="M1487.519,485.812l-32.944-2.722s-11.718,41.778-14.773,60.454c-2.208,13.421,18.171,65.384,18.171,65.384,2.037.856,3.9-.171,6.111-.685,0,0-6.111-45.843-4.074-57.056,2.208-11.709,19.686-35.315,20.885-41.435A132.721,132.721,0,0,1,1487.519,485.812Z" transform="translate(-1374.597 -366.402)" fill="#0f1446"/>
      <path id="Path_103" data-name="Path 103" d="M1486.789,485.506c-3.424,18.171-11.033,45.509,3.569,71.153s30.06,52.305,30.06,52.305a9.184,9.184,0,0,0,5.435-1.866s-2.568-11.555-6.282-25.138c-4.28-15.407-9.68-33.792-8.148-43.3,2.884-17.829,6.111-41.606,5.093-53.153C1515.659,473.789,1488.492,475.826,1486.789,485.506Z" transform="translate(-1380.663 -365.592)" fill="#1e2d64"/>
      <path id="Path_104" data-name="Path 104" d="M1457.021,472.775a2.645,2.645,0,0,1-1.524-3.056l12.223-75.407,29.718-4.083,15.963,79.644a2.714,2.714,0,0,1-2.106,3.21h-.1a193.7,193.7,0,0,1-33.792,3.235C1466.188,476.336,1459.905,474.127,1457.021,472.775Z" transform="translate(-1376.872 -353.023)" fill="#d2f0ff"/>
      <path id="Path_113" data-name="Path 113" d="M1486.6,407.7a1.156,1.156,0,0,1,.856.676c1.019,3.235,5.6,18.171,6.616,26.328.856,6.616-1.866,18.163-3.424,24.111a9.364,9.364,0,0,1-4.28,5.606l-1.019.676a1.917,1.917,0,0,1-2.568-.676l-.676-1.712a4.733,4.733,0,0,1-.343-3.732c1.866-4.759,6.282-17.118,5.778-25.3-.171-2.884-2.893-20.542-3.74-24.959a.856.856,0,0,1,.668-1,.641.641,0,0,1,.18,0Z" transform="translate(-1380.633 -355.54)" fill="#afe6ff"/>
      <path id="Path_114" data-name="Path 114" d="M1485.217,405.1a1.156,1.156,0,0,1,.856.676c1.018,3.235,1.361,18.673,2.208,26.864.676,6.616,1.695,17.832,0,23.636a9.151,9.151,0,0,1-4.28,5.435l-1.018.505a1.917,1.917,0,0,1-2.568-.676l-.856-1.524a4.143,4.143,0,0,1-.171-3.74c1.866-4.579,1.2-17.7,1.027-25.852,0-2.884,2.859-19.82,2.371-24.407a.958.958,0,0,1,.856-1.027Z" transform="translate(-1380.272 -355.15)" fill="#0000a6"/>
      <path id="Path_65390" data-name="Path 65390" d="M9.111,7.892c-.477,2.067-.8,4.134-.954,4.929a8.877,8.877,0,0,1-.8,1.272,6.865,6.865,0,0,0-1.329,2.9,3.713,3.713,0,0,1-5.272.388,9.654,9.654,0,0,0-.4-4.238c-.8-2.862-.159-6.2.636-8.746C1.478,2.8,3.7,1.691,6.567.577,8-.059,10.383-.536,9.429,1.213c-.8,1.431-4.929,3.5-3.657,7.951,0,.159.318.8.477.8.8,0,.954-1.908,1.431-2.7.636-1.272,1.431-1.749,2.067-1.59C10.224,5.666,9.588,6.461,9.111,7.892Z" transform="matrix(-0.208, -0.978, 0.978, -0.208, -8.644, 100.406)" fill="#fab9af"/>
      <path id="Path_105" data-name="Path 105" d="M1489.964,418.618c1.956,5.4-3.438,10.865-3.46,17.4-.015,4.835,1.458,11.363,0,19.051-5.03,10.774-2.771,15.619,3.46,21.608s28.731,2.047,29.253-1.018-1.246-27.064-4.978-43.532-12.444-41.666-12.444-41.666l-5.365.783C1496.241,391.031,1488.269,414.038,1489.964,418.618Z" transform="translate(-1382.667 -353.118)" fill="#1b1bbd"/>
      <path id="Path_106" data-name="Path 106" d="M1471.651,394.137s-.2,3.454,2.036,15.013a80.043,80.043,0,0,1,2.53,12.244c.407,3.467,3.372,9.435,4.026,16.786.954,10.717-.522,15.709-1.24,25.831-.915,12.9-.265,11.847-6.394,15.244-8.721,1.691-20.6-2.907-20.6-5.115,0-3.911-1.079-9.462,2.148-21.179,2.722-9.338,5.435-40.579,6.282-52.639a5.871,5.871,0,0,1,5.1-5.342Z" transform="translate(-1375.712 -353.596)" fill="#1b1bbd"/>
      <g id="Group_121" data-name="Group 121" transform="translate(83.744)">
        <path id="Path_107" data-name="Path 107" d="M1498.657,355.907a11.616,11.616,0,0,0,2.208,7.815c2.713,3.227-1.19,6.274-2.208,8.491-.856,2.208.163,5.6-2.38,7.13s-9.852,1.866-11.033-.685C1484.047,375.773,1490.329,354.375,1498.657,355.907Z" transform="translate(-1464.891 -348.066)" fill="#0f1446"/>
        <path id="Path_108" data-name="Path 108" d="M1466.609,360.54c-.342,14.6,13.241,17.5,21.227,17.5s8.32-17.5,8.32-23.966c0-6.282-6.282-7.31-14.1-7.31-6.274,0-12.223,4.93-14.6,9.509A7.514,7.514,0,0,0,1466.609,360.54Z" transform="translate(-1462.226 -346.76)" fill="#0f1446"/>
        <path id="Path_109" data-name="Path 109" d="M1481.7,353.34c6.625,0,9.175,4.75,9.175,13.412a19.309,19.309,0,0,1-2.568,8.662,6.7,6.7,0,0,0-.676,5.093l1.524,4.93c1.018,4.579-1.19,7.13-4.417,7.986a5.7,5.7,0,0,1-4.922-.856c-1.712-1.019-1.866-3.424-1.523-5.264l.334-1.352a3.543,3.543,0,0,0-2.422-4.382h-.12c-5.093-1.19-5.777-6.454-7.138-14.773C1467.785,358.262,1475.086,353.34,1481.7,353.34Z" transform="translate(-1462.547 -347.708)" fill="#fab9af"/>
        <path id="Path_110" data-name="Path 110" d="M1465.2,348.609l3.732,1.181a6.042,6.042,0,0,0,4.28,0l7.643-2.2c4.588,0,12.231,2.568,11.2,9.167l-.856,4.75a4.143,4.143,0,0,1-3.732,3.424h0a1.412,1.412,0,0,1-1.361,1.019,1.524,1.524,0,0,1-1.523-1.524h0a4.691,4.691,0,0,0-3.569-4.417,18.958,18.958,0,0,0-8.148,0c-5.264,1.361-10.87-1.866-11.375-7.3V351.69C1461.627,349.79,1463.33,348.095,1465.2,348.609Z" transform="translate(-1461.49 -346.88)" fill="#0f1446"/>
        <path id="Path_111" data-name="Path 111" d="M1490.42,368.606c0,2.037.676,3.732,2.722,3.732,1.866,0,3.227-2.713,3.227-4.75s-1.19-2.568-3.227-2.568C1491.267,365,1490.42,366.569,1490.42,368.606Z" transform="translate(-1465.658 -349.391)" fill="#fab9af"/>
        <path id="Path_112" data-name="Path 112" d="M1471.564,375.179a1.54,1.54,0,0,0,1.164,1.832,1.713,1.713,0,0,0,.368.043h0a1.506,1.506,0,0,0,1.523-1.361v-6.454a1.25,1.25,0,0,0-.342-.676.855.855,0,0,0-.676-.342c-.343,0-.685.171-.685.5Z" transform="translate(-1462.936 -349.852)" fill="#fa968c"/>
      </g>
      <path id="Path_65393" data-name="Path 65393" d="M8.813,2.256c-.477,2.067-.8,4.134-.954,4.929a8.877,8.877,0,0,1-.8,1.272,6.865,6.865,0,0,0-1.329,2.9,3.713,3.713,0,0,1-5.272.388A9.654,9.654,0,0,0,.067,7.5c-.8-2.862,5.724-3.18,5.883-3.18.8,0,.954-1.908,1.431-2.7C8.018.348,8.813-.13,9.449.029,9.926.029,9.29.825,8.813,2.256Z" transform="matrix(-0.208, -0.978, 0.978, -0.208, -3.193, 98.942)" fill="#fab9af"/>
      <path id="Path_115" data-name="Path 115" d="M1483.135,404.889h2.885a.8.8,0,0,0,.856-.753.169.169,0,0,0,0-.094v-2.893a.8.8,0,0,0-.753-.856h-.094l-2.568-.342a1.438,1.438,0,0,0-1.19,1.19v2.884a.916.916,0,0,0,.865.865Z" transform="translate(-1380.74 -354.423)" fill="#0000a6"/>
      <g id="case" transform="translate(-16.956 24.007)">
        <path id="Path_68431" data-name="Path 68431" d="M17.529,80.066V102.6H6.26v-6.26H0V40H17.529Zm0,0" transform="translate(0 -33.74)" fill="#fff"/>
        <g id="Group_25158" data-name="Group 25158" transform="translate(7.512 22.537)">
          <path id="Path_68432" data-name="Path 68432" d="M58.016,146.5H49.252a1.252,1.252,0,0,1,0-2.5h8.764a1.252,1.252,0,1,1,0,2.5Zm0,0" transform="translate(-48 -144)" fill="#f2f2f2"/>
          <path id="Path_68433" data-name="Path 68433" d="M58.016,194.5H49.252a1.252,1.252,0,0,1,0-2.5h8.764a1.252,1.252,0,1,1,0,2.5Zm0,0" transform="translate(-48 -184.488)" fill="#f2f2f2"/>
          <path id="Path_68434" data-name="Path 68434" d="M58.016,242.5H49.252a1.252,1.252,0,0,1,0-2.5h8.764a1.252,1.252,0,1,1,0,2.5Zm0,0" transform="translate(-48 -224.975)" fill="#f2f2f2"/>
          <path id="Path_68435" data-name="Path 68435" d="M58.016,290.5H49.252a1.252,1.252,0,1,1,0-2.5h8.764a1.252,1.252,0,1,1,0,2.5Zm0,0" transform="translate(-48 -265.463)" fill="#f2f2f2"/>
        </g>
        <path id="Path_68436" data-name="Path 68436" d="M6.26,400v6.26L0,400Zm0,0" transform="translate(0 -337.397)" fill="#f5f7fa"/>
        <path id="Path_68437" data-name="Path 68437" d="M117.008,431.512H160.83v-3.756h1.252A3.751,3.751,0,0,0,165.839,424v7.512a3.751,3.751,0,0,1-3.756,3.756H115.756a3.756,3.756,0,1,1,0-7.512h1.252Zm0,0" transform="translate(-94.471 -357.641)" fill="#f6bb42"/>
        <path id="Path_68438" data-name="Path 68438" d="M144,448h43.822v3.756H144Zm0,0" transform="translate(-121.463 -377.885)" fill="#f5f7fa"/>
        <path id="Path_68439" data-name="Path 68439" d="M461.008,40V56.277L456,61.285V40Zm0,0" transform="translate(-384.633 -33.74)" fill="#f6bb42"/>
        <path id="Path_68440" data-name="Path 68440" d="M162.082,0H115.756A3.751,3.751,0,0,0,112,3.756V73.872a3.759,3.759,0,0,1,3.756-3.756h46.326a3.751,3.751,0,0,0,3.756-3.756V3.756A3.751,3.751,0,0,0,162.082,0Z" transform="translate(-94.471)" fill="#ffce54"/>
        <path id="Path_68445" data-name="Path 68445" d="M237.246,274.68H217.213a1.252,1.252,0,0,1,0-2.5h20.033a1.252,1.252,0,0,1,0,2.5Zm0,0" transform="translate(-182.161 -229.578)" fill="#656d78"/>
        <path id="Path_68446" data-name="Path 68446" d="M215.241,330.656H185.182a1.252,1.252,0,1,1,0-2.5h30.059a1.252,1.252,0,1,1,0,2.5Zm0,0" transform="translate(-155.143 -276.794)" fill="#f6bb42"/>
        <path id="Path_68447" data-name="Path 68447" d="M248.229,354.649H233.2a1.252,1.252,0,1,1,0-2.5h15.032a1.252,1.252,0,1,1,0,2.5Zm0,0" transform="translate(-195.644 -297.031)" fill="#f6bb42"/>
        <g id="factory" transform="translate(25.663 8.731)">
          <path id="Path_69439" data-name="Path 69439" d="M29.8,14.249a1.411,1.411,0,0,0-1.5.264l-2.35,1.9v-.855a1.417,1.417,0,0,0-2.374-1.045l-2.35,1.9v-.855a1.417,1.417,0,0,0-2.374-1.045l-3.413,2.76-.827-7.445A1.892,1.892,0,0,0,12.724,8H10.834A1.892,1.892,0,0,0,8.946,9.829l-.94,8.46c0,.018,0,.035,0,.052S8,18.374,8,18.392V29.729a.945.945,0,0,0,.945.945H29.729a.945.945,0,0,0,.945-.945V15.559a1.413,1.413,0,0,0-.875-1.309ZM10.834,9.889h1.889a.966.966,0,0,0,.006.1l.828,7.454H10l.828-7.454A.859.859,0,0,0,10.834,9.889Zm17.95,18.895H9.889V19.337h5.668a.943.943,0,0,0,.594-.21l3.185-2.575v1.84a.944.944,0,0,0,1.539.735l3.185-2.575v1.84a.944.944,0,0,0,1.539.735l3.185-2.575Z" transform="translate(0)" fill="#545c66"/>
          <path id="Path_69440" data-name="Path 69440" d="M21.889,36h-.945a.945.945,0,0,0,0,1.889h.945a.945.945,0,0,0,0-1.889Z" transform="translate(-6.332 -14.774)" fill="#545c66"/>
          <path id="Path_69441" data-name="Path 69441" d="M30.889,36h-.945a.945.945,0,0,0,0,1.889h.945a.945.945,0,1,0,0-1.889Z" transform="translate(-11.08 -14.774)" fill="#545c66"/>
          <path id="Path_69442" data-name="Path 69442" d="M39.889,36h-.945a.945.945,0,0,0,0,1.889h.945a.945.945,0,1,0,0-1.889Z" transform="translate(-15.829 -14.774)" fill="#545c66"/>
          <path id="Path_69443" data-name="Path 69443" d="M21.889,44h-.945a.945.945,0,0,0,0,1.889h.945a.945.945,0,0,0,0-1.889Z" transform="translate(-6.332 -18.995)" fill="#545c66"/>
          <path id="Path_69444" data-name="Path 69444" d="M30.889,44h-.945a.945.945,0,0,0,0,1.889h.945a.945.945,0,1,0,0-1.889Z" transform="translate(-11.08 -18.995)" fill="#545c66"/>
          <path id="Path_69445" data-name="Path 69445" d="M39.889,44h-.945a.945.945,0,0,0,0,1.889h.945a.945.945,0,1,0,0-1.889Z" transform="translate(-15.829 -18.995)" fill="#545c66"/>
        </g>
      </g>
      <path id="Path_116" data-name="Path 116" d="M1491.584,390l4.75.856s-1.018,7.815-4.75,13.592a.856.856,0,0,1-1.164,0h0L1487,399.689a1.515,1.515,0,0,1,0-1.866Z" transform="translate(-1381.375 -352.99)" fill="#fff"/>
      <path id="Path_117" data-name="Path 117" d="M1479.5,392.42l-4.75,1.532s-.171,4.75,3.561,10.357a.856.856,0,0,0,1.164,0h0l2.722-4.417a2,2,0,0,0,.162-1.712Z" transform="translate(-1379.657 -353.339)" fill="#fff"/>
      <path id="Path_121" data-name="Path 121" d="M1433.983,407.564a2.662,2.662,0,0,0,.334-3.74l-1.018-1.352a8.969,8.969,0,0,1-2.037-5.435c0-1.361-.856-5.264-2.208-4.93-1.19.171,0,4.93-1.19,4.759-.5,0-2.568-3.424-4.074-5.435-.856-1.019-2.38-1.712-2.568-.676-.171.676-.856.676-1.532,1.19s-.334,3.9-.334,4.922c0,1.19-.342,1.523,1.352,3.424,1.361,1.524,7.138,5.264,7.138,5.264l2.568,1.712a2.482,2.482,0,0,0,3.492.4l.077-.06Z" transform="translate(-1371.663 -353.025)" fill="#fab9af"/>
      <path id="Path_122" data-name="Path 122" d="M1434.745,402.292s23.966,23.11,29.555,24.959,21.732-31.412,24.616-34.81c4.759-5.769,15.116.171,13.25,10.7-2.208,13.25-33.963,39.056-37.866,39.372s-33.141-35.777-33.141-35.777C1431.673,405.066,1432.374,403.987,1434.745,402.292Z" transform="translate(-1373.281 -353.017)" fill="#fab9af"/>
      <path id="Path_122-2" data-name="Path 122" d="M1464.3,426.674c5.589,1.849,21.732-30.835,24.616-34.233,4.759-5.769,15.116.171,13.25,10.7-2.208,13.25-33.963,39.056-37.866,39.372S1458.711,424.825,1464.3,426.674Z" transform="translate(-1373.281 -353.017)" fill="#fff"/>
      <rect id="Rectangle_5662" data-name="Rectangle 5662" width="16.165" height="4.917" rx="1.47" transform="matrix(-0.959, 0.283, -0.283, -0.959, 131.101, 101.486)" fill="#0000a6"/>
      <rect id="Rectangle_5663" data-name="Rectangle 5663" width="16.165" height="4.917" rx="1.47" transform="translate(91.213 108.182) rotate(-170.41)" fill="#0000a6"/>
      <circle id="Ellipse_1377" data-name="Ellipse 1377" cx="1" cy="1" r="1" transform="translate(101.044 110.075)" fill="#1e2d64"/>
      <circle id="Ellipse_1378" data-name="Ellipse 1378" cx="1" cy="1" r="1" transform="translate(102.044 98.075)" fill="#1e2d64"/>
      <circle id="Ellipse_1379" data-name="Ellipse 1379" cx="1" cy="1" r="1" transform="translate(102.044 87.075)" fill="#1e2d64"/>
    </g>
  </g>
</svg>
