<svg xmlns="http://www.w3.org/2000/svg" width="410.842" height="406.068" viewBox="0 0 410.842 406.068">
  <g id="Cleaning_Operations" data-name="Cleaning Operations" transform="translate(-1085.08 -175.34)">
    <path id="Path_3257" data-name="Path 3257" d="M1406.465,586.153l-14.457-17.375a2.568,2.568,0,0,0-2.337-1.618,2.688,2.688,0,0,0-2.3,1.712l-26.14,34.451-18.907-18.385a2.277,2.277,0,0,0-3.424.111l-18.462,19.909H1216.519c-1.515,0-1.515,7.053,0,7.053h104.919a2.388,2.388,0,0,0,1.763-.856l17.555-18.924,19.575,19.036a2.319,2.319,0,0,0,2.166.659,2.85,2.85,0,0,0,1.823-1.626l25.447-33,13.327,15.116a2.445,2.445,0,0,0,3.33,1.361" transform="translate(-18.416 -56.453)" fill="#e1f3ff"/>
    <path id="Path_3258" data-name="Path 3258" d="M1544.669,514.9c-1.24-.856-2.156-.6-3.412-.146a8.812,8.812,0,0,0-3.049,2.191l-60.527,61.361-19.794-18.385a2.47,2.47,0,0,0-3.586.111l-19.391,19.917h2.251c-1.58,0-2.978,4.28-1.39,4.28l.19,1.857c.671,0,1.327.608,1.848.077l18.412-18.933,20.536,19.036a2.5,2.5,0,0,0,2.267.659,2.957,2.957,0,0,0,1.919-1.626l59.8-59.914c2.7-2.936,4.36-5.136,4.621-6.693C1545.87,515.581,1545.633,515.709,1544.669,514.9Z" transform="translate(-49.701 -48.843)" fill="#e1f3ff"/>
    <g id="Plant" transform="translate(1085.08 205.513)">
      <path id="Path_3259" data-name="Path 3259" d="M1146,454.19a229.152,229.152,0,0,1,12.9,34.785,365.819,365.819,0,0,1,8.5,36.188l1.489,9.175c.531,3.056.933,6.137,1.3,9.21l1.138,9.244.856,9.27.411,4.63.248,4.648.479,9.3c.24,6.205.205,12.411.317,18.625l-3.526-.06c0-6.163.214-12.325.128-18.488l-.257-9.235-.137-4.622-.3-4.613-.6-9.235-.916-9.2c-.291-3.073-.616-6.146-1.07-9.193l-1.276-9.167a366.2,366.2,0,0,0-7.609-36.24A240.394,240.394,0,0,0,1146,454.19Z" transform="translate(-1093.857 -246.689)" fill="#00aeef" opacity="0.7"/>
      <path id="Path_3260" data-name="Path 3260" d="M1085.08,334.16s41.641,23.7,59.213,45.749,17.572,81.492,17.572,90.163c0,0-20.748-66.505-34.1-76.8S1092.843,366.445,1085.08,334.16Z" transform="translate(-1085.08 -229.395)" fill="#00aeef" opacity="0.7"/>
      <path id="Path_3261" data-name="Path 3261" d="M1104.7,357.12c4.545,2.9,8.936,5.991,13.232,9.3s8.559,6.6,12.548,10.271a87.426,87.426,0,0,1,11.255,12.128,33.956,33.956,0,0,1,2.328,3.646c.377.625.659,1.344.984,2.029l.787,1.849,3.158,7.421a286.34,286.34,0,0,1,17.615,62.482,290.918,290.918,0,0,1,3.809,32.268c.8,10.776,1.053,21.561,1.267,32.328q.539,32.294-1.361,64.528h-.342q.394-32.208-.753-64.434c-.428-10.733-1.01-21.458-1.883-32.157a315.135,315.135,0,0,0-4.091-31.926c-3.783-21.124-9.141-42-17.042-61.986l-2.919-7.506a28.791,28.791,0,0,0-3.612-7.1,85.789,85.789,0,0,0-10.553-12.086,253.95,253.95,0,0,0-24.591-20.747Z" transform="translate(-1087.884 -232.703)" fill="#e1f3ff"/>
      <path id="Path_3262" data-name="Path 3262" d="M1200.648,339.376s-19.412,25.233-19.738,53.067-6.146,63.989-4.528,80.525c0,0,11-53.127,17.469-67.96s41.495-85.686,73.481-95.718C1267.333,309.281,1225.555,309.607,1200.648,339.376Z" transform="translate(-1098.194 -225.812)" fill="#00aeef" opacity="0.6"/>
      <path id="Path_3263" data-name="Path 3263" d="M1237.58,324.4a65.265,65.265,0,0,0-16.536,13.13,100.356,100.356,0,0,0-12.676,16.8c-7.575,11.923-11.692,25.438-15.407,39.1q-2.747,10.271-5.016,20.645c-1.592,6.907-2.979,13.866-4.391,20.816s-2.739,13.934-4.023,20.927-2.568,13.977-3.852,20.979q1.652-21.287,5.136-42.4c2.268-14.063,5.084-28.057,8.748-41.872a213.015,213.015,0,0,1,6.565-20.465c1.335-3.347,2.765-6.659,4.442-9.886l2.645-4.7c.856-1.566,1.917-3.047,2.867-4.579a92.786,92.786,0,0,1,13.772-16.545C1225.135,331.547,1230.9,327.07,1237.58,324.4Z" transform="translate(-1098.133 -227.989)" fill="#e1f3ff"/>
      <path id="Path_3264" data-name="Path 3264" d="M1145.592,238.5c-5.512,9.056-8.029,22.87-3.15,42.283s23.427,69.886,23.863,88c0,0,3.877-49.643,0-76.785s1.37-67.729,4.571-80.234C1170.876,211.76,1150.385,230.65,1145.592,238.5Z" transform="translate(-1092.97 -211.76)" fill="#00aeef" opacity="0.8"/>
      <path id="Path_3265" data-name="Path 3265" d="M1162.06,231.41a59.761,59.761,0,0,0-7.771,27.056,63.665,63.665,0,0,0,.856,14.037c.128,1.164.471,2.294.7,3.424s.471,2.277.779,3.424c.582,2.32,1.19,4.639,1.712,6.976a481.137,481.137,0,0,1,9.561,56.585c1,9.526,1.712,19.087,1.909,28.708s.488,19.036.77,28.562q1.018,28.588,1.755,57.227-2.748-28.519-4.5-57.1-.916-14.285-1.361-28.631c-.265-9.458-1.019-18.942-2.08-28.391s-2.26-18.882-3.706-28.245-3.133-18.77-5.016-28.091c-.462-2.328-1-4.648-1.506-6.967s-1.01-4.742-1.292-7.147a64.2,64.2,0,0,1-.257-14.5,61.262,61.262,0,0,1,3.09-14.1,50.955,50.955,0,0,1,6.36-12.83Z" transform="translate(-1094.768 -214.591)" fill="#e1f3ff"/>
      <path id="Path_3266" data-name="Path 3266" d="M1186.95,545.69q-.471,14.867-.111,29.735c.24,9.9.771,19.789,1.866,29.572l-3.509.3c-.522-9.989-.462-19.943-.12-29.88S1186.043,555.567,1186.95,545.69Z" transform="translate(-1099.449 -259.872)" fill="#00aeef" opacity="0.7"/>
      <path id="Path_3267" data-name="Path 3267" d="M1191.508,645.609H1162.15a4.767,4.767,0,0,1-4.716-4.22L1154.07,614h45.561l-3.364,27.39a4.768,4.768,0,0,1-4.759,4.22Z" transform="translate(-1095.02 -269.714)" fill="#5968f6"/>
      <rect id="Rectangle_3788" data-name="Rectangle 3788" width="51.852" height="14.876" rx="2.63" transform="translate(56.012 334.922)" fill="#5968f6"/>
      <path id="Rectangle_21" data-name="Rectangle 21" d="M1197.473,633.3h-41.05l-1.583-12.847h44.208l-1.575,12.847" transform="translate(-1095.131 -270.643)" fill="#e1f3ff"/>
    </g>
    <g id="Window" transform="translate(1190.513 175.34)">
      <rect id="Rectangle_3789" data-name="Rectangle 3789" width="305.256" height="277.901" rx="7.4" fill="#f2f6f9"/>
      <g id="Group_24789" data-name="Group 24789" transform="matrix(0.966, -0.259, 0.259, 0.966, 6.156, 57.152)">
        <path id="Path_63342" data-name="Path 63342" d="M126.549,33.723l-18.2,69.024a6.991,6.991,0,0,1-8.55,4.983L5.217,82.792A7,7,0,0,1,.233,74.24l18.2-69.023A6.994,6.994,0,0,1,26.984.234l94.582,24.935A7,7,0,0,1,126.549,33.723Z" transform="translate(2.448 4.376)" fill="#e1f3ff"/>
        <path id="Path_63343" data-name="Path 63343" d="M112.153,33.723l-4.038,15.312L0,20.53,4.036,5.217A6.994,6.994,0,0,1,12.588.234L107.17,25.169A7,7,0,0,1,112.153,33.723Z" transform="translate(16.844 4.376)" fill="#e1f3ff"/>
        <rect id="Rectangle_5522" data-name="Rectangle 5522" width="111.811" height="5.15" transform="translate(16.844 24.905) rotate(14.771)" fill="#fff"/>
        <path id="Path_63344" data-name="Path 63344" d="M16.47,10.508A8.372,8.372,0,1,1,10.509.278,8.371,8.371,0,0,1,16.47,10.508Z" transform="translate(37.495 9.349)" fill="#afe6ff"/>
        <path id="Path_63345" data-name="Path 63345" d="M16.467,10.507A8.37,8.37,0,1,1,10.507.279,8.372,8.372,0,0,1,16.467,10.507Z" transform="translate(94.875 24.479)" fill="#afe6ff"/>
        <g id="Group_23307" data-name="Group 23307" transform="translate(40.144 0)">
          <path id="Path_63346" data-name="Path 63346" d="M5.779,23.445a5.558,5.558,0,0,1-1.511-.189A5.717,5.717,0,0,1,.191,16.266L3.352,4.274A5.722,5.722,0,1,1,14.419,7.189L11.259,19.18A5.716,5.716,0,0,1,5.779,23.445Z" transform="translate(0 0)" fill="#fff"/>
          <path id="Path_63347" data-name="Path 63347" d="M5.781,23.45A5.726,5.726,0,0,1,.191,16.264l3.163-12A5.724,5.724,0,0,1,14.424,7.191l-3.163,12A5.728,5.728,0,0,1,5.781,23.45Z" transform="translate(57.377 15.128)" fill="#fff"/>
        </g>
        <rect id="Rectangle_5523" data-name="Rectangle 5523" width="10.878" height="9.238" transform="matrix(0.967, 0.255, -0.255, 0.967, 25.748, 41.745)" fill="#fff"/>
        <rect id="Rectangle_5524" data-name="Rectangle 5524" width="10.879" height="9.238" transform="matrix(0.967, 0.255, -0.255, 0.967, 98.392, 60.898)" fill="#fff"/>
        <rect id="Rectangle_5525" data-name="Rectangle 5525" width="10.877" height="9.237" transform="matrix(0.967, 0.255, -0.255, 0.967, 80.231, 56.11)" fill="#1b1bbd"/>
        <rect id="Rectangle_5526" data-name="Rectangle 5526" width="10.878" height="9.238" transform="matrix(0.967, 0.255, -0.255, 0.967, 62.069, 51.322)" fill="#fff"/>
        <rect id="Rectangle_5527" data-name="Rectangle 5527" width="10.879" height="9.238" transform="translate(43.909 46.534) rotate(14.77)" fill="#e1f3ff"/>
        <rect id="Rectangle_5528" data-name="Rectangle 5528" width="10.878" height="9.237" transform="translate(21.92 56.261) rotate(14.763)" fill="#e1f3ff"/>
        <rect id="Rectangle_5529" data-name="Rectangle 5529" width="10.878" height="9.237" transform="matrix(0.967, 0.255, -0.255, 0.967, 94.565, 75.414)" fill="#1b1bbd"/>
        <rect id="Rectangle_5530" data-name="Rectangle 5530" width="10.878" height="9.238" transform="translate(76.404 70.625) rotate(14.772)" fill="#fff"/>
        <rect id="Rectangle_5531" data-name="Rectangle 5531" width="10.878" height="9.238" transform="matrix(0.967, 0.255, -0.255, 0.967, 58.243, 65.836)" fill="#fff"/>
        <rect id="Rectangle_5532" data-name="Rectangle 5532" width="10.878" height="9.238" transform="translate(40.082 61.048) rotate(14.772)" fill="#fff"/>
        <rect id="Rectangle_5533" data-name="Rectangle 5533" width="10.878" height="9.237" transform="matrix(0.967, 0.255, -0.255, 0.967, 18.094, 70.775)" fill="#fff"/>
        <rect id="Rectangle_5534" data-name="Rectangle 5534" width="10.878" height="9.238" transform="translate(90.739 89.927) rotate(14.771)" fill="#fff"/>
        <rect id="Rectangle_5535" data-name="Rectangle 5535" width="10.878" height="9.238" transform="translate(72.576 85.14) rotate(14.763)" fill="#fff"/>
        <rect id="Rectangle_5536" data-name="Rectangle 5536" width="10.878" height="9.238" transform="translate(54.416 80.352) rotate(14.772)" fill="#1b1bbd"/>
        <rect id="Rectangle_5537" data-name="Rectangle 5537" width="10.878" height="9.237" transform="translate(36.255 75.563) rotate(14.772)" fill="#fff"/>
      </g>
      <path id="Path_3268" data-name="Path 3268" d="M1507.7,209.286V184.918a9.578,9.578,0,0,0-9.578-9.578h-286.1a9.578,9.578,0,0,0-9.578,9.578v24.368Z" transform="translate(-1202.44 -175.34)" fill="#afe6ff"/>
      <path id="Path_3269" data-name="Path 3269" d="M1507.7,204.15V184.918a9.578,9.578,0,0,0-9.578-9.578h-286.1a9.578,9.578,0,0,0-9.578,9.578V204.15Z" transform="translate(-1202.44 -175.34)" fill="#1b1bbd"/>
      <circle id="Ellipse_501" data-name="Ellipse 501" cx="4.451" cy="4.451" r="4.451" transform="translate(18.051 9.929)" fill="#44c8f5"/>
      <circle id="Ellipse_502" data-name="Ellipse 502" cx="4.451" cy="4.451" r="4.451" transform="translate(33.663 9.929)" fill="#44c8f5"/>
      <circle id="Ellipse_503" data-name="Ellipse 503" cx="4.451" cy="4.451" r="4.451" transform="translate(49.275 9.929)" fill="#44c8f5"/>
      <rect id="Rectangle_3791" data-name="Rectangle 3791" width="125.102" height="25.489" rx="5.66" transform="translate(157.721 54.728)" fill="#e1f3ff"/>
      <path id="Path_3270" data-name="Path 3270" d="M1501.543,319.116H1396.385a11.752,11.752,0,0,1-11.735-11.735v-5.546a11.752,11.752,0,0,1,11.735-11.735h105.159a11.752,11.752,0,0,1,11.735,11.735v5.546a11.752,11.752,0,0,1-11.735,11.735Zm-105.159-25.489a8.217,8.217,0,0,0-8.208,8.208v5.546a8.217,8.217,0,0,0,8.208,8.208h105.159a8.217,8.217,0,0,0,8.208-8.208v-5.546a8.217,8.217,0,0,0-8.208-8.208Z" transform="translate(-1228.692 -191.874)" fill="#e1f3ff"/>
      <path id="Path_3271" data-name="Path 3271" d="M1501.543,372.117H1396.385a11.743,11.743,0,0,1-11.735-11.726v-5.555a11.743,11.743,0,0,1,11.735-11.726h105.159a11.743,11.743,0,0,1,11.735,11.726v5.555a11.743,11.743,0,0,1-11.735,11.726Zm-105.159-25.489a8.217,8.217,0,0,0-8.208,8.208v5.555a8.217,8.217,0,0,0,8.208,8.2h105.159a8.217,8.217,0,0,0,8.208-8.2v-5.555a8.217,8.217,0,0,0-8.208-8.208Z" transform="translate(-1228.692 -199.512)" fill="#e1f3ff"/>
    </g>
    <g id="Character_1" data-name="Character 1" transform="translate(1334.14 321.811)">
      <path id="Path_97" data-name="Path 97" d="M1464.44,624.656l2.568,10.023.505,1.019,1.874,2.713a2.97,2.97,0,0,1-.7,4.126,3.13,3.13,0,0,1-1,.462s-3.732,1.352-7.472,2.568c-3.9,1.19-8.662.171-8.662-.856,0-2.208,2.037-.505,5.606-2.884l3.569-2.568c3.056-2.38.334-8.491-1.524-11.889-.685-1.181,0-4.28,1.352-4.579l.856-.171A2.97,2.97,0,0,1,1464.44,624.656Z" transform="translate(-1376.314 -386.504)" fill="#fab9af"/>
      <path id="Path_98" data-name="Path 98" d="M1462.41,521.863c-.676-1.866-1.352-3.732-1.712-4.579a7.537,7.537,0,0,0-1.018-1.19,8.628,8.628,0,0,1-1.524-2.208l-.514-3.235c-.171-1.523-1.19-2.713-2.713-2.371h0c-1.712.334-2.208,1.866-1.866,3.561l.334,2.379a8.217,8.217,0,0,1-.171,4.074,15.367,15.367,0,0,0,1.874,8.32c.676,1.524,2.885,2.208,5.769,2.893,1.361.334,3.74.505,2.568-1.027-.856-1.181-5.264-2.568-4.588-6.959,0-.171.171-.856.342-.856.856-.171,1.19,1.524,1.712,2.38.685,1.19,1.712,1.524,2.208,1.352C1463.625,523.9,1462.949,523.224,1462.41,521.863Z" transform="translate(-1376.517 -370.023)" fill="#fab9af"/>
      <path id="Path_99" data-name="Path 99" d="M1461.858,403c-4.588,14.26-16.134,41.084-33.278,50.6-11.555,6.454-39.038,12.769-39.038,12.769s-1.565.958-2.232-.061c-.471-.8-.64-.618-.85-1.521,0,0,34.819-17.837,39.569-23.11,4.588-5.093,20.208-38.208,24.967-43.3C1456.252,392.451,1464.409,395.019,1461.858,403Z" transform="translate(-1285.902 -540.76) rotate(8)" fill="#fff"/>
      <path id="Path_100" data-name="Path 100" d="M1456.89,471.749l10.87-77.435,29.718-4.074,15.621,80.833Z" transform="translate(-1377.084 -353.025)" fill="#fab9af"/>
      <path id="Path_101" data-name="Path 101" d="M1528.78,622.193l3.055,10.023a8.495,8.495,0,0,0,.514,1.181l2.208,3.235a3.6,3.6,0,0,1-.976,5,4.088,4.088,0,0,1-.856.437s-4.28,1.524-8.662,2.885c-4.588,1.524-10.194.171-10.194-1.019,0-2.722,2.568-.514,6.625-3.424a34.968,34.968,0,0,0,4.074-2.884c3.569-2.893.514-9.852-1.712-13.926a2.4,2.4,0,0,1,.907-3.287,2.627,2.627,0,0,1,.788-.282l1.018-.171a3.116,3.116,0,0,1,3.21,2.234Z" transform="translate(-1385.293 -386.121)" fill="#fab9af"/>
      <path id="Path_102" data-name="Path 102" d="M1487.519,485.812l-32.944-2.722s-11.718,41.778-14.773,60.454c-2.208,13.421,18.171,65.384,18.171,65.384,2.037.856,3.9-.171,6.111-.685,0,0-6.111-45.843-4.074-57.056,2.208-11.709,19.686-35.315,20.885-41.435A132.721,132.721,0,0,1,1487.519,485.812Z" transform="translate(-1374.597 -366.402)" fill="#0000a6"/>
      <path id="Path_103" data-name="Path 103" d="M1486.789,485.506c-3.424,18.171-11.033,45.509,3.569,71.153s30.06,52.305,30.06,52.305a9.184,9.184,0,0,0,5.435-1.866s-2.568-11.555-6.282-25.138c-4.28-15.407-9.68-33.792-8.148-43.3,2.884-17.829,6.111-41.606,5.093-53.153C1515.659,473.789,1488.492,475.826,1486.789,485.506Z" transform="translate(-1380.663 -365.592)" fill="#0000a6"/>
      <path id="Path_104" data-name="Path 104" d="M1457.021,472.775a2.645,2.645,0,0,1-1.524-3.056l12.223-75.407,29.718-4.083,15.963,79.644a2.714,2.714,0,0,1-2.106,3.21h-.1a193.7,193.7,0,0,1-33.792,3.235C1466.188,476.336,1459.905,474.127,1457.021,472.775Z" transform="translate(-1376.872 -353.023)" fill="#00aeef"/>
      <path id="Path_105" data-name="Path 105" d="M1496.437,410.2c1.549,4.276-22.383,2.2-22.383,2.2s3.442,32.991,1.615,42.617c-4.579,23.966,16.18,35.024,23.994,40.63s18.429-4.005,18.951-7.07,1.275-40.99-2.457-57.458-14.268-40.228-14.268-40.228l-5.435.505C1496.265,391.181,1494.742,405.62,1496.437,410.2Z" transform="translate(-1382.667 -353.118)" fill="#0000a6"/>
      <path id="Path_106" data-name="Path 106" d="M1471.653,394.21s-2.38,10.7-.514,26.833c1.875,15.963,5.949,64.7-8.653,72.171-4.588,2.371-15.115-9.68-15.115-11.889,0-3.911,3.561-16.648,6.787-28.365,2.722-9.338,5.435-40.579,6.282-52.639a5.786,5.786,0,0,1,5.093-5.264Z" transform="translate(-1375.712 -353.596)" fill="#0000a6"/>
      <g id="Group_121" data-name="Group 121" transform="translate(83.744)">
        <path id="Path_107" data-name="Path 107" d="M1498.657,355.907a11.616,11.616,0,0,0,2.208,7.815c2.713,3.227-1.19,6.274-2.208,8.491-.856,2.208.163,5.6-2.38,7.13s-9.852,1.866-11.033-.685C1484.047,375.773,1490.329,354.375,1498.657,355.907Z" transform="translate(-1464.891 -348.066)" fill="#0f1446"/>
        <path id="Path_108" data-name="Path 108" d="M1466.609,360.54c-.342,14.6,13.241,17.5,21.227,17.5s8.32-17.5,8.32-23.966c0-6.282-6.282-7.31-14.1-7.31-6.274,0-12.223,4.93-14.6,9.509A7.514,7.514,0,0,0,1466.609,360.54Z" transform="translate(-1462.226 -346.76)" fill="#0f1446"/>
        <path id="Path_109" data-name="Path 109" d="M1481.7,353.34c6.625,0,9.175,4.75,9.175,13.412a19.309,19.309,0,0,1-2.568,8.662,6.7,6.7,0,0,0-.676,5.093l1.524,4.93c1.018,4.579-1.19,7.13-4.417,7.986a5.7,5.7,0,0,1-4.922-.856c-1.712-1.019-1.866-3.424-1.523-5.264l.334-1.352a3.543,3.543,0,0,0-2.422-4.382h-.12c-5.093-1.19-5.777-6.454-7.138-14.773C1467.785,358.262,1475.086,353.34,1481.7,353.34Z" transform="translate(-1462.547 -347.708)" fill="#fab9af"/>
        <path id="Path_110" data-name="Path 110" d="M1465.2,348.609l3.732,1.181a6.042,6.042,0,0,0,4.28,0l7.643-2.2c4.588,0,12.231,2.568,11.2,9.167l-.856,4.75a4.143,4.143,0,0,1-3.732,3.424h0a1.412,1.412,0,0,1-1.361,1.019,1.524,1.524,0,0,1-1.523-1.524h0a4.691,4.691,0,0,0-3.569-4.417,18.958,18.958,0,0,0-8.148,0c-5.264,1.361-10.87-1.866-11.375-7.3V351.69C1461.627,349.79,1463.33,348.095,1465.2,348.609Z" transform="translate(-1461.49 -346.88)" fill="#0f1446"/>
        <path id="Path_111" data-name="Path 111" d="M1490.42,368.606c0,2.037.676,3.732,2.722,3.732,1.866,0,3.227-2.713,3.227-4.75s-1.19-2.568-3.227-2.568C1491.267,365,1490.42,366.569,1490.42,368.606Z" transform="translate(-1465.658 -349.391)" fill="#fab9af"/>
        <path id="Path_112" data-name="Path 112" d="M1471.564,375.179a1.54,1.54,0,0,0,1.164,1.832,1.713,1.713,0,0,0,.368.043h0a1.506,1.506,0,0,0,1.523-1.361v-6.454a1.25,1.25,0,0,0-.342-.676.855.855,0,0,0-.676-.342c-.343,0-.685.171-.685.5Z" transform="translate(-1462.936 -349.852)" fill="#fa968c"/>
      </g>
      <path id="Path_66722" data-name="Path 66722" d="M6.7,15.778c-1.19-1.575-3.09-3.107-3.492-3.783C3.1,11.815,1.8,9.2.881,7.347A8.3,8.3,0,0,1,.025,2.982C.022,2.025-2.28,1.8-1.8.975c0,0,2.7-.638,3.888.612L4.724,4.2A9.9,9.9,0,0,0,8.259,6.209c2.568,1.087,3.7,4.528,5.135,6.736a7.148,7.148,0,0,1,.539,6.2,7.7,7.7,0,0,1-1.832-2.7,9.745,9.745,0,0,0-4.108-3.9c-.2-.094-.719-.282-.856-.086-.522.6.736,1.832,1.147,2.679.582,1.181.419,2.14,0,2.456S7.557,16.933,6.7,15.778Z" transform="matrix(-0.559, 0.829, -0.829, -0.559, 29.01, 113.522)" fill="#fab9af"/>
      <g id="Group_26004" data-name="Group 26004" transform="translate(-54.266 35.644)">
        <g id="Group_25997" data-name="Group 25997">
          <path id="Path_71979" data-name="Path 71979" d="M1344.614,329.37c-1.635,1.121-3.92,1.969-4.519,2.482-.154.137-2.225,2.217-3.672,3.672a8.4,8.4,0,0,0-2.208,3.877,5.418,5.418,0,0,0-.154,2.816s2.106,1.558,3.629.745l1.378-3.227a9.8,9.8,0,0,1,3.989-.8c2.8-.214,4.939-3.133,6.976-4.776a7.051,7.051,0,0,0,2.465-5.709,7.755,7.755,0,0,0-2.568,1.977,9.759,9.759,0,0,1-5.135,2.405c-.214,0-.77.043-.856-.205-.317-.728,1.267-1.506,1.934-2.174.924-.933,1.07-1.9.762-2.337S1345.769,328.566,1344.614,329.37Z" transform="matrix(0.695, 0.719, -0.719, 0.695, -641.68, -1178.95)" fill="#fab9af"/>
          <path id="Path_71980" data-name="Path 71980" d="M1265.514,380s6.847-6.959,38.8-11.495L1324.444,338a4.425,4.425,0,0,1,4.28,3.15s-11.178,27.886-20.182,38.106-33.9,15.141-40.759,13.455S1260.815,383.2,1265.514,380Z" transform="matrix(0.695, 0.719, -0.719, 0.695, -633.011, -1171.185)" fill="#00aeef"/>
          <path id="Path_71957" data-name="Path 71957" d="M358.861,95.253l-.306-7.955c-.192-15.177-9.284-17.924-12.253-17.924H213.038c-2.968,0-12.06,2.748-12.253,17.924l-.306,7.955Z" transform="translate(-198.947 -69.374)" fill="#eceff5"/>
          <path id="Path_71958" data-name="Path 71958" d="M355.8,72.086H205.1a5.373,5.373,0,0,0-5.374,5.374l1.838,47.872c.192,15.179,9.284,17.924,12.253,17.924H347.078c2.968,0,12.06-2.746,12.253-17.924l1.838-47.872A5.373,5.373,0,0,0,355.8,72.086Z" transform="translate(-199.723 -66.591)" fill="#fff"/>
          <path id="Path_71959" data-name="Path 71959" d="M200.621,98.134l.018.466c.192,15.179,9.284,17.924,12.253,17.924H346.157c2.968,0,12.06-2.746,12.253-17.924l.02-.466Z" transform="translate(-198.801 -39.859)" fill="#e5e8f1"/>
          <path id="Path_71960" data-name="Path 71960" d="M200.621,98.134l.018.466c.192,15.179,9.284,17.924,12.253,17.924H346.157c2.968,0,12.06-2.746,12.253-17.924l.02-.466Z" transform="translate(-198.801 -39.859)" fill="#e5e8f1" opacity="0.55"/>
          <path id="Path_71961" data-name="Path 71961" d="M202.87,99.591c.74,13,8.786,15.438,11.485,15.438H340.08c2.7,0,10.745-2.442,11.485-15.438Z" transform="translate(-196.493 -38.364)" fill="#f0f2f7"/>
          <path id="Path_71962" data-name="Path 71962" d="M277.422,107.077a23.6,23.6,0,0,0,2.632-5.937H270.9c-.136.7-.286,1.4-.482,2.077-.353,1.22-.8,2.547-1.329,3.86Z" transform="translate(-128.539 -36.774)" fill="#a8a9ba"/>
          <path id="Path_71963" data-name="Path 71963" d="M276.274,106.164a18.7,18.7,0,0,0,2.1-4.725h-7.288c-.109.557-.231,1.112-.385,1.651-.282.973-.64,2.028-1.058,3.074Z" transform="translate(-127.972 -36.467)" fill="#fff"/>
          <rect id="Rectangle_6787" data-name="Rectangle 6787" width="24.521" height="5.692" rx="0.756" transform="translate(7.141 11.724)" fill="#d6dbe9"/>
          <path id="Rectangle_6788" data-name="Rectangle 6788" d="M.756,0H23.765a.756.756,0,0,1,.756.756V4.935a.756.756,0,0,1-.756.756H.757A.757.757,0,0,1,0,4.935V.756A.756.756,0,0,1,.756,0Z" transform="translate(37.802 11.724)" fill="#d6dbe9"/>
          <path id="Rectangle_6789" data-name="Rectangle 6789" d="M.756,0H23.764a.757.757,0,0,1,.757.757V4.935a.756.756,0,0,1-.756.756H.756A.756.756,0,0,1,0,4.936V.756A.756.756,0,0,1,.756,0Z" transform="translate(68.463 11.724)" fill="#d6dbe9"/>
          <rect id="Rectangle_6790" data-name="Rectangle 6790" width="24.519" height="5.692" rx="0.756" transform="translate(99.126 11.724)" fill="#d6dbe9"/>
          <rect id="Rectangle_6791" data-name="Rectangle 6791" width="24.519" height="5.692" rx="0.756" transform="translate(129.787 11.724)" fill="#d6dbe9"/>
          <rect id="Rectangle_6792" data-name="Rectangle 6792" width="143.058" height="5.493" transform="translate(10.031 48.722)" fill="#d6dbe9"/>
          <path id="Path_71964" data-name="Path 71964" d="M327.53,106.823H208.78l-2.549-5.492H330.078Z" transform="translate(-193.044 -36.578)" fill="#a8a9ba"/>
          <path id="Path_71965" data-name="Path 71965" d="M302.99,108.662H216.356L214.5,105.8h90.354Z" transform="translate(-184.562 -31.996)" fill="#a8a9ba"/>
        </g>
      </g>
      <path id="Path_121" data-name="Path 121" d="M1433.983,407.564a2.662,2.662,0,0,0,.334-3.74l-1.018-1.352a8.969,8.969,0,0,1-2.037-5.435c0-1.361-.856-5.264-2.208-4.93-1.19.171,0,4.93-1.19,4.759-.5,0-2.568-3.424-4.074-5.435-.856-1.019-2.38-1.712-2.568-.676-.171.676-.856.676-1.532,1.19s-.334,3.9-.334,4.922c0,1.19-.342,1.523,1.352,3.424,1.361,1.524,7.138,5.264,7.138,5.264l2.568,1.712a2.482,2.482,0,0,0,3.492.4l.077-.06Z" transform="matrix(0.921, -0.391, 0.391, 0.921, -1407.283, 260.549)" fill="#fab9af"/>
      <path id="Path_122" data-name="Path 122" d="M1434.745,402.292s23.966,23.11,29.555,24.959,21.732-31.412,24.616-34.81c4.759-5.769,15.116.171,13.25,10.7-2.208,13.25-33.963,39.056-37.866,39.372s-33.8-35.153-33.8-35.153C1431.013,405.691,1432.374,403.987,1434.745,402.292Z" transform="matrix(0.921, -0.391, 0.391, 0.921, -1408.77, 261.188)" fill="#00aeef"/>
    </g>
    <g id="Group_41459" data-name="Group 41459" transform="translate(1288.381 503.75)">
      <g id="Group_25698" data-name="Group 25698" transform="translate(22.96 1.23)">
        <rect id="Rectangle_6263" data-name="Rectangle 6263" width="18.722" height="2.158" transform="matrix(-0.031, -1, 1, -0.031, 4.57, 45.802)" fill="#d7dbe2"/>
        <path id="Path_70458" data-name="Path 70458" d="M325.368,425.028l.513,1.626.616-.019.616-.019.412-1.654-.106-3.44-1.079.033-1.078.033Z" transform="translate(-320.693 -375.787)" fill="#7b7b8b"/>
        <rect id="Rectangle_6264" data-name="Rectangle 6264" width="0.996" height="6.859" transform="matrix(-0.031, -1, 1, -0.031, 1.646, 27.16)" fill="#394855"/>
        <path id="Path_70459" data-name="Path 70459" d="M323.481,411.306l3.428-.1,3.428-.106a12.26,12.26,0,0,1-1.051-3.786l-2.494.076-2.492.076A12.3,12.3,0,0,1,323.481,411.306Z" transform="translate(-321.865 -385.142)" fill="#90a8bb"/>
        <path id="Path_70460" data-name="Path 70460" d="M322.806,404.553c.65,4.723,2.134,11.709,2.134,11.709l2.492-.076,2.494-.076s1.051-7.064,1.411-11.818c.332-4.4.086-10.49-4.588-10.347S322.2,400.179,322.806,404.553Z" transform="translate(-322.507 -393.942)" fill="#90a8bb"/>
        <path id="Path_70461" data-name="Path 70461" d="M325.637,424.6l.44,1.562.347-.011.343-1.586-.637-2.32Z" transform="translate(-320.446 -375.31)" fill="#24313b"/>
        <path id="Path_70462" data-name="Path 70462" d="M330.977,396.157l-8.223.254a21.133,21.133,0,0,0,.051,6.684c.65,4.723,2.134,11.709,2.134,11.709l2.492-.076,2.494-.076s1.051-7.064,1.411-11.818A21.085,21.085,0,0,0,330.977,396.157Z" transform="translate(-322.506 -392.483)" fill="#d7dbe2"/>
      </g>
      <path id="Path_70463" data-name="Path 70463" d="M347.654,403.737c-2.9,1.22-5.257.927-8.142-.431l.308-7.941c-1.977.594-4.432,2.98-4.928,8.336.511,4.583,3.693,7.051,1.315,13.974l-11.361,33.1a2.7,2.7,0,0,0,1.68,3.434l.378.129a2.7,2.7,0,0,0,3.434-1.678l11.361-33.1c2.376-6.925,6.5-9.031,9.248-12.374,1.872-3.632-.133-10.208-2.822-11.245Z" transform="translate(-298.103 -391.774)" fill="#e7e7ef"/>
      <g id="Group_25699" data-name="Group 25699" transform="translate(40.171)">
        <path id="Path_70464" data-name="Path 70464" d="M345.2,429.287a1.881,1.881,0,0,0,2.6-.546l-.058.091.929.244.24-.366.24-.366-.6-.754.43-.658.93.244.239-.366.24-.368-.6-.754.429-.657.93.244.24-.368.239-.366-.6-.754.431-.657.929.242.241-.366.24-.366-.6-.754.429-.658.93.244.239-.366.24-.367-.6-.754,9.676-14.795a.792.792,0,0,1,1.1-.229l.134.088a.8.8,0,0,0,1.1-.23l2.1-3.2a.794.794,0,0,0-.23-1.1c-1.925-1.26-6.582-4.3-6.582-4.3-2.912-1.905-7.623-2.721-9.615-2.993a1.478,1.478,0,0,0-1.439.657l-.723,1.1,10.785,7.054a.794.794,0,0,1,.231,1.1l-9.676,14.795-.93-.244-.24.367-.24.366.6.756-.431.657-.93-.244-.239.366-.24.368.6.755-.429.657-.93-.244-.24.368-.239.366.6.755-.43.657-.93-.242-.24.366-.24.366.6.754-.431.658-.93-.244-.239.367-.241.366.6.754.06-.091A1.881,1.881,0,0,0,345.2,429.287Z" transform="translate(-325.57 -393.2)" fill="#90a8bb"/>
        <path id="Path_70465" data-name="Path 70465" d="M345.527,418.186a.888.888,0,0,0,1.227-.257l6.137-9.384-1.482-.968-6.137,9.382A.887.887,0,0,0,345.527,418.186Z" transform="translate(-324.827 -383.737)" fill="#e7e7ef"/>
        <path id="Path_70466" data-name="Path 70466" d="M347.067,394.08a.2.2,0,0,0-.275.058l-.567.869,7.608,4.976.678-1.035Z" transform="translate(-324.104 -392.642)" fill="#e7e7ef"/>
        <path id="Path_70467" data-name="Path 70467" d="M345.809,396a.2.2,0,0,0-.275.058l-.567.869,7.608,4.976.678-1.035Z" transform="translate(-324.933 -391.376)" fill="#e7e7ef"/>
        <path id="Path_70468" data-name="Path 70468" d="M334.389,440.746a3.323,3.323,0,0,1-.962-4.6s15.389-23.526,16.509-25.242,4.447-2.925,5.374-4.341c1.186-1.814-1.129-5.132-2.247-6.552a1.485,1.485,0,0,1-.2-1.5l.731-1.691,15.393,10.069a.794.794,0,0,1,.23,1.1L365.944,413l-1.511,2.307-6.61-4.323-18.838,28.8A3.322,3.322,0,0,1,334.389,440.746Zm1.446-2.211a1.721,1.721,0,0,0,2.385-.5l1.249-1.909a1.723,1.723,0,0,0-2.884-1.885l-1.249,1.909A1.722,1.722,0,0,0,335.835,438.535Z" transform="translate(-332.885 -390.819)" fill="#d7dbe2"/>
        <path id="Path_70469" data-name="Path 70469" d="M334.53,433.593a2.253,2.253,0,0,1-.652-3.118l4.063-6.21c2.738-4.187,11.017-16.844,11.017-16.844a2.251,2.251,0,1,1,3.768,2.464l-11.017,16.844-4.063,6.212A2.252,2.252,0,0,1,334.53,433.593Zm.894-1.366a1.722,1.722,0,0,0,2.385-.5l1.249-1.909a1.723,1.723,0,0,0-2.884-1.885l-1.249,1.909A1.722,1.722,0,0,0,335.423,432.227Z" transform="translate(-332.474 -384.51)" fill="#e7e7ef"/>
        <rect id="Rectangle_6265" data-name="Rectangle 6265" width="3.566" height="8.035" transform="matrix(-0.547, 0.837, -0.837, -0.547, 31.805, 24.81)" fill="#394855"/>
        <path id="Path_70470" data-name="Path 70470" d="M355.166,409.152c.172-.265-.781-2.04-2.61-3.235s-3.837-1.36-4.011-1.094l-.629.962,6.621,4.33Z" transform="translate(-322.991 -385.621)" fill="#e7e7ef"/>
        <path id="Path_70471" data-name="Path 70471" d="M353.38,412.426l-.124-.6.6-.126.116.557.1-.158-.088-.426.426-.09.1-.158-.557.116-.126-.6.6-.126.116.557.1-.158-.09-.428.428-.088.1-.158-.557.116-.126-.6.6-.126.116.557.1-.158-.09-.428.274-.056-.156-.1-.144.03-.032-.144-.156-.1.056.274-.6.126-.126-.6.274-.058-.158-.1-.144.03-.03-.144-.158-.1.058.274-.6.126-.124-.6.274-.058-.158-.1-.144.03-.03-.144-.158-.1.058.275-.6.126-.124-.6.274-.056-.158-.1-.144.03-.03-.144-.158-.1.058.274-.6.126-.126-.6.275-.056-.158-.1-.144.03-.03-.144-.158-.1.058.274-.6.126-.126-.6.275-.058-.158-.1-.144.03-.03-.144-.158-.1.056.275-.6.126-.126-.6.275-.058-.158-.1-.144.031-.032-.144-.156-.1.056.274-.6.126-.126-.6.274-.056-.156-.1-.144.03-.032-.144-.111-.073-.03.045.041.2-.2.041-.1.158.328-.068.126.6-.6.126-.07-.328-.1.156.041.2-.2.041-.1.156.33-.068.126.6-.6.126-.068-.328-.1.156.041.2-.2.041-.1.158.33-.07.126.6-.6.124-.068-.328-.1.158.041.2-.2.041-.03.045.111.073.144-.03.032.144.156.1-.056-.274.6-.126.126.6-.274.058.156.1.146-.03.03.144.158.1-.058-.275.6-.124.126.6-.274.058.158.1.144-.03.03.144.158.1-.058-.275.6-.126.124.6-.274.056.158.1.144-.03.03.144.158.1-.058-.274.6-.126.126.6-.275.056.158.1.144-.03.03.144.158.1-.058-.274.6-.126.126.6-.275.058.158.1.144-.03.03.144.158.1-.056-.275.6-.124.126.6-.275.058.158.1.144-.031.03.146.158.1-.056-.275.6-.126.126.6-.274.056.156.1.144-.03.032.144.156.1-.056-.274.426-.09.1-.158Zm.449-.856-.6.124-.126-.6.6-.126Zm-2.048-2.489.126.6-.6.126-.126-.6Zm-1.358.148-.126-.6.6-.126.126.6Zm2.244.43.124.6-.6.126-.126-.6Zm.129-.027.6-.126.126.6-.6.126Zm-.758.023-.126-.6.6-.126.126.6Zm-.885-.579-.124-.6.6-.126.126.6Zm-.884-.579-.124-.6.6-.126.126.6Zm-.884-.577-.126-.6.6-.126.126.6Zm.628,0,.126.6-.6.126-.124-.6Zm-.605.755-.6.126-.124-.6.6-.124Zm.758-.023.126.6-.6.124-.126-.6Zm.884.579.126.6-.6.126-.126-.6Zm.885.579.124.6-.6.126-.126-.6Zm.884.577.126.6-.6.126-.126-.6Zm.255.575-.126-.6.6-.126.126.6Zm1.332-.28-.6.126-.126-.6.6-.126Zm-.279-1.332.126.6-.6.124-.126-.6Zm-.884-.579.126.6-.6.126-.126-.6Zm-.884-.577.126.6-.6.126-.124-.6Zm-.884-.579.126.6-.6.126-.126-.6Zm-.884-.579.126.6-.6.126-.126-.6Zm-.884-.579.124.6-.6.126-.126-.6Zm-1.333.28.6-.126.126.6-.6.126Zm.754.605.126.6-.6.126-.126-.6Zm-1.333.279.6-.126.126.6-.6.126Zm.28,1.332-.126-.6.6-.126.126.6Zm.884.579-.126-.6.6-.126.126.6Zm.884.577-.126-.6.6-.126.124.6Zm.884.579-.126-.6.6-.126.124.6Zm.884.579-.126-.6.6-.124.126.6Zm.884.579-.126-.6.6-.126.126.6Z" transform="translate(-323.704 -385.097)" fill="#c3ced5"/>
      </g>
      <path id="Rectangle_6269" data-name="Rectangle 6269" d="M0,0H49.43a0,0,0,0,1,0,0V41.144A1.625,1.625,0,0,1,47.8,42.769H1.625A1.625,1.625,0,0,1,0,41.144V0A0,0,0,0,1,0,0Z" transform="translate(21.04 34.682)" fill="#0f1446"/>
      <path id="Rectangle_6270" data-name="Rectangle 6270" d="M0,0H22.088a0,0,0,0,1,0,0V4.16a1.625,1.625,0,0,1-1.625,1.625H1.625A1.625,1.625,0,0,1,0,4.16V0A0,0,0,0,1,0,0Z" transform="translate(34.71 41.181)" fill="#fff"/>
    </g>
    <g id="Character_2" data-name="Character 2" transform="translate(1202.271 222.959)">
      <path id="Path_66723" data-name="Path 66723" d="M283.746,262.69a24.368,24.368,0,0,1-4.151,8.185c-2.926,3.542,1.325,6.844,2.318,9.256s-.239,5.99,2.535,7.627,10.669,2.071,11.921-.811S292.654,261.039,283.746,262.69Z" transform="matrix(0.995, -0.105, 0.105, 0.995, -289.739, -123.941)" fill="#0f1446"/>
      <path id="Path_66724" data-name="Path 66724" d="M315,265.667c.427,15.847-14.319,18.889-22.894,18.889s-4.244-17.5-4.244-24.34,5.479-6.555,14.055-6.555c6.757,0,9.73,2.366,12.359,7.385A10.834,10.834,0,0,1,315,265.667Z" transform="matrix(0.995, -0.105, 0.105, 0.995, -290.665, -120.624)" fill="#0f1446"/>
      <path id="Path_3279" data-name="Path 3279" d="M1247.34,352.886c-6.736,1.6-8.1,6.993-6.111,15.886a18.476,18.476,0,0,0,4.725,8.071,6.848,6.848,0,0,1,1.849,4.981l-.282,5.358c.1,4.879,2.91,6.9,6.385,7.044a6.505,6.505,0,0,0,4.759-1.986c1.412-1.481.993-3.843.214-5.735l-.719-1.335a3.646,3.646,0,0,1,1.489-5.024c1.429-.685,3.03-.779,3.963-1.806s1.626-9.7-1.626-17.9C1258.621,352.03,1254.068,351.285,1247.34,352.886Z" transform="translate(-1214.435 -248.694)" fill="#fab9af"/>
      <path id="Path_66725" data-name="Path 66725" d="M308.106,254.347,299.849,252c-4.976,0-13.2,2.81-12.153,9.988l.913,5.07a4.577,4.577,0,0,0,4.114,3.723h0a1.608,1.608,0,0,0,3.165-.427h0a4.874,4.874,0,0,1,3.846-4.744,17.9,17.9,0,0,1,8.691.065C314.139,267.2,309.618,254.8,308.106,254.347Z" transform="matrix(0.995, -0.105, 0.105, 0.995, -291.914, -120.828)" fill="#0f1446"/>
      <path id="Path_3280" data-name="Path 3280" d="M1264.7,372.574a1.583,1.583,0,0,1-1.173,2.174h0a1.592,1.592,0,0,1-1.832-1.181l-1.233-6.625a.933.933,0,0,1,.753-1.1.77.77,0,0,1,.856.454Z" transform="translate(-1217.324 -250.656)" fill="#fa968c"/>
      <path id="Path_3282" data-name="Path 3282" d="M1244.494,371.812c.5,2.054,1.061,4.648-.736,5.076s-4.511-2.876-5-4.93.548-2.842,2.345-3.27S1244.006,369.8,1244.494,371.812Z" transform="translate(-1214.182 -251.059)" fill="#fab9af"/>
      <path id="Path_66730" data-name="Path 66730" d="M211.375,211.626v9.252a20.612,20.612,0,0,1-.812,5.518l-.812,2.922a3.756,3.756,0,0,0,3.571,4.707h19.964a.909.909,0,0,0,.974-.812c.162-2.759-7.629-4.545-13.472-6.817-4.545-1.785-4.693-10.063-4.206-14.77.162-1.785-.826-3.084-2.611-2.922h0A2.855,2.855,0,0,0,211.375,211.626Z" transform="translate(-157.804 123.75)" fill="#fab9af"/>
      <path id="Path_66731" data-name="Path 66731" d="M189.712,209.624l-4.141,10.814a3.263,3.263,0,0,1-.649,1.3l-2.272,3.408a3.9,3.9,0,0,0,2.11,5.843s4.545,1.623,9.252,3.084c4.869,1.623,10.875.325,10.875-.974,0-2.759-2.6-.649-7.142-3.571-1.461-.974-3.084-2.11-4.382-3.084-3.733-2.922-.8-10.522,1.471-14.742a2.45,2.45,0,0,0-1.471-3.761l-1.136-.162C190.927,207.129,190.2,208,189.712,209.624Z" transform="translate(-182.011 123.054)" fill="#fab9af"/>
      <path id="Path_3283" data-name="Path 3283" d="M1273.6,462.854a13.036,13.036,0,0,1,11.486,10.913,203.637,203.637,0,0,1-1.018,66.933l-8.388,65.05a11.016,11.016,0,0,1-5.067-.591s-9.791-94.495-13.669-114.292,2.841-29.3,2.841-29.3Z" transform="translate(-1217.018 -264.451)" fill="#1b1bbd"/>
      <path id="Path_3284" data-name="Path 3284" d="M1270.52,517.76c-1.481-23.966-7.823-31.156-4.725-55.156v-.591l-5.991-.454s-3.518,9.133.36,28.9c1.4,7.147.943,25.322,2.613,44.075C1264.958,559.147,1270.982,525.189,1270.52,517.76Z" transform="translate(-1217.021 -264.45)" fill="#0000a6"/>
      <path id="Path_3285" data-name="Path 3285" d="M1249.081,461.1a14.439,14.439,0,0,0-14.5,10.271c-2.85,9.415-5.581,22.511-3.022,45.707,0,0-.043,13.988-2.012,22.1s-12.539,62.487-12.539,62.487a7.959,7.959,0,0,0,4.793,2.174s24.846-42.923,30.341-59.066,11.967-67.91,10.041-82.512Z" transform="translate(-1211.066 -264.381)" fill="#1b1bbd"/>
      <path id="Path_3286" data-name="Path 3286" d="M1280.1,417.536c-.2-3.253-5.555-11.324-8.337-15.312,0,0-3.321-8.7-8.782-9.612a32.3,32.3,0,0,0-16.588.993l-2.568.77a9.167,9.167,0,0,0-6.377,10.382l9.064,51.167c8.294,5.863,19.84,7.746,34.091,6.325.718-.071-.405-.828,0-1.425s-.306-1.442-.505-2.136l-4.887-25.147a13.4,13.4,0,0,1,2.944-10.271,7.969,7.969,0,0,0,1.943-5.735Z" transform="translate(-1213.99 -254.423)" fill="#00aeef"/>
      <path id="Path_66729" data-name="Path 66729" d="M1280.1,417.536c-.2-3.253-5.555-11.324-8.337-15.312a89.98,89.98,0,0,0-7.165-7.8c-2.734-2.4-3.772-1.809-3.772-1.809s6.111,9.813,8.175,12.087c.718-.071,11.23,14.93,11.1,12.837Z" transform="translate(-1211.99 -254.423)" fill="#0000a6"/>
      <path id="Path_3287" data-name="Path 3287" d="M1256.133,408.156c29.66,5.5,20.815,36.095,22.692,48.881.259,1.764-.056,3.171,0,6.557-5.361,9.782-31.078,16.031-34.8,27.844-1.832,5.812,4.5-23.162-2.375-27.844-1.917-1.31-4.967,10.337-5.17-6.557s-2.2-52.014-2.2-52.014-2.422-10.1,8.936-11.127C1255.277,392.749,1255.927,403.816,1256.133,408.156Z" transform="translate(-1210.825 -254.689)" fill="#1b1bbd"/>
      <g id="Group_25666" data-name="Group 25666" transform="matrix(0.978, -0.208, 0.208, 0.978, 49.408, 190.813)">
        <path id="Path_68236" data-name="Path 68236" d="M-6227.77-14266.981c-.837-.229-12.825-4.318-12.954-1.986s-1.6,14.955,0,15.557,13.026,4.412,12.954,1.769S-6226.933-14266.751-6227.77-14266.981Z" transform="translate(6242.004 14272.017)" fill="#0000a6"/>
        <circle id="Ellipse_1437" data-name="Ellipse 1437" cx="2.014" cy="2.014" r="2.014" transform="translate(12.814 2.014)" fill="#fff"/>
        <circle id="Ellipse_1438" data-name="Ellipse 1438" cx="2.014" cy="2.014" r="2.014" fill="#fff"/>
      </g>
      <rect id="Rectangle_3792" data-name="Rectangle 3792" width="17.307" height="5.641" rx="1.47" transform="matrix(0.959, 0.283, -0.283, 0.959, 24.746, 191.916)" fill="#0000a6"/>
      <path id="Path_3288" data-name="Path 3288" d="M1242.438,408.366c1.447.616,16.186,8.422,17.444,23.35,1.216-8.919.052-17.264-.257-23.564-.214-4.34-.856-15.407-12.916-14.285C1235.351,394.919,1240.315,407.459,1242.438,408.366Z" transform="translate(-1214.308 -254.685)" fill="#0000a6"/>
      <path id="Path_66726" data-name="Path 66726" d="M547.518,169.77a16.426,16.426,0,0,0-32.818,0Z" transform="translate(-495.677 -58.203)" fill="#1e2d64"/>
      <path id="Path_66727" data-name="Path 66727" d="M532.365,170.4H508.122a3.628,3.628,0,0,0-3.622,3.622h31.487A3.627,3.627,0,0,0,532.365,170.4Z" transform="translate(-476.608 -62.455)" fill="#0f1446"/>
      <path id="Path_66728" data-name="Path 66728" d="M537.974,153.9c0,.591-1.183.517-2.587.517s-2.587.074-2.587-.517,1.183-1.7,2.587-1.7C536.791,152.125,537.974,153.234,537.974,153.9Z" transform="translate(-499.512 -57.706)" fill="#0f1446"/>
      <path id="Path_3292" data-name="Path 3292" d="M6.7,15.778c-1.19-1.575-3.09-3.107-3.492-3.783A17.945,17.945,0,0,1,.452,8.322C-.225,6.972-2.833,7.707-2.715,6.2c0-.957-1.444-1.327-.959-2.152,0,0,.6-2.982,1.794-1.732l6.6,1.88A9.9,9.9,0,0,0,8.259,6.209c2.568,1.087,3.7,4.528,5.135,6.736a7.148,7.148,0,0,1,.539,6.2,7.7,7.7,0,0,1-1.832-2.7,9.744,9.744,0,0,0-4.108-3.9c-.2-.094-.719-.282-.856-.086-.522.6.736,1.832,1.147,2.679.582,1.181.419,2.14,0,2.457S7.557,16.933,6.7,15.778Z" transform="matrix(0.695, -0.719, 0.719, 0.695, 104.047, 134.502)" fill="#fab9af"/>
      <path id="Path_3293" data-name="Path 3293" d="M1240.542,386.788s9.244-6.282,38.576-19.815L1289.654,332c2.089-1.019,3.895-1.036,5.384,0,0,0-1.318,28.622-7,41s-35.838,26.9-42.882,27.253S1234.062,390.468,1240.542,386.788Z" transform="matrix(0.695, 0.719, -0.719, 0.695, -551.46, -1021.738)" fill="#00aeef"/>
    </g>
  </g>
</svg>
