<svg xmlns="http://www.w3.org/2000/svg" xmlns:xlink="http://www.w3.org/1999/xlink" width="520" height="479" viewBox="0 0 520 479">
  <defs>
    <filter id="Rectangle_6662" x="288" y="0" width="212" height="136" filterUnits="userSpaceOnUse">
      <feOffset dy="10" input="SourceAlpha"/>
      <feGaussianBlur stdDeviation="10" result="blur"/>
      <feFlood flood-color="#4e5381" flood-opacity="0.102"/>
      <feComposite operator="in" in2="blur"/>
      <feComposite in="SourceGraphic"/>
    </filter>
    <filter id="Rectangle_6662-2" x="20" y="343" width="212" height="136" filterUnits="userSpaceOnUse">
      <feOffset dy="10" input="SourceAlpha"/>
      <feGaussianBlur stdDeviation="10" result="blur-2"/>
      <feFlood flood-color="#4e5381" flood-opacity="0.102"/>
      <feComposite operator="in" in2="blur-2"/>
      <feComposite in="SourceGraphic"/>
    </filter>
  </defs>
  <g id="Group_43853" data-name="Group 43853" transform="translate(19984 12218)">
    <g id="Group_43843" data-name="Group 43843" transform="translate(-20791 -13651)">
      <g id="Group_34259" data-name="Group 34259" transform="translate(807 1481)">
        <rect id="Rectangle_7098" data-name="Rectangle 7098" width="520" height="353" rx="40" fill="#f2f6f9"/>
        <g id="Group_34256" data-name="Group 34256" transform="translate(24 38)">
          <g id="Call_to_Action" data-name="Call to Action">
            <rect id="Rectangle_130" data-name="Rectangle 130" width="473" height="278" rx="4" fill="#fff"/>
            <g id="Group_43847" data-name="Group 43847" transform="translate(412.833 21.972)">
              <path id="Rectangle" d="M4,0H32.694a4,4,0,0,1,4,4V32.694a4,4,0,0,1-4,4H4a4,4,0,0,1-4-4V4A4,4,0,0,1,4,0Z" fill="#2b3eb1"/>
              <g id="back_copy" data-name="back copy" transform="translate(10.994 11.481)">
                <path id="Path" d="M.891,5.339l-.025.006h10.6L8.137,2a.876.876,0,0,1,0-1.23L8.656.253a.867.867,0,0,1,1.225,0l5.714,5.714a.873.873,0,0,1,0,1.229L9.88,12.91a.868.868,0,0,1-1.225,0l-.519-.519a.858.858,0,0,1-.252-.613.831.831,0,0,1,.252-.6l3.371-3.36H.879A.9.9,0,0,1,0,6.929V6.2A.88.88,0,0,1,.891,5.339Z" fill="#fff"/>
              </g>
            </g>
            <line id="Line_389" data-name="Line 389" x2="427.322" transform="translate(22.178 190.5)" fill="none" stroke="#e4ebf2" stroke-width="1"/>
            <g id="Group_43850" data-name="Group 43850" transform="translate(-663.067 -1179)">
              <g id="Group_43588" data-name="Group 43588" transform="translate(685.244 1277.511)">
                <rect id="Rectangle_8081" data-name="Rectangle 8081" width="16.644" height="26.275" transform="translate(0 8.988)" fill="#2b65f0"/>
                <rect id="Rectangle_8082" data-name="Rectangle 8082" width="16.644" height="35.263" transform="translate(16.644)" fill="#26c9a8"/>
              </g>
              <g id="Group_43589" data-name="Group 43589" transform="translate(750.921 1277.511)">
                <rect id="Rectangle_8083" data-name="Rectangle 8083" width="16.644" height="35.263" fill="#2b65f0"/>
                <rect id="Rectangle_8084" data-name="Rectangle 8084" width="16.644" height="16.644" transform="translate(16.644 18.619)" fill="#26c9a8"/>
              </g>
              <g id="Group_43590" data-name="Group 43590" transform="translate(816.598 1266.675)">
                <rect id="Rectangle_8085" data-name="Rectangle 8085" width="16.644" height="46.099" fill="#2b65f0"/>
                <rect id="Rectangle_8086" data-name="Rectangle 8086" width="16.644" height="30.643" transform="translate(16.644 15.456)" fill="#26c9a8"/>
              </g>
              <g id="Group_43591" data-name="Group 43591" transform="translate(882.275 1280.726)">
                <rect id="Rectangle_8087" data-name="Rectangle 8087" width="16.644" height="16.644" transform="translate(0 15.404)" fill="#2b65f0"/>
                <rect id="Rectangle_8088" data-name="Rectangle 8088" width="16.644" height="32.048" transform="translate(16.644)" fill="#26c9a8"/>
              </g>
              <g id="Group_43592" data-name="Group 43592" transform="translate(1013.629 1253.057)">
                <rect id="Rectangle_8089" data-name="Rectangle 8089" width="16.644" height="46.099" transform="translate(0 13.618)" fill="#2b65f0"/>
                <rect id="Rectangle_8090" data-name="Rectangle 8090" width="16.644" height="59.717" transform="translate(16.644)" fill="#26c9a8"/>
              </g>
              <g id="Group_43593" data-name="Group 43593" transform="translate(1079.306 1272.067)">
                <rect id="Rectangle_8091" data-name="Rectangle 8091" width="16.644" height="40.707" fill="#2b65f0"/>
                <rect id="Rectangle_8092" data-name="Rectangle 8092" width="16.644" height="32.048" transform="translate(16.644 8.659)" fill="#26c9a8"/>
              </g>
              <g id="Group_43594" data-name="Group 43594" transform="translate(947.952 1263.022)">
                <rect id="Rectangle_8093" data-name="Rectangle 8093" width="16.644" height="37.432" transform="translate(0 12.319)" fill="#2b65f0"/>
                <rect id="Rectangle_8094" data-name="Rectangle 8094" width="16.644" height="49.752" transform="translate(16.644)" fill="#26c9a8"/>
              </g>
              <g id="Group_43596" data-name="Group 43596" transform="translate(686.709 1327.751)">
                <g id="Group_43595" data-name="Group 43595">
                  <path id="Path_106689" data-name="Path 106689" d="M696.15,1357.355l-.014-5.97-2.929,4.919H692.17l-2.914-4.792v5.843h-2.161V1347.4H689l3.726,6.185,3.667-6.185h1.891l.028,9.953Z" transform="translate(-687.094 -1347.403)" fill="#4e5381"/>
                  <path id="Path_106690" data-name="Path 106690" d="M705.369,1357.541a3.747,3.747,0,0,1-1.5-1.4,4.09,4.09,0,0,1,0-4.065,3.749,3.749,0,0,1,1.5-1.4,4.9,4.9,0,0,1,4.329,0,3.772,3.772,0,0,1,1.493,1.4,4.1,4.1,0,0,1,0,4.065,3.769,3.769,0,0,1-1.493,1.4,4.9,4.9,0,0,1-4.329,0Zm3.568-1.893a2.442,2.442,0,0,0,0-3.083,1.842,1.842,0,0,0-1.4-.576,1.864,1.864,0,0,0-1.407.576,2.418,2.418,0,0,0,0,3.083,1.863,1.863,0,0,0,1.407.576A1.841,1.841,0,0,0,708.937,1355.648Z" transform="translate(-690.475 -1347.979)" fill="#4e5381"/>
                  <path id="Path_106691" data-name="Path 106691" d="M722.754,1351.021a3.387,3.387,0,0,1,.874,2.531v4.38H721.41v-4.039a1.993,1.993,0,0,0-.4-1.355,1.459,1.459,0,0,0-1.152-.449,1.765,1.765,0,0,0-1.336.519,2.147,2.147,0,0,0-.5,1.541v3.784h-2.218v-7.649h2.119v.9a2.934,2.934,0,0,1,1.093-.746,3.813,3.813,0,0,1,1.437-.264A3.153,3.153,0,0,1,722.754,1351.021Z" transform="translate(-693.075 -1347.979)" fill="#4e5381"/>
                </g>
              </g>
              <g id="Group_43598" data-name="Group 43598" transform="translate(753.944 1327.751)">
                <g id="Group_43597" data-name="Group 43597">
                  <path id="Path_106692" data-name="Path 106692" d="M775.2,1349.28h-3.185V1347.4h8.672v1.877h-3.185v8.075h-2.3Z" transform="translate(-772.018 -1347.403)" fill="#4e5381"/>
                  <path id="Path_106693" data-name="Path 106693" d="M791.816,1350.313v7.649h-2.1v-.909a2.946,2.946,0,0,1-1.051.758,3.31,3.31,0,0,1-1.323.264,3.254,3.254,0,0,1-2.388-.868,3.45,3.45,0,0,1-.882-2.572v-4.322h2.218v3.994q0,1.848,1.549,1.849a1.665,1.665,0,0,0,1.279-.519,2.195,2.195,0,0,0,.483-1.545v-3.78Z" transform="translate(-774.528 -1348.009)" fill="#4e5381"/>
                  <path id="Path_106694" data-name="Path 106694" d="M803.759,1354.732h-5.787a1.8,1.8,0,0,0,.74,1.123,2.438,2.438,0,0,0,1.45.413,2.925,2.925,0,0,0,1.059-.178,2.563,2.563,0,0,0,.861-.56l1.18,1.279a3.968,3.968,0,0,1-3.156,1.237,5,5,0,0,1-2.289-.5,3.692,3.692,0,0,1-1.535-1.4,3.85,3.85,0,0,1-.542-2.032,3.922,3.922,0,0,1,.534-2.028,3.762,3.762,0,0,1,1.464-1.407,4.313,4.313,0,0,1,2.085-.5,4.254,4.254,0,0,1,2.032.483,3.538,3.538,0,0,1,1.43,1.386,4.134,4.134,0,0,1,.519,2.1C803.8,1354.164,803.789,1354.363,803.759,1354.732Zm-5.189-2.459a1.81,1.81,0,0,0-.626,1.165h3.768a1.839,1.839,0,0,0-.625-1.159,1.881,1.881,0,0,0-1.252-.432A1.911,1.911,0,0,0,798.57,1352.274Z" transform="translate(-776.959 -1347.979)" fill="#4e5381"/>
                </g>
              </g>
              <g id="Group_43600" data-name="Group 43600" transform="translate(816.272 1327.155)">
                <g id="Group_43599" data-name="Group 43599">
                  <path id="Path_106695" data-name="Path 106695" d="M866.654,1347.4l-3.256,9.953h-2.474l-2.188-6.741-2.261,6.741h-2.46l-3.271-9.953h2.389l2.247,7,2.346-7h2.133l2.274,7.053,2.318-7.053Z" transform="translate(-850.744 -1346.807)" fill="#4e5381"/>
                  <path id="Path_106696" data-name="Path 106696" d="M878.839,1354.732h-5.787a1.8,1.8,0,0,0,.739,1.123,2.439,2.439,0,0,0,1.451.413,2.925,2.925,0,0,0,1.058-.178,2.551,2.551,0,0,0,.86-.56l1.18,1.279a3.969,3.969,0,0,1-3.156,1.237,5,5,0,0,1-2.289-.5,3.7,3.7,0,0,1-1.536-1.4,3.858,3.858,0,0,1-.541-2.032,3.921,3.921,0,0,1,.534-2.028,3.761,3.761,0,0,1,1.464-1.407,4.312,4.312,0,0,1,2.085-.5,4.253,4.253,0,0,1,2.031.483,3.53,3.53,0,0,1,1.429,1.386,4.127,4.127,0,0,1,.519,2.1Q878.882,1354.178,878.839,1354.732Zm-5.189-2.459a1.809,1.809,0,0,0-.626,1.165h3.768a1.839,1.839,0,0,0-.625-1.159,1.882,1.882,0,0,0-1.252-.432A1.91,1.91,0,0,0,873.65,1352.274Z" transform="translate(-854.926 -1347.383)" fill="#4e5381"/>
                  <path id="Path_106697" data-name="Path 106697" d="M890.519,1346.65V1357.2H888.4v-.881a2.919,2.919,0,0,1-2.389.994,3.965,3.965,0,0,1-1.955-.483,3.466,3.466,0,0,1-1.371-1.379,4.569,4.569,0,0,1,0-4.152,3.466,3.466,0,0,1,1.371-1.379,3.965,3.965,0,0,1,1.955-.483,2.9,2.9,0,0,1,2.289.925v-3.711Zm-2.729,8.265a2.423,2.423,0,0,0,0-3.083,1.992,1.992,0,0,0-2.8,0,2.418,2.418,0,0,0,0,3.083,1.991,1.991,0,0,0,2.8,0Z" transform="translate(-857.293 -1346.65)" fill="#4e5381"/>
                </g>
              </g>
              <g id="Group_43602" data-name="Group 43602" transform="translate(884.785 1327.155)">
                <g id="Group_43601" data-name="Group 43601">
                  <path id="Path_106698" data-name="Path 106698" d="M940.468,1349.28h-3.185V1347.4h8.672v1.877H942.77v8.075h-2.3Z" transform="translate(-937.283 -1346.807)" fill="#4e5381"/>
                  <path id="Path_106699" data-name="Path 106699" d="M956.548,1350.288a3.387,3.387,0,0,1,.874,2.531v4.38H955.2v-4.039a1.994,1.994,0,0,0-.4-1.355,1.461,1.461,0,0,0-1.152-.449,1.765,1.765,0,0,0-1.336.519,2.147,2.147,0,0,0-.5,1.542v3.783H949.6V1346.65h2.218v3.695a2.906,2.906,0,0,1,1.065-.674,3.842,3.842,0,0,1,1.366-.235A3.153,3.153,0,0,1,956.548,1350.288Z" transform="translate(-939.849 -1346.65)" fill="#4e5381"/>
                  <path id="Path_106700" data-name="Path 106700" d="M969.705,1350.313v7.649h-2.1v-.909a2.947,2.947,0,0,1-1.051.758,3.31,3.31,0,0,1-1.323.264,3.253,3.253,0,0,1-2.388-.868,3.453,3.453,0,0,1-.882-2.572v-4.322h2.218v3.994q0,1.848,1.549,1.849a1.668,1.668,0,0,0,1.28-.519,2.195,2.195,0,0,0,.482-1.545v-3.78Z" transform="translate(-942.422 -1347.413)" fill="#4e5381"/>
                </g>
              </g>
              <g id="Group_43604" data-name="Group 43604" transform="translate(956.128 1326.515)">
                <g id="Group_43603" data-name="Group 43603">
                  <path id="Path_106701" data-name="Path 106701" d="M1029.7,1349.252v2.629h4.607v1.849H1029.7v3.626h-2.3V1347.4h7.521v1.849Z" transform="translate(-1027.396 -1346.166)" fill="#4e5381"/>
                  <path id="Path_106702" data-name="Path 106702" d="M1041.685,1350.453a4,4,0,0,1,1.557-.284v2.047c-.246-.021-.413-.028-.5-.028a2.032,2.032,0,0,0-1.493.531,2.16,2.16,0,0,0-.54,1.6v3.61h-2.218v-7.649h2.119v1.009A2.449,2.449,0,0,1,1041.685,1350.453Z" transform="translate(-1029.708 -1346.743)" fill="#4e5381"/>
                  <path id="Path_106703" data-name="Path 106703" d="M1046.2,1347.958a1.2,1.2,0,0,1,0-1.761,1.406,1.406,0,0,1,1-.356,1.445,1.445,0,0,1,1,.34,1.093,1.093,0,0,1,.384.853,1.212,1.212,0,0,1-.384.919,1.561,1.561,0,0,1-1.991,0Zm-.113,1.424h2.218v7.649h-2.218Z" transform="translate(-1031.234 -1345.841)" fill="#4e5381"/>
                </g>
              </g>
              <g id="Group_43606" data-name="Group 43606" transform="translate(1018.655 1327.581)">
                <g id="Group_43605" data-name="Group 43605">
                  <path id="Path_106704" data-name="Path 106704" d="M1108.143,1357.16a5.318,5.318,0,0,1-1.77-.831l.783-1.735a5.212,5.212,0,0,0,1.521.754,5.673,5.673,0,0,0,1.764.284,2.792,2.792,0,0,0,1.45-.292.879.879,0,0,0,.469-.775.736.736,0,0,0-.278-.588,2.072,2.072,0,0,0-.71-.377q-.433-.144-1.173-.313a16.7,16.7,0,0,1-1.862-.54,3.033,3.033,0,0,1-1.245-.868,2.342,2.342,0,0,1-.519-1.593,2.767,2.767,0,0,1,.469-1.57,3.132,3.132,0,0,1,1.416-1.116,5.737,5.737,0,0,1,2.309-.413,7.586,7.586,0,0,1,1.862.227,5.539,5.539,0,0,1,1.594.653l-.712,1.748a5.576,5.576,0,0,0-2.758-.78,2.583,2.583,0,0,0-1.429.313.956.956,0,0,0-.462.823.81.81,0,0,0,.534.762,8.493,8.493,0,0,0,1.628.491,15.772,15.772,0,0,1,1.863.54,3.1,3.1,0,0,1,1.244.852,2.29,2.29,0,0,1,.519,1.578,2.71,2.71,0,0,1-.477,1.557,3.184,3.184,0,0,1-1.43,1.115,5.789,5.789,0,0,1-2.316.413A8.1,8.1,0,0,1,1108.143,1357.16Z" transform="translate(-1106.373 -1347.188)" fill="#4e5381"/>
                  <path id="Path_106705" data-name="Path 106705" d="M1124.3,1351.013a3.245,3.245,0,0,1,.952,2.554v4.365h-2.074v-.953a2.475,2.475,0,0,1-2.332,1.066,3.581,3.581,0,0,1-1.528-.3,2.273,2.273,0,0,1-.988-.824,2.148,2.148,0,0,1-.342-1.193,2,2,0,0,1,.8-1.678,4.093,4.093,0,0,1,2.481-.612h1.763a1.412,1.412,0,0,0-.442-1.115,1.938,1.938,0,0,0-1.321-.39,3.82,3.82,0,0,0-1.2.191,3.118,3.118,0,0,0-1,.519l-.8-1.549a4.839,4.839,0,0,1,1.5-.685,6.778,6.778,0,0,1,1.8-.24A3.986,3.986,0,0,1,1124.3,1351.013Zm-1.891,5.276a1.449,1.449,0,0,0,.626-.774v-.782h-1.522q-1.363,0-1.364.9a.8.8,0,0,0,.334.677,1.506,1.506,0,0,0,.917.248A1.928,1.928,0,0,0,1122.414,1356.289Z" transform="translate(-1108.793 -1347.809)" fill="#4e5381"/>
                  <path id="Path_106706" data-name="Path 106706" d="M1134.4,1357.147a2.3,2.3,0,0,1-.8.362,4.092,4.092,0,0,1-1,.121,2.974,2.974,0,0,1-2.111-.7,2.667,2.667,0,0,1-.747-2.047v-3.14h-1.18v-1.707h1.18v-1.862h2.218v1.862h1.9v1.707h-1.9v3.111a1.039,1.039,0,0,0,.249.747.921.921,0,0,0,.7.263,1.415,1.415,0,0,0,.894-.283Z" transform="translate(-1110.993 -1347.394)" fill="#4e5381"/>
                </g>
              </g>
              <g id="Group_43608" data-name="Group 43608" transform="translate(1082.016 1327.581)">
                <g id="Group_43607" data-name="Group 43607">
                  <path id="Path_106707" data-name="Path 106707" d="M1188.175,1357.16a5.317,5.317,0,0,1-1.771-.831l.783-1.735a5.212,5.212,0,0,0,1.521.754,5.672,5.672,0,0,0,1.764.284,2.791,2.791,0,0,0,1.449-.292.879.879,0,0,0,.469-.775.736.736,0,0,0-.278-.588,2.076,2.076,0,0,0-.709-.377q-.435-.144-1.174-.313a16.707,16.707,0,0,1-1.862-.54,3.038,3.038,0,0,1-1.244-.868,2.341,2.341,0,0,1-.519-1.593,2.767,2.767,0,0,1,.469-1.57,3.131,3.131,0,0,1,1.416-1.116,5.742,5.742,0,0,1,2.31-.413,7.586,7.586,0,0,1,1.862.227,5.53,5.53,0,0,1,1.594.653l-.712,1.748a5.576,5.576,0,0,0-2.758-.78,2.586,2.586,0,0,0-1.429.313.957.957,0,0,0-.462.823.81.81,0,0,0,.534.762,8.505,8.505,0,0,0,1.628.491,15.816,15.816,0,0,1,1.864.54,3.1,3.1,0,0,1,1.243.852,2.29,2.29,0,0,1,.519,1.578,2.709,2.709,0,0,1-.477,1.557,3.184,3.184,0,0,1-1.43,1.115,5.788,5.788,0,0,1-2.316.413A8.1,8.1,0,0,1,1188.175,1357.16Z" transform="translate(-1186.404 -1347.188)" fill="#4e5381"/>
                  <path id="Path_106708" data-name="Path 106708" d="M1206.346,1350.313v7.649h-2.1v-.909a2.948,2.948,0,0,1-1.052.758,3.31,3.31,0,0,1-1.323.264,3.253,3.253,0,0,1-2.388-.868,3.454,3.454,0,0,1-.882-2.572v-4.322h2.218v3.994q0,1.848,1.549,1.849a1.668,1.668,0,0,0,1.28-.519,2.194,2.194,0,0,0,.482-1.545v-3.78Z" transform="translate(-1188.944 -1347.839)" fill="#4e5381"/>
                  <path id="Path_106709" data-name="Path 106709" d="M1217.935,1351.021a3.384,3.384,0,0,1,.874,2.531v4.38h-2.218v-4.039a1.994,1.994,0,0,0-.4-1.355,1.459,1.459,0,0,0-1.152-.449,1.765,1.765,0,0,0-1.336.519,2.147,2.147,0,0,0-.5,1.541v3.784h-2.218v-7.649h2.119v.9a2.934,2.934,0,0,1,1.093-.746,3.817,3.817,0,0,1,1.438-.264A3.151,3.151,0,0,1,1217.935,1351.021Z" transform="translate(-1191.525 -1347.809)" fill="#4e5381"/>
                </g>
              </g>
            </g>
            <text id="Daily:" transform="translate(20 227)" fill="#9b9eb8" font-size="16" font-family="Gilroy-Medium, Gilroy" font-weight="500"><tspan x="0" y="0">Daily:</tspan></text>
            <text id="Weekly:" transform="translate(199 227)" fill="#9b9eb8" font-size="16" font-family="Gilroy-Medium, Gilroy" font-weight="500"><tspan x="0" y="0">Weekly:</tspan></text>
            <text id="Monthly:" transform="translate(388 227)" fill="#9b9eb8" font-size="16" font-family="Gilroy-Medium, Gilroy" font-weight="500"><tspan x="0" y="0">Monthly:</tspan></text>
            <text id="_285" data-name="$285" transform="translate(20 250)" fill="#4e5381" font-size="20" font-family="Gilroy-Bold, Gilroy" font-weight="700"><tspan x="0" y="0">$285</tspan></text>
            <text id="_1_487" data-name="$1,487" transform="translate(200 250)" fill="#4e5381" font-size="20" font-family="Gilroy-Bold, Gilroy" font-weight="700"><tspan x="0" y="0">$1,487</tspan></text>
            <text id="_7_400" data-name="$7,400" transform="translate(388 250)" fill="#4e5381" font-size="20" font-family="Gilroy-Bold, Gilroy" font-weight="700"><tspan x="0" y="0">$7,400</tspan></text>
            <text id="Cashflow" transform="translate(20 48)" fill="#4e5381" font-size="26" font-family="Gilroy-Bold, Gilroy" font-weight="700"><tspan x="0" y="0">Cashflow</tspan></text>
          </g>
        </g>
      </g>
    </g>
    <g id="Group_43851" data-name="Group 43851" transform="translate(-20467 -14133)">
      <g transform="matrix(1, 0, 0, 1, 483, 1915)" filter="url(#Rectangle_6662)">
        <rect id="Rectangle_6662-3" data-name="Rectangle 6662" width="152" height="76" rx="20" transform="translate(318 20)" fill="#fff"/>
      </g>
      <text id="Income" transform="translate(866 1966.5)" fill="#9b9eb8" font-size="16" font-family="Gilroy-Medium, Gilroy" font-weight="500"><tspan x="0" y="0">Income</tspan></text>
      <text id="_4_441" data-name="$4,441" transform="translate(866 1989.5)" fill="#4e5381" font-size="20" font-family="Gilroy-Bold, Gilroy" font-weight="700"><tspan x="0" y="0">$4,441</tspan></text>
      <path id="Path_108573" data-name="Path 108573" d="M1682.284,2786.22l-.011-.048v20.755l6.539-6.525a1.713,1.713,0,0,1,2.409,0l1.016,1.015a1.7,1.7,0,0,1,0,2.4L1681.055,2815a1.709,1.709,0,0,1-2.405,0l-11.185-11.184a1.7,1.7,0,0,1,0-2.4l1.016-1.015a1.682,1.682,0,0,1,1.2-.495,1.631,1.631,0,0,1,1.176.495l6.575,6.6v-20.8a1.758,1.758,0,0,1,1.74-1.72h1.436A1.724,1.724,0,0,1,1682.284,2786.22Z" transform="translate(-846.117 -827.113)" fill="#2b3eb1"/>
    </g>
    <g id="Group_43852" data-name="Group 43852" transform="translate(-20735 -13790)">
      <g transform="matrix(1, 0, 0, 1, 751, 1572)" filter="url(#Rectangle_6662-2)">
        <rect id="Rectangle_6662-4" data-name="Rectangle 6662" width="152" height="76" rx="20" transform="translate(50 363)" fill="#fff"/>
      </g>
      <text id="Expense" transform="translate(866 1966.5)" fill="#9b9eb8" font-size="16" font-family="Gilroy-Medium, Gilroy" font-weight="500"><tspan x="0" y="0">Expense</tspan></text>
      <text id="_2_959" data-name="$2,959" transform="translate(866 1989.5)" fill="#4e5381" font-size="20" font-family="Gilroy-Bold, Gilroy" font-weight="700"><tspan x="0" y="0">$2,959</tspan></text>
      <path id="Path_108573-2" data-name="Path 108573" d="M1682.283,2813.75l-.011.048v-20.755l6.539,6.525a1.713,1.713,0,0,0,2.409,0l1.016-1.015a1.7,1.7,0,0,0,0-2.4l-11.184-11.185a1.709,1.709,0,0,0-2.405,0l-11.184,11.185a1.7,1.7,0,0,0,0,2.4l1.016,1.015a1.682,1.682,0,0,0,1.2.495,1.631,1.631,0,0,0,1.176-.495l6.575-6.6v20.8a1.758,1.758,0,0,0,1.74,1.72h1.436A1.724,1.724,0,0,0,1682.283,2813.75Z" transform="translate(-846.117 -827.113)" fill="#f37434"/>
    </g>
  </g>
</svg>
