<svg xmlns="http://www.w3.org/2000/svg" xmlns:xlink="http://www.w3.org/1999/xlink" width="629.012" height="569.916" viewBox="0 0 629.012 569.916">
  <defs>
    <linearGradient id="linear-gradient" y1="0.5" x2="1" y2="0.5" gradientUnits="objectBoundingBox">
      <stop offset="0.039" stop-color="#fff"/>
      <stop offset="0.317" stop-color="#fcfdfe"/>
      <stop offset="0.507" stop-color="#f3f7fb"/>
      <stop offset="0.67" stop-color="#e3ecf6"/>
      <stop offset="0.819" stop-color="#ceddf0"/>
      <stop offset="0.956" stop-color="#b2cbe8"/>
      <stop offset="1" stop-color="#a8c4e5"/>
    </linearGradient>
    <linearGradient id="linear-gradient-2" x1="-0.007" y1="0.502" x2="1.009" y2="0.502" gradientUnits="objectBoundingBox">
      <stop offset="0" stop-color="#fff"/>
      <stop offset="0.039" stop-color="#fff"/>
      <stop offset="0.141" stop-color="#fcfdfe"/>
      <stop offset="0.351" stop-color="#f3f7fb"/>
      <stop offset="0.67" stop-color="#e3ecf6"/>
      <stop offset="0.819" stop-color="#ceddf0"/>
      <stop offset="0.956" stop-color="#b2cbe8"/>
      <stop offset="1" stop-color="#a8c4e5"/>
    </linearGradient>
  </defs>
  <g id="Group_50477" data-name="Group 50477" transform="translate(0)">
    <g id="image" transform="translate(0 0)">
      <g id="Group_50460" data-name="Group 50460" transform="translate(290.055)">
        <g id="Group_50459" data-name="Group 50459">
          <path id="Path_123445" data-name="Path 123445" d="M1502.634,633.9,1262.666,509.785c-9.821-5.08-12.489-12.613-5.96-16.826l41.752-26.944c6.53-4.213,19.783-3.511,29.6,1.568L1568.03,591.7c9.821,5.079,12.489,12.613,5.96,16.826l-41.752,26.943C1525.709,639.682,1512.455,638.98,1502.634,633.9Z" transform="translate(-1238.608 -204.873)" fill="#f4f4f6" style="mix-blend-mode: multiply;isolation: isolate"/>
          <g id="Group_50453" data-name="Group 50453" transform="translate(50.597 297.915)">
            <g id="Group_50452" data-name="Group 50452">
              <path id="Path_123446" data-name="Path 123446" d="M1515.218,579.61s-1.66.933-1.786,1.082c-.058.068-.643.709-.909.954-.2.181-.856.72-.976.809-.351.263-74.075,45.917-74.075,45.917l-.274,11.661,72.948-45.149a2.135,2.135,0,0,0,1.367-.527c.12-.09.22-.185.334-.277.219-.176.445-.351.642-.533l.006,0c.264-.243.5-.492.726-.744.061-.068.119-.137.177-.206s.139-.155.2-.234.094-.145.146-.217q.227-.3.417-.614c.044-.071.1-.14.144-.211s.051-.116.082-.173c.1-.184.184-.37.264-.556.038-.09.093-.177.127-.267.018-.046.024-.092.04-.137.064-.179.111-.359.157-.54.026-.1.068-.2.089-.3.007-.036.006-.072.013-.107.035-.193.051-.387.067-.58.009-.1.034-.208.036-.311,0-.051,0-.1,0-.152Z" transform="translate(-1350.064 -541.257)" fill="#9bb7d3"/>
              <path id="Path_123447" data-name="Path 123447" d="M1393.888,635.489c-.491.29-1,.558-1.537.808-.163.077-.327.153-.493.226-.588.258-1.191.5-1.817.71-.035.012-.067.026-.1.037q-.786.262-1.606.475c-.079.02-.161.034-.24.054-.47.118-.944.228-1.425.322-.06.012-.122.019-.181.03-.62.116-1.249.21-1.882.287-.233.029-.466.052-.7.076q-.551.054-1.106.09c-.261.016-.522.03-.784.04-.319.012-.639.017-.958.019-.275,0-.551,0-.826,0-.3-.006-.591-.018-.885-.033s-.563-.029-.843-.05-.583-.052-.872-.082-.551-.059-.823-.1c-.311-.042-.618-.092-.926-.143-.256-.043-.511-.086-.765-.136-.373-.073-.739-.159-1.1-.248-.2-.05-.412-.094-.613-.149-.652-.176-1.289-.376-1.906-.6-.308-.112-.605-.235-.9-.359-.152-.064-.31-.121-.459-.188-.452-.2-.892-.419-1.315-.651l-56.537-31.116c-3.494-1.923-5.232-.87-5.225-3.457l-.034,8.283c-.007,2.587,1.73,5.152,5.224,7.075l56.537,31.117c.422.233.863.448,1.314.651.15.067.308.125.461.189.259.109.514.222.781.321.039.014.081.023.12.037q.926.338,1.906.6c.043.012.082.028.125.039.159.042.327.071.488.11.365.088.731.174,1.1.248.084.017.165.04.249.056.17.032.345.051.516.08.306.052.613.1.924.143.1.014.207.035.312.048.17.021.344.031.515.049.289.03.577.059.868.081.113.009.225.024.339.031.169.011.339.011.509.019.294.014.587.027.882.032.118,0,.235.012.353.013.158,0,.318-.009.477-.01q.478,0,.955-.019c.128-.005.256,0,.385-.008s.266-.024.4-.033q.554-.034,1.1-.089c.148-.015.3-.02.445-.036.087-.01.171-.029.259-.039.633-.078,1.261-.171,1.88-.287.05-.009.1-.013.149-.023l.032-.007c.482-.094.956-.2,1.425-.322.08-.02.161-.034.24-.055q.819-.213,1.606-.475l.021-.007c.027-.009.05-.021.077-.03.628-.211,1.23-.453,1.819-.711.167-.073.33-.149.493-.226.533-.25,1.047-.518,1.537-.808.06-.035.127-.062.185-.1l.117-.072.034-11.9C1394.094,635.38,1393.987,635.431,1393.888,635.489Z" transform="translate(-1307.023 -548.446)" fill="url(#linear-gradient)"/>
              <g id="Group_50451" data-name="Group 50451" transform="translate(0.034)">
                <path id="Path_123448" data-name="Path 123448" d="M1466.734,553.853c6.791,3.738,6.979,9.949.422,14.007l-72.949,45.15c-6.828,4.224-18.3,4.5-25.372.605L1312.3,582.5c-7.07-3.892-6.95-10.413.271-14.42l77.181-42.82c6.938-3.849,17.875-3.937,24.667-.2Z" transform="translate(-1307.074 -522.312)" fill="#c1e3f4"/>
              </g>
            </g>
            <path id="Path_123449" data-name="Path 123449" d="M1354.529,562.468l81.819,43.6,20.393-12.68L1378.165,549.8Z" transform="translate(-1322.73 -531.4)" fill="#45446c" opacity="0.29" style="mix-blend-mode: multiply;isolation: isolate"/>
            <path id="Path_123450" data-name="Path 123450" d="M1476.764,626.386V634.1l25.583-15.444v-7.4Z" transform="translate(-1363.146 -551.72)" fill="#45446c" opacity="0.29" style="mix-blend-mode: multiply;isolation: isolate"/>
          </g>
          <g id="Group_50454" data-name="Group 50454" transform="translate(0 32.338)">
            <path id="Path_123451" data-name="Path 123451" d="M1523.714,502.419a10.778,10.778,0,0,1-15.739,8.944L1240.015,370.6c-4.969-2.61-8.806-8.758-8.572-13.737L1242.029,131c.234-4.979,4.447-6.9,9.416-4.289L1533.212,274.73Z" transform="translate(-1231.433 -125.55)" fill="url(#linear-gradient-2)"/>
          </g>
          <path id="Path_123452" data-name="Path 123452" d="M1543.141,222.374,1269.593,79.054h0l-.024-.012-.54-.284-.005,0c-.411-.216-.9-.471-.957-.5-.124-.061-.248-.12-.372-.175s-.252-.11-.376-.161-.25-.1-.373-.145-.258-.091-.386-.132-.257-.08-.384-.114-.272-.072-.407-.1l-.023,0h0l-.037-.007c-.117-.025-.234-.049-.349-.069-.059-.01-.116-.016-.175-.025l-.144-.021-.112-.016c-.141-.016-.28-.027-.419-.034l-.036,0h-.006q-.246-.012-.485-.006c-.019,0-.036,0-.054,0-.074,0-.145.01-.218.015s-.172.008-.256.017c-.025,0-.047.009-.072.011-.116.015-.23.036-.343.058-.061.011-.125.017-.185.031l-.039.012a5.159,5.159,0,0,0-.651.2c-.015.006-.031.009-.045.014s-.043.024-.067.034a4.645,4.645,0,0,0-.772.394l-9.329,6.028a4.6,4.6,0,0,1,.758-.387c.1-.042.208-.076.313-.112.126-.042.253-.084.384-.117.155-.039.315-.07.477-.1.062-.009.121-.023.183-.03a6.066,6.066,0,0,1,.7-.044c.043,0,.088,0,.133,0a6.851,6.851,0,0,1,.74.046l.055.008a8.148,8.148,0,0,1,.813.145l.066.017c.271.065.546.145.824.239l.082.028c.294.1.593.22.895.357.123.055.246.114.37.175.1.047.192.1.288.147l2.009,1.056h0l281.3,147.768C1542.752,233.475,1544.035,222.844,1543.141,222.374ZM1266.3,79.731Z" transform="translate(-1238.216 -77.238)" fill="#c1e3f4"/>
          <g id="Group_50456" data-name="Group 50456" transform="translate(0.798 6.028)">
            <g id="Group_50455" data-name="Group 50455">
              <path id="Path_123453" data-name="Path 123453" d="M1525.7,454.345a16.078,16.078,0,0,1-23.513,13.492L1241.207,331.3c-4.969-2.61-8.806-8.758-8.572-13.737L1243.221,91.7c.234-4.979,4.447-6.9,9.416-4.289l283.31,148.823Z" transform="translate(-1232.625 -86.244)" fill="#2e8fff"/>
            </g>
          </g>
          <g id="Group_50457" data-name="Group 50457" transform="translate(8.748 34.192)">
            <path id="Path_123454" data-name="Path 123454" d="M1517.354,453.526a10.445,10.445,0,0,1-15.2,8.643l-248.857-128c-4.707-2.428-8.321-7.779-8.072-11.957l11.257-189.532c.249-4.178,4.262-5.6,8.969-3.169l263.6,135.126Z" transform="translate(-1244.737 -128.32)" fill="#d5e8f1"/>
            <path id="Path_123552" data-name="Path 123552" d="M1769.8,681.5c-7.308-4.23-11.9-6.9-12.156-7.019h-.069c-.041-.014-22.98-13.337-23.021-13.337s-3.5-2.019-3.805-2.212h-.014s-73.082-37.258-73.085-37.26c-.027,0-.041-.027-.068-.041-2.431-1.387-7.64-3.748-9.233-6.014-.563-.742-1.017-1.538-1.511-2.321,0-.014-.014-.014-.014-.028a31.849,31.849,0,0,1-1.882-3.763.051.051,0,0,1-.013-.041c-1.3-3.076-.22-6.625.013-9.935,3.613-62.153,9.355-169.8,9.768-177.094C1678.566,476.332,1743.906,623.274,1769.8,681.5Z" transform="translate(-1644.295 -413.014)" fill="#e9f5fb" style="mix-blend-mode: multiply;isolation: isolate"/>
          </g>
          <path id="Path_123455" data-name="Path 123455" d="M1461.516,206.883a3.34,3.34,0,0,1-4.918,2.019,5.146,5.146,0,0,1-2.528-5.837,3.341,3.341,0,0,1,4.918-2.019A5.147,5.147,0,0,1,1461.516,206.883Z" transform="translate(-1304.984 -118.028)" fill="#fff"/>
          <path id="Path_123456" data-name="Path 123456" d="M1686.728,304.392l0-.035q-.02-.19-.048-.382t-.062-.383c0-.018-.007-.036-.01-.054l-.011-.053c-.017-.089-.033-.179-.052-.268q-.04-.188-.085-.376c-.014-.06-.03-.119-.046-.178-.007-.026-.013-.051-.02-.078s-.02-.08-.031-.121c-.034-.125-.07-.251-.108-.377s-.073-.238-.113-.356l0-.013,0-.01c-.042-.126-.085-.253-.132-.379s-.092-.25-.141-.374c-.013-.033-.027-.066-.041-.1s-.019-.048-.029-.072c-.028-.067-.053-.134-.082-.2q-.075-.179-.156-.357c-.04-.09-.083-.179-.125-.269l-.017-.038-.019-.04c-.054-.113-.109-.225-.166-.337s-.111-.215-.167-.322c-.024-.046-.049-.09-.074-.136l-.031-.058-.069-.127q-.093-.167-.19-.331c-.065-.11-.131-.22-.2-.329l-.02-.031-.031-.05c-.072-.115-.144-.231-.219-.345s-.144-.211-.216-.316c-.048-.07-.095-.141-.145-.211l-.068-.1c-.122-.17-.25-.335-.377-.5-.042-.054-.081-.11-.123-.163l-.019-.025q-.248-.312-.507-.614l-.075-.085-.068-.077c-.06-.068-.12-.137-.182-.2q-.153-.169-.31-.333l-.121-.123-.063-.064c-.038-.039-.076-.078-.115-.116-.1-.1-.206-.2-.309-.3-.08-.075-.16-.148-.24-.221l-.043-.04-.04-.036c-.112-.1-.224-.2-.338-.3s-.236-.2-.355-.294l-.007-.005-.009-.007c-.115-.092-.23-.183-.347-.27s-.246-.183-.372-.272l-.045-.032-.053-.036c-.09-.063-.18-.126-.271-.186-.124-.082-.248-.161-.373-.239l-.1-.063c-.012-.007-.022-.015-.035-.022l-.01,0c-.073-.044-.147-.089-.221-.132-.124-.072-.248-.141-.373-.207l-2.012-1.054-9.705,5.827s2.638,1.392,2.762,1.463.248.146.37.222.25.157.372.239.248.167.37.254c.052.036.1.075.154.112.2.143.39.289.581.442h0c.194.155.382.315.569.48l.072.062q.267.238.525.489l.079.076q.251.247.492.5l.086.092q.239.258.469.525c.079.092.155.187.232.281.094.113.188.226.278.342.106.134.206.272.308.409.066.089.134.177.2.267s.11.16.165.24c.1.142.195.282.288.426.025.039.05.078.074.116.126.2.25.4.368.6l.029.05q.186.319.356.644l.034.066q.165.317.314.638l.038.082q.145.316.277.634c.012.032.026.064.039.1q.127.316.24.634l.033.1q.111.319.205.639c.009.031.018.062.027.093q.093.322.168.643l.02.085q.073.324.13.647c.018.108.036.215.052.323q.028.192.048.382c.015.134.027.266.036.4s.017.265.021.4.007.286,0,.428c0,.11,0,.22-.009.329,0,0-.01.218-.028.593l-12.364,250.393,7.02-6.543a8.5,8.5,0,0,0,2.716-5.795l11.861-242.028c.05-1.058.125-2.649.125-2.649.006-.109.008-.219.01-.329,0-.093,0-.187,0-.28a.119.119,0,0,1,0-.016c0-.013,0-.025,0-.038,0-.031,0-.062,0-.092,0-.132-.011-.264-.021-.4-.007-.105-.017-.211-.029-.317C1686.73,304.422,1686.729,304.407,1686.728,304.392Z" transform="translate(-1374.806 -147.97)" fill="#71bfe6"/>
          <g id="Group_50458" data-name="Group 50458" transform="translate(65.517 109.536)">
            <path id="Path_123457" data-name="Path 123457" d="M1452.7,388.746l-.216-50.019-31.55-40.51-31.334,9.51.216,50.02,31.55,40.51Z" transform="translate(-1349.245 -259.839)" fill="none" stroke="#fff" stroke-linecap="round" stroke-linejoin="round" stroke-width="4.355"/>
            <line id="Line_401" data-name="Line 401" x1="0.251" y2="20.761" transform="translate(71.688 17.617)" fill="none" stroke="#fff" stroke-linecap="round" stroke-linejoin="round" stroke-width="4.355"/>
            <line id="Line_402" data-name="Line 402" x1="0.242" y2="20.003" transform="translate(71.763 138.417)" fill="none" stroke="#fff" stroke-linecap="round" stroke-linejoin="round" stroke-width="4.355"/>
            <line id="Line_403" data-name="Line 403" x2="18.421" y2="22.701" transform="translate(21.933 25.187)" fill="none" stroke="#fff" stroke-linecap="round" stroke-linejoin="round" stroke-width="4.355"/>
            <line id="Line_404" data-name="Line 404" y1="7.465" x2="32.393" transform="translate(103.238 71.422)" fill="none" stroke="#fff" stroke-linecap="round" stroke-linejoin="round" stroke-width="4.355"/>
            <line id="Line_405" data-name="Line 405" y1="5.732" x2="25.646" transform="translate(14.923 97.907)" fill="none" stroke="#fff" stroke-linecap="round" stroke-linejoin="round" stroke-width="4.355"/>
            <line id="Line_406" data-name="Line 406" x2="20.682" y2="28.162" transform="translate(68.936 49.705)" fill="none" stroke="#fff" stroke-linecap="round" stroke-linejoin="round" stroke-width="4.355"/>
            <line id="Line_407" data-name="Line 407" x2="20.682" y2="28.162" transform="translate(49.893 95.303)" fill="none" stroke="#fff" stroke-linecap="round" stroke-linejoin="round" stroke-width="4.355"/>
            <path id="Path_123458" data-name="Path 123458" d="M1335.512,400.219c-1.194,1.567-3.38,1.363-4.884-.454s-1.756-4.56-.563-6.127,3.38-1.363,4.884.455S1336.706,398.652,1335.512,400.219Z" transform="translate(-1329.312 -291.041)" fill="none" stroke="#fff" stroke-linecap="round" stroke-linejoin="round" stroke-width="4.355"/>
            <path id="Path_123459" data-name="Path 123459" d="M1350.875,265.662c-1.194,1.567-3.38,1.363-4.884-.454s-1.756-4.56-.563-6.127,3.379-1.363,4.883.454S1352.068,264.1,1350.875,265.662Z" transform="translate(-1334.392 -246.551)" fill="none" stroke="#fff" stroke-linecap="round" stroke-linejoin="round" stroke-width="4.355"/>
            <path id="Path_123460" data-name="Path 123460" d="M1436.752,248.517c-1.193,1.566-3.38,1.363-4.884-.454s-1.757-4.56-.563-6.127,3.38-1.363,4.884.454S1437.946,246.95,1436.752,248.517Z" transform="translate(-1362.786 -240.882)" fill="none" stroke="#fff" stroke-linecap="round" stroke-linejoin="round" stroke-width="4.355"/>
            <path id="Path_123461" data-name="Path 123461" d="M1547.145,343.816c-1.194,1.566-3.38,1.363-4.885-.454s-1.756-4.56-.563-6.127,3.38-1.363,4.884.454S1548.338,342.249,1547.145,343.816Z" transform="translate(-1399.287 -272.391)" fill="none" stroke="#fff" stroke-linecap="round" stroke-linejoin="round" stroke-width="4.355"/>
            <path id="Path_123462" data-name="Path 123462" d="M1436.968,493.417c-1.194,1.567-3.38,1.363-4.884-.454s-1.756-4.56-.563-6.127,3.38-1.363,4.884.454S1438.161,491.85,1436.968,493.417Z" transform="translate(-1362.858 -321.856)" fill="none" stroke="#fff" stroke-linecap="round" stroke-linejoin="round" stroke-width="4.355"/>
            <line id="Line_408" data-name="Line 408" x1="0.091" y2="7.084" transform="translate(78.918 168.271)" fill="none" stroke="#fff" stroke-linecap="round" stroke-linejoin="round" stroke-width="4.355"/>
            <line id="Line_409" data-name="Line 409" x1="0.091" y2="7.084" transform="translate(154.534 66.281)" fill="none" stroke="#fff" stroke-linecap="round" stroke-linejoin="round" stroke-width="4.355"/>
            <line id="Line_410" data-name="Line 410" x1="0.091" y2="7.084" transform="translate(21.396 12.279)" fill="none" stroke="#fff" stroke-linecap="round" stroke-linejoin="round" stroke-width="4.355"/>
            <line id="Line_411" data-name="Line 411" y1="5.884" x2="20.825" transform="translate(76.563 120.74)" fill="none" stroke="#fff" stroke-linecap="round" stroke-linejoin="round" stroke-width="4.355"/>
          </g>
          <line id="Line_412" data-name="Line 412" x2="43.992" y2="21.907" transform="translate(199.365 262.536)" fill="none" stroke="#fff" stroke-linecap="round" stroke-linejoin="round" stroke-width="4.355"/>
          <line id="Line_413" data-name="Line 413" x2="64.029" y2="31.885" transform="translate(199.365 280.414)" fill="none" stroke="#fff" stroke-linecap="round" stroke-linejoin="round" stroke-width="4.355"/>
        </g>
        <line id="Line_414" data-name="Line 414" x2="46.426" y2="25.502" transform="translate(275.071 60.964)" fill="none" stroke="#fff" stroke-linecap="round" stroke-linejoin="round" stroke-width="3.761"/>
      </g>
      <g id="Group_50473" data-name="Group 50473" transform="translate(42.991 423.438)">
        <ellipse id="Ellipse_2962" data-name="Ellipse 2962" cx="41.178" cy="21.931" rx="41.178" ry="21.931" transform="translate(24.543 70.782)" fill="#f4f4f6" style="mix-blend-mode: multiply;isolation: isolate"/>
        <g id="Group_50472" data-name="Group 50472">
          <path id="Path_123546" data-name="Path 123546" d="M1358.088,908.433l27.181-51.6h27.068l26.525,49.725Z" transform="translate(-1357.625 -821.624)" fill="#ebf5ff"/>
          <ellipse id="Ellipse_2963" data-name="Ellipse 2963" cx="41.178" cy="21.931" rx="41.178" ry="21.931" transform="translate(0 68.173)" fill="#ebf5ff"/>
          <g id="Group_50471" data-name="Group 50471" transform="translate(27.644)">
            <ellipse id="Ellipse_2964" data-name="Ellipse 2964" cx="13.534" cy="7.208" rx="13.534" ry="7.208" fill="#ebf5ff"/>
            <ellipse id="Ellipse_2965" data-name="Ellipse 2965" cx="13.534" cy="7.208" rx="13.534" ry="7.208" transform="translate(0 32.195)" fill="#ebf5ff"/>
            <rect id="Rectangle_8235" data-name="Rectangle 8235" width="26.97" height="33.076" transform="translate(0 7.117)" fill="#ebf5ff"/>
          </g>
          <ellipse id="Ellipse_2966" data-name="Ellipse 2966" cx="29.591" cy="15.76" rx="29.591" ry="15.76" transform="translate(11.539 70.913)" fill="#2f81ec"/>
          <path id="Path_123547" data-name="Path 123547" d="M1375.132,909.345l19.533-37.08c4.438-6.994,16.466-6.6,19.45,0L1433.176,908Z" transform="translate(-1363.26 -825.041)" fill="#2f81ec"/>
          <path id="Path_123548" data-name="Path 123548" d="M1388.288,915.479h0a2.385,2.385,0,0,1-1.159-3.157l9.432-20.369a2.386,2.386,0,0,1,3.158-1.159h0a2.385,2.385,0,0,1,1.158,3.157l-9.432,20.369A2.386,2.386,0,0,1,1388.288,915.479Z" transform="translate(-1367.155 -832.781)" fill="#ebf5ff"/>
          <path id="Path_123549" data-name="Path 123549" d="M1406.265,824.412s5.649,3.72,16.277.513" transform="translate(-1373.555 -810.905)" fill="none" stroke="#afcfed" stroke-linecap="round" stroke-linejoin="round" stroke-width="1.456"/>
          <path id="Path_123550" data-name="Path 123550" d="M1406.382,813.763s.683-3.353,7.816-3.353,8.864,2.654,8.864,2.654" transform="translate(-1373.593 -806.275)" fill="none" stroke="#afcfed" stroke-linecap="round" stroke-linejoin="round" stroke-width="1.456"/>
          <path id="Path_123551" data-name="Path 123551" d="M1415.036,870.549a14.321,14.321,0,0,0-2.705.252,11.17,11.17,0,0,0-3.411,1.363c-.021-.006-.042-.014-.063-.021a3,3,0,0,0-1.526,2.366c0,2.187,3.45,3.96,7.705,3.96s7.705-1.773,7.705-3.96S1419.291,870.549,1415.036,870.549Z" transform="translate(-1373.907 -826.159)" fill="#85bbff"/>
        </g>
      </g>
      <g id="Group_50463" data-name="Group 50463" transform="translate(453.17 227.74)">
        <rect id="Rectangle_8233" data-name="Rectangle 8233" width="42.442" height="65.666" rx="12.357" transform="translate(55.211 155.128)" fill="#6baded"/>
        <ellipse id="Ellipse_2957" data-name="Ellipse 2957" cx="25.71" cy="51.753" rx="25.71" ry="51.753" transform="translate(29.612 337.845) rotate(-88.764)" fill="#f4f4f6" style="mix-blend-mode: multiply;isolation: isolate"/>
        <path id="Path_123503" data-name="Path 123503" d="M477.075,589.777l24.368,17.571a10.956,10.956,0,0,0,16.322-4.227L537.2,561.768l-22.17,10.5L509.168,587.8a4.366,4.366,0,0,1-5.96,2.4l-18.77-8.928Z" transform="translate(-469.398 -492.797)" fill="#ffc2b0"/>
        <path id="Path_123504" data-name="Path 123504" d="M551.967,806.8l13.7-18.5c1.976-1.588,6.774-2.87,10.158-2.942a3.223,3.223,0,0,1,3.179,2.521l.737,3.2c1.223,4.57.909,5.308-1.7,7.4l-15.491,12.44c-2.609,2.1-6.953,2.951-9.655,1.9l-.766-.3C549.433,811.468,549.358,808.9,551.967,806.8Z" transform="translate(-467.07 -485.665)" fill="#173891"/>
        <path id="Path_123505" data-name="Path 123505" d="M577.984,788.895c.088,4.833-11.668,5.047-11.755.214l-.286-15.706,11.755-.215Z" transform="translate(-466.564 -486.053)" fill="#86abd9"/>
        <path id="Path_123506" data-name="Path 123506" d="M510.131,792.731l17.47-15c2.28-1.108,7.243-1.294,10.558-.613a3.224,3.224,0,0,1,2.541,3.165l.009,3.28c.176,4.728-.293,5.377-3.3,6.84l-17.866,8.691c-3.009,1.463-7.435,1.332-9.835-.291l-.681-.459C506.625,796.72,507.123,794.2,510.131,792.731Z" transform="translate(-468.428 -485.941)" fill="#173891"/>
        <path id="Path_123507" data-name="Path 123507" d="M538.944,778.045c.193,4.83-11.556,5.3-11.748.47l-.628-15.7,11.748-.47Z" transform="translate(-467.82 -486.399)" fill="#86abd9"/>
        <path id="Path_123508" data-name="Path 123508" d="M539.513,777.921c-4.65,3.506-12.263,3.734-14.752-.03A758.186,758.186,0,0,1,514.9,632.534l36.65-12.344C544.232,679.769,535.739,732.573,539.513,777.921Z" transform="translate(-468.2 -490.934)" fill="#0000a6"/>
        <path id="Path_123509" data-name="Path 123509" d="M580.1,783.771c-3.441,5.536-11.849,5.724-14.533,1.819L532.569,622.926l42.43-.772Z" transform="translate(-467.628 -490.871)" fill="#0000a6"/>
        <path id="Path_123510" data-name="Path 123510" d="M544.515,663.508l-2.691,14.778-6.865-31.839a49.572,49.572,0,0,0,5.787,1.35Z" transform="translate(-467.552 -490.096)" fill="#040886"/>
        <path id="Path_123511" data-name="Path 123511" d="M516.655,548.017l-9.286,32.005c4.638,10.1,11.391,14.41,19.178,15.9l14.069-31.093-15.629-11.25Z" transform="translate(-468.432 -493.236)" fill="#4432db"/>
        <path id="Path_123512" data-name="Path 123512" d="M512.309,628.57c1.092-18.457,2.143-35.579.755-58.736,1.883-31.838,14.61-42.909,34.235-34.4l8.157,2.691c23.438,14.474,35.771,14.547,29.925,39.911l-7.562,55.91C576.11,662.853,508.756,662.466,512.309,628.57Z" transform="translate(-468.279 -493.725)" fill="#2f81ec"/>
        <path id="Path_123513" data-name="Path 123513" d="M539.62,535.818a16.446,16.446,0,0,0,13.445-6.605S547.428,540.435,540.187,541Z" transform="translate(-467.403 -493.836)" fill="#f09a82"/>
        <path id="Path_123514" data-name="Path 123514" d="M553.788,537.081s6.647,2.848,3.391,10.309c-3.689,8.454-8.855,46.234-8.166,67.514.382,11.817,2.152,104.995,2.152,104.995s31.7-1.193,38.571-26.87-2.611-129.085-2.611-129.085a28.9,28.9,0,0,0-11.543-13.669C567.222,545.4,553.788,537.081,553.788,537.081Z" transform="translate(-467.106 -493.585)" fill="#ebf5ff"/>
        <path id="Path_123515" data-name="Path 123515" d="M567.091,585.474c9,12.85,17.648,26.017,19.277,45.338.954,2.449,1.86,34.663,1.86,34.663l10.985,1.81s.118-44.234-.413-46.644l-10.377-47.129Z" transform="translate(-466.527 -492.423)" fill="#ffc2b0"/>
        <rect id="Rectangle_8234" data-name="Rectangle 8234" width="11.606" height="15.791" rx="4.892" transform="matrix(0.994, -0.107, 0.107, 0.994, 120.785, 170.148)" fill="#ffc2b0"/>
        <path id="Path_123516" data-name="Path 123516" d="M567.091,585.1l7.873,43.957L586.173,658.9l.2-28.458Z" transform="translate(-466.527 -492.053)" fill="#6baded"/>
        <path id="Path_123517" data-name="Path 123517" d="M540.649,535.717s-20.382,19.591-19.015,58.057,3.735,124,3.735,124c-8.622-5.736-16.979-11.888-17.991-29.606l.1-102.593c.008-8.666,3.014-26.631,7.381-34.117C520.226,542.261,528.141,525.185,540.649,535.717Z" transform="translate(-468.432 -493.734)" fill="#ebf5ff"/>
        <path id="Path_123518" data-name="Path 123518" d="M539.773,534.659s2.172,3.733,3.606,4.524,22.008-7.456,20.637-24.221c-.869-10.617-21.015-8.706-21.015-8.706Z" transform="translate(-467.398 -494.572)" fill="#191791"/>
        <path id="Path_123519" data-name="Path 123519" d="M548.185,549.861l-.973.106a6.023,6.023,0,0,1-6.624-5.317l-2.029-18.515a6.022,6.022,0,0,1,5.315-6.624l.973-.107a6.023,6.023,0,0,1,6.624,5.316l4.565,17.505C556.4,545.509,551.468,549.5,548.185,549.861Z" transform="translate(-467.438 -494.15)" fill="#ffc2b0"/>
        <ellipse id="Ellipse_2958" data-name="Ellipse 2958" cx="18.728" cy="10.615" rx="18.728" ry="10.615" transform="matrix(0.096, -0.995, 0.995, 0.096, 57.106, 40.431)" fill="#ffc2b0"/>
        <path id="Path_123520" data-name="Path 123520" d="M553.977,529.1c-4.327,7.845-19.406,11.054-23.446,4.365s1.58-20.7,5.906-28.546,11.109-8.783,15.148-2.093S558.3,521.25,553.977,529.1Z" transform="translate(-467.738 -494.82)" fill="#ffc2b0"/>
        <path id="Path_123521" data-name="Path 123521" d="M546.77,507.782s-4.022,16.123,8.464,21.5c0,0,15.743-6.521,7.079-23.7-7.636-15.139-24.205-6.571-24.205-6.571Z" transform="translate(-467.452 -494.876)" fill="#191791"/>
        <path id="Path_123522" data-name="Path 123522" d="M526.778,516.13s2.66-6.787,11.584-8.628l-6.2-4.9S525.076,503.263,526.778,516.13Z" transform="translate(-467.821 -494.685)" fill="#2c4482"/>
        <path id="Path_123523" data-name="Path 123523" d="M552.711,518.345c-2.341-4.2-8.427-4.962-17.484-2.986a7.708,7.708,0,0,1-4.161-.126c-6.254-2.172-6.174-10.274-6.174-10.274-.686-5.514,3.16-7.458,8.673-8.144l14.36-1.785c8.13-1.056,14.891,6.4,15.577,11.917l.249.924C564.436,513.387,558.225,517.66,552.711,518.345Z" transform="translate(-467.875 -494.929)" fill="#191791"/>
        <path id="Path_123524" data-name="Path 123524" d="M556.408,528.151a3.945,3.945,0,1,1-1.549-5.359A3.945,3.945,0,0,1,556.408,528.151Z" transform="translate(-467.104 -494.056)" fill="#ffc2b0"/>
        <path id="Path_123525" data-name="Path 123525" d="M527.55,643.215l-40.3-19.277a11.079,11.079,0,0,1-5.311-7.037l-12.195-62.74c-.53-2.727.992-4.023,3.383-2.88l40.3,19.278a11.074,11.074,0,0,1,5.31,7.038l12.2,62.74C531.463,643.063,529.941,644.359,527.55,643.215Z" transform="translate(-469.636 -493.145)" fill="#2c4482"/>
        <path id="Path_123526" data-name="Path 123526" d="M478.208,593.175h0a4.761,4.761,0,0,1-5.754-3.461l-1.113-4.475a4.762,4.762,0,0,1,3.462-5.754h0a4.761,4.761,0,0,1,5.753,3.461l1.113,4.476A4.761,4.761,0,0,1,478.208,593.175Z" transform="translate(-469.586 -492.236)" fill="#ffc2b0"/>
        <path id="Path_123527" data-name="Path 123527" d="M562.6,580.79c.3,1.085,19.108,45.821,19.108,45.821l1.6,32.764s19.746.944,19.384-1.019c-.3-1.634-.1-28.367-.021-37.268a19.505,19.505,0,0,0-.774-5.61l-15.2-52.364Z" transform="translate(-466.671 -492.754)" fill="#ebf5ff"/>
      </g>
      <g id="Group_50461" data-name="Group 50461" transform="translate(0 16.349)">
        <path id="Path_123465" data-name="Path 123465" d="M1699.334,899.653l71.781-39.591c9.6-5.295,8.5-14.546-2.458-20.662l-64.985-36.274c-10.958-6.116-27.624-6.783-37.224-1.488l-71.78,39.591c-9.6,5.295-8.5,14.546,2.459,20.663l64.984,36.273C1673.069,904.283,1689.734,904.948,1699.334,899.653Z" transform="translate(-1588.13 -545.172)" fill="#f4f4f6" style="mix-blend-mode: multiply;isolation: isolate"/>
        <path id="Path_123466" data-name="Path 123466" d="M1687.664,770.671s-81.13-103.6,1-195.2l24.5-5.3,24.37,50.393s-48.154,18.266-12.833,89.523,34.37,61,34.37,61Z" transform="translate(-1620.86 -500.664)" fill="#afcfed"/>
        <path id="Path_123467" data-name="Path 123467" d="M1741.053,622.21s-32.185,27.319-25.261,61.873c8.877,44.3,9.742,46.66,9.742,46.66" transform="translate(-1653.475 -510.827)" fill="none" stroke="#1355d1" stroke-linecap="round" stroke-linejoin="round" stroke-width="1.735"/>
        <path id="Path_123468" data-name="Path 123468" d="M1651.491,900.125l71.78-39.591c4.746-2.618,6.877-6.2,6.494-9.9-.391-3.779-.023-19.072-.023-19.072L1655.829,803.6c-10.958-6.117-27.623-6.783-37.224-1.488l-78.3,29.2s-.41,16.675.036,20.414,3.459,7.581,8.938,10.639l64.984,36.274C1625.225,904.754,1641.89,905.42,1651.491,900.125Z" transform="translate(-1501.666 -545.264)" fill="#1355d1"/>
        <path id="Path_123469" data-name="Path 123469" d="M1651.342,876.668l71.78-39.591c9.6-5.3,8.5-14.547-2.458-20.663l-64.984-36.273c-10.958-6.117-27.623-6.784-37.224-1.489l-71.781,39.591c-9.6,5.3-8.5,14.547,2.459,20.663l64.984,36.274C1625.076,881.3,1641.741,881.963,1651.342,876.668Z" transform="translate(-1501.517 -540.683)" fill="#afcfed"/>
        <ellipse id="Ellipse_2950" data-name="Ellipse 2950" cx="38.622" cy="18.754" rx="38.622" ry="18.754" transform="matrix(-1, -0.013, 0.013, -1, 171.759, 308.786)" fill="#6baded"/>
        <path id="Path_123470" data-name="Path 123470" d="M1651.466,814.506l71.78-39.592c4.746-2.617,6.877-6.2,6.494-9.9-.391-3.779-.036-16.726-.036-16.726l-73.9-30.315c-10.958-6.117-27.623-6.783-37.224-1.488l-78.3,31.641s-.343,14.121.016,17.8c.371,3.794,3.393,7.709,8.958,10.815l64.984,36.274C1625.2,819.135,1641.866,819.8,1651.466,814.506Z" transform="translate(-1501.642 -528.542)" fill="#1355d1"/>
        <path id="Path_123471" data-name="Path 123471" d="M1651.342,794.08l71.78-39.591c9.6-5.295,8.5-14.546-2.458-20.662l-64.984-36.274c-10.958-6.116-27.623-6.783-37.224-1.488l-71.781,39.591c-9.6,5.295-8.5,14.546,2.459,20.663l64.984,36.273C1625.076,798.71,1641.741,799.376,1651.342,794.08Z" transform="translate(-1501.517 -524.553)" fill="#2e8fff"/>
        <path id="Path_123472" data-name="Path 123472" d="M1549.788,771.351l64.985,36.273c10.958,6.117,27.623,6.783,37.223,1.488l71.781-39.591" transform="translate(-1503.401 -539.597)" fill="none" stroke="#afcfed" stroke-linecap="round" stroke-linejoin="round" stroke-width="1.157"/>
        <ellipse id="Ellipse_2951" data-name="Ellipse 2951" cx="22.917" cy="11.586" rx="22.917" ry="11.586" transform="translate(156.143 231.238) rotate(-179.244)" fill="#6baded"/>
        <path id="Path_123473" data-name="Path 123473" d="M1652.335,752.05c-9.088-.089-16.94,2.509-20.646,6.351a7.384,7.384,0,0,1-2.27-5.056c0-6.4,10.26-11.485,22.915-11.361s22.916,5.413,22.916,11.811a7.227,7.227,0,0,1-2.27,5.011C1669.276,754.892,1661.424,752.139,1652.335,752.05Z" transform="translate(-1518.954 -534.218)" fill="#1355d1"/>
        <ellipse id="Ellipse_2952" data-name="Ellipse 2952" cx="22.902" cy="18.91" rx="22.902" ry="18.91" transform="matrix(-0.46, -0.888, 0.888, -0.46, 30.94, 170.932)" fill="#1355d1"/>
        <path id="Path_123474" data-name="Path 123474" d="M1774.847,659.492c0,3.686,2.71,7.144,6.054,7.724s6.054-1.938,6.054-5.624-2.71-7.143-6.054-7.723S1774.847,655.807,1774.847,659.492Z" transform="translate(-1747.683 -516.994)" fill="#2e8fff"/>
        <path id="Path_123475" data-name="Path 123475" d="M1787.342,667.969a14.5,14.5,0,0,0,2.664-8.667c0-8.644-6.357-16.755-14.2-18.115a11.609,11.609,0,0,0-12.967,7.019" transform="translate(-1741.073 -514.495)" fill="none" stroke="#fff" stroke-linecap="round" stroke-linejoin="round" stroke-width="1.749"/>
        <path id="Path_123476" data-name="Path 123476" d="M1638.615,696.419c0,.549,2.017,5.886,2.218,6.352,1.407,3.269,7.492,4.477,14.784,2.661,8.335-2.075,15.092-7.313,15.092-11.7a41.25,41.25,0,0,0-2.274-7.178c-1.885-2.786-6.015,1.3-12.817,2.993C1647.282,691.622,1638.615,692.033,1638.615,696.419Z" transform="translate(-1521.812 -523.209)" fill="#9bbede"/>
        <path id="Path_123477" data-name="Path 123477" d="M1637.824,681.443c0,.75,2.757,8.046,3.033,8.685,1.924,4.469,10.243,6.12,20.214,3.638,11.4-2.837,20.633-10,20.633-16a56.346,56.346,0,0,0-3.11-9.814c-2.577-3.809-8.224,1.776-17.524,4.091C1649.676,674.884,1637.824,675.446,1637.824,681.443Z" transform="translate(-1532.17 -519.508)" fill="#afcfed"/>
        <path id="Path_123478" data-name="Path 123478" d="M1719.794,633.847l-28.788-73.866a26.5,26.5,0,0,0-33.586-14.988h0a24.883,24.883,0,0,0-15.075,32.51l28.789,73.866C1676.244,664.485,1724.906,646.963,1719.794,633.847Z" transform="translate(-1572.898 -495.44)" fill="#fff"/>
        <path id="Path_123479" data-name="Path 123479" d="M1734.3,553.649h0a15.5,15.5,0,0,0,9.392-20.256L1725.75,487.37c-3.185-8.173-33.5,2.745-30.319,10.917l17.938,46.023A16.507,16.507,0,0,0,1734.3,553.649Z" transform="translate(-1641.385 -483.928)" fill="#2e8fff"/>
        <ellipse id="Ellipse_2953" data-name="Ellipse 2953" cx="12.848" cy="26.333" rx="12.848" ry="26.333" transform="translate(68.728 82.43) rotate(-107.395)" fill="#2e8fff"/>
        <path id="Path_123480" data-name="Path 123480" d="M1718.592,498.271c1.463,3.545,9.466,3.814,17.875.6s14.04-8.69,12.577-12.235-9.466-3.814-17.875-.6S1717.129,494.728,1718.592,498.271Z" transform="translate(-1664.55 -483.794)" fill="#1355d1"/>
        <path id="Path_123481" data-name="Path 123481" d="M1728.394,495.712c.73,1.767,4.72,1.9,8.915.3s7-4.333,6.272-6.1-4.72-1.9-8.914-.3S1727.664,493.944,1728.394,495.712Z" transform="translate(-1666.951 -484.711)" fill="#2e8fff"/>
        <path id="Path_123482" data-name="Path 123482" d="M1710.99,518.376c1.464,3.545,9.467,3.814,17.876.6s14.04-8.69,12.577-12.235" transform="translate(-1651.016 -488.276)" fill="none" stroke="#fff" stroke-linecap="round" stroke-linejoin="round" stroke-width="2.441"/>
        <ellipse id="Ellipse_2954" data-name="Ellipse 2954" cx="12.848" cy="26.333" rx="12.848" ry="26.333" transform="translate(101.806 168.659) rotate(-107.395)" fill="#fff"/>
        <path id="Path_123483" data-name="Path 123483" d="M1642.275,668.691c3.859,3.877,12.893,5.121,23.423,2.665,14.04-3.275,25.421-11.889,25.421-19.239" transform="translate(-1545.167 -516.668)" fill="none" stroke="#1355d1" stroke-linecap="round" stroke-linejoin="round" stroke-width="1.735"/>
      </g>
      <g id="Group_50462" data-name="Group 50462" transform="translate(114.071 122.523)">
        <ellipse id="Ellipse_2955" data-name="Ellipse 2955" cx="45.608" cy="22.657" rx="45.608" ry="22.657" transform="translate(146.256 337.174) rotate(-178.984)" fill="#f4f4f6" style="mix-blend-mode: multiply;isolation: isolate"/>
        <path id="Path_123484" data-name="Path 123484" d="M1563.833,926.181,1553,924.82c-7.252-3.285-10.639-5.753-13.869-3.889l-.916.529c-3.23,1.863-2.82,5.151.907,7.3l15.93,12.656a10.515,10.515,0,0,0,11.729-1.139s1.782-1.609.509-8.378C1566.562,928.041,1566.816,927.9,1563.833,926.181Z" transform="translate(-1428.673 -626.301)" fill="#35519c"/>
        <path id="Path_123485" data-name="Path 123485" d="M1574.2,939.565c.794,6.854,13.357,6.854,13.357,1.631l-6.96-158.259-41.9-11.814Z" transform="translate(-1451.389 -640.544)" fill="#ffc2b0"/>
        <path id="Path_123486" data-name="Path 123486" d="M1601.707,938.592l-11.536,2.171c-8.5-.978-12.782-2.39-15.473.579l-.764.842c-2.691,2.971-1.192,6.2,3.333,7.178l20.467,7.716a11.3,11.3,0,0,0,11.63-5.024s1.294-2.233-2.237-8.743C1605.113,939.6,1605.326,939.374,1601.707,938.592Z" transform="translate(-1510.571 -624.554)" fill="#35519c"/>
        <path id="Path_123487" data-name="Path 123487" d="M1567.856,956.209c2.188,5.539,11.782,4.327,11.62-.219-4.482-54.839,5.837-106.628,19.137-157.024l-40.241-4.351C1556.8,853.584,1557.327,904.12,1567.856,956.209Z" transform="translate(-1483.281 -638.301)" fill="#ffc2b0"/>
        <path id="Path_123488" data-name="Path 123488" d="M1544.551,792.746l-5.69,135.173s25.464,33.845,65.244,0l-3.47-130.575Z" transform="translate(-1466.971 -638.48)" fill="#0000a6"/>
        <path id="Path_123489" data-name="Path 123489" d="M1550.885,781.588l-14,76.808s34.775,34.462,74.555,0l-4.474-72.125Z" transform="translate(-1473.306 -639.545)" fill="#ebf5ff"/>
        <path id="Path_123490" data-name="Path 123490" d="M1558.358,691.247c2.991,10.428,10.746,13.364,17.317,6.556s9.475-20.78,6.483-31.209-10.745-13.363-17.317-6.555S1555.366,680.818,1558.358,691.247Z" transform="translate(-1467.423 -651.501)" fill="#ffc2b0"/>
        <path id="Path_123491" data-name="Path 123491" d="M1564.848,688.151c2.993,10.428,14.172,14.2,20.744,7.393s9.475-20.78,6.482-31.208-10.744-13.364-17.317-6.557S1561.856,677.722,1564.848,688.151Z" transform="translate(-1484.905 -651.717)" fill="#ffc2b0"/>
        <path id="Path_123492" data-name="Path 123492" d="M1574.2,715.744l1.117-.249a7.056,7.056,0,0,0,5.334-8.4l-4.749-21.287a7.054,7.054,0,0,0-8.4-5.334l-1.117.25a7.054,7.054,0,0,0-5.333,8.4l1.555,21.126C1563.45,714.025,1570.42,716.586,1574.2,715.744Z" transform="translate(-1468.961 -649.216)" fill="#ffc2b0"/>
        <path id="Path_123493" data-name="Path 123493" d="M1592.609,689.858s1.3,7.231-11.324,7.928c-10.1.557-7.1-17.7-17.108-19.335-11.013-1.8-13.008-15.4-8.669-20.623s16.468-7.951,25.253-4.077S1607.992,660.451,1592.609,689.858Z" transform="translate(-1478.451 -651.926)" fill="#191791"/>
        <path id="Path_123494" data-name="Path 123494" d="M1576.406,681.833a4.776,4.776,0,1,0,3.275-5.908A4.776,4.776,0,0,0,1576.406,681.833Z" transform="translate(-1490.721 -649.652)" fill="#ffc2b0"/>
        <path id="Path_123495" data-name="Path 123495" d="M1604.043,793.674c-3.565-19.539.267-34.982-.042-55.757,0-37.347,1.792-46.462-17.952-40.781l-5.565,1.478a38.471,38.471,0,0,0-7.722,2.982c-26.031,13.412-32.979,17.548-31.836,33.1-.117,25.625,11.81,30.851,5.471,53.284C1551.761,805.7,1598.09,806.354,1604.043,793.674Z" transform="translate(-1470.197 -647.757)" fill="#ebf5ff"/>
        <path id="Path_123496" data-name="Path 123496" d="M1582.119,695.292l1.131-2.616a7.167,7.167,0,0,1-5.852,1.525A9.206,9.206,0,0,0,1582.119,695.292Z" transform="translate(-1489.486 -648.035)" fill="#f09a82"/>
        <ellipse id="Ellipse_2956" data-name="Ellipse 2956" cx="9.095" cy="10.567" rx="9.095" ry="10.567" transform="translate(104.098 6.869)" fill="#e6ba55"/>
        <path id="Path_123497" data-name="Path 123497" d="M1531.5,665.32c-.435-5.415,6.949-7.794,9.846-3.2a20.773,20.773,0,0,1,2.44,6.487c3.672,16.248,31.042,13.894,17.617,42.484,0,0,12.215,18.757-10.488,26.66-11.619,4.045-11.358-25.872-11.358-25.872s-4.636-13.759-9.111-24.55a20.063,20.063,0,0,1-.066-15.827A12.508,12.508,0,0,0,1531.5,665.32Z" transform="translate(-1418.074 -651.185)" fill="#191791"/>
        <path id="Path_123498" data-name="Path 123498" d="M1578.08,696.011a3.126,3.126,0,0,1,3.784,3.571c-.409,2.435-1.9,5.349-6.344,6.856-6.156,2.086-12.919.965-16.17.192a.887.887,0,0,1-.25-1.62C1562.763,702.745,1571.561,697.586,1578.08,696.011Z" transform="translate(-1467.63 -647.725)" fill="#2f81ec"/>
        <path id="Path_123499" data-name="Path 123499" d="M1667.7,716.378s-5.342,28.486-38.218,63.276c-9.041,9.566-54.5,3.743-54.5,3.743l.024-8.922s34.153,3.7,42.61-7.738C1627.151,753.847,1640.92,704.573,1667.7,716.378Z" transform="translate(-1571.297 -645.945)" fill="#ffc2b0"/>
        <path id="Path_123501" data-name="Path 123501" d="M1652.212,782.543l5.23-.019a7.325,7.325,0,0,0,7.277-7.33h0a7.325,7.325,0,0,0-7.33-7.277l-5.229.019a7.326,7.326,0,0,0-7.278,7.33h0A7.324,7.324,0,0,0,1652.212,782.543Z" transform="translate(-1644.882 -640.85)" fill="#ffc2b0"/>
        <path id="Path_123502" data-name="Path 123502" d="M1587.329,758.224l6.294-9.881s.366,32.384-6.294,44.873Z" transform="translate(-1510.742 -642.719)" fill="#6baded"/>
        <path id="Path_123500" data-name="Path 123500" d="M1646.473,736.421l-18.694,34.308c-.491.541-17.823,15.744-20.322,14.5-.621-.308-30.234,2.932-31.079,1.836-2.677-3.383-4.83-8.542,3.5-13.992,2.944-1.926,15.431-3.26,18.584-5.9,2.836-2.375,8.507-13.8,9-14.458.507-.679,21.13-41.1,36.859-45.57C1657.091,703.507,1655.683,721.412,1646.473,736.421Z" transform="translate(-1556.138 -646.699)" fill="#ebf5ff"/>
      </g>
      <g id="Group_50470" data-name="Group 50470" transform="translate(251.985 358.351)">
        <path id="Path_123528" data-name="Path 123528" d="M1110.289,737.829,1242.655,665.1c5.506-3.007,17-1.907,25.545,2.446l30.744,15.664c8.543,4.352,11.028,10.374,5.521,13.382l-7.933,4.332L1172.1,769.32c-5.508,3.007-17,1.907-25.546-2.446l-12.761-6.5-17.982-9.161C1107.267,746.859,1104.783,740.837,1110.289,737.829Z" transform="translate(-1107.359 -564.094)" fill="#f4f4f6" style="mix-blend-mode: multiply;isolation: isolate"/>
        <path id="Path_123529" data-name="Path 123529" d="M1132.076,657.543l-17.982-9.162c-8.543-4.352-11.028-10.375-5.521-13.382l132.365-72.729c5.508-3.008,17-1.907,25.546,2.446l30.744,15.663c8.543,4.353,11.028,10.375,5.521,13.382l-7.933,4.332" transform="translate(-1104.495 -530.094)" fill="none" stroke="#2c4482" stroke-linecap="round" stroke-linejoin="round" stroke-width="4.196"/>
        <path id="Path_123530" data-name="Path 123530" d="M1151.675,592.333v69.193l-46.033-28.962v-66.41" transform="translate(-950.49 -531.939)" fill="none" stroke="#2c4482" stroke-linecap="round" stroke-linejoin="round" stroke-width="4.196"/>
        <g id="Group_50464" data-name="Group 50464" transform="translate(142.7 2.146)">
          <path id="Path_123531" data-name="Path 123531" d="M1166.074,623.917l.693.009c7.168.1,13.033-6.255,13.033-14.117V532.727c0-7.862-5.866-14.374-13.034-14.471l-.693-.009c-7.168-.1-13.033,6.255-13.033,14.117v77.082C1153.041,617.307,1158.906,623.819,1166.074,623.917Z" transform="translate(-1153.04 -518.245)" fill="#ebf5ff"/>
        </g>
        <g id="Group_50465" data-name="Group 50465" transform="translate(147.837 34.979)">
          <path id="Path_123532" data-name="Path 123532" d="M1168.743,632.4l.426.006c4.416.06,8.031-3.854,8.031-8.7v-47.49c0-4.844-3.614-8.856-8.03-8.915l-.427-.006c-4.417-.06-8.03,3.854-8.03,8.7v47.49C1160.714,628.328,1164.327,632.341,1168.743,632.4Z" transform="translate(-1160.713 -567.296)" fill="#2f81ec"/>
        </g>
        <g id="Group_50466" data-name="Group 50466" transform="translate(87.787 26.043)">
          <path id="Path_123533" data-name="Path 123533" d="M1248.112,659.616l.693.009c7.168.1,13.033-6.255,13.033-14.117V568.427c0-7.862-5.865-14.374-13.033-14.471l-.693-.009c-7.168-.1-13.033,6.255-13.033,14.117v77.082C1235.078,653.007,1240.944,659.519,1248.112,659.616Z" transform="translate(-1235.078 -553.945)" fill="#ebf5ff"/>
        </g>
        <ellipse id="Ellipse_2959" data-name="Ellipse 2959" cx="21.617" cy="10.377" rx="21.617" ry="10.377" transform="translate(70.627 74.671) rotate(-178.989)" fill="#ebf5ff"/>
        <ellipse id="Ellipse_2960" data-name="Ellipse 2960" cx="21.617" cy="10.377" rx="21.617" ry="10.377" transform="matrix(-1, -0.018, 0.018, -1, 121.449, 44.296)" fill="#ebf5ff"/>
        <ellipse id="Ellipse_2961" data-name="Ellipse 2961" cx="21.617" cy="10.377" rx="21.617" ry="10.377" transform="translate(177.511 21.514) rotate(-178.989)" fill="#ebf5ff"/>
        <path id="Path_123534" data-name="Path 123534" d="M1325.754,703.351l.693.009c7.168.1,13.033-6.255,13.033-14.117V612.161c0-7.862-5.866-14.374-13.034-14.471l-.693-.009c-7.168-.1-13.033,6.255-13.033,14.117V688.88C1312.721,696.741,1318.585,703.254,1325.754,703.351Z" transform="translate(-1276.903 -542.363)" fill="#ebf5ff"/>
        <path id="Path_123535" data-name="Path 123535" d="M1305.68,667.44l-135.3,74.673c-5.507,3.008-17,1.906-25.546-2.446l-39.195-22.107" transform="translate(-1104.494 -565.429)" fill="none" stroke="#2c4482" stroke-linecap="round" stroke-linejoin="round" stroke-width="4.196"/>
        <g id="Group_50468" data-name="Group 50468" transform="translate(92.924 56.48)">
          <g id="Group_50467" data-name="Group 50467">
            <path id="Path_123536" data-name="Path 123536" d="M1250.781,664.523l.427.005c4.416.06,8.03-3.853,8.03-8.7V608.34c0-4.844-3.614-8.855-8.03-8.915l-.426-.006c-4.417-.06-8.03,3.854-8.03,8.7v47.49C1242.752,660.45,1246.365,664.463,1250.781,664.523Z" transform="translate(-1242.752 -599.418)" fill="#e6ba55"/>
          </g>
        </g>
        <g id="Group_50469" data-name="Group 50469" transform="translate(40.953 88.326)">
          <path id="Path_123537" data-name="Path 123537" d="M1328.424,712.1l.426.006c4.417.06,8.03-3.854,8.03-8.7v-47.49c0-4.844-3.613-8.856-8.03-8.916l-.427-.006c-4.416-.06-8.03,3.854-8.03,8.7v47.49C1320.393,708.027,1324.007,712.04,1328.424,712.1Z" transform="translate(-1320.393 -646.995)" fill="#ec2f2f"/>
        </g>
        <path id="Path_123538" data-name="Path 123538" d="M1284.613,616.627l-124.433,68.4c-5.507,3.007-17,1.907-25.545-2.446l-12.762-6.5" transform="translate(-1094.29 -548.628)" fill="none" stroke="#2c4482" stroke-linecap="round" stroke-linejoin="round" stroke-width="4.196"/>
        <path id="Path_123539" data-name="Path 123539" d="M1381.752,706.011v72.871l-46.033-28.962V679.5" transform="translate(-1334.57 -569.415)" fill="none" stroke="#2c4482" stroke-linecap="round" stroke-linejoin="round" stroke-width="4.196"/>
        <path id="Path_123540" data-name="Path 123540" d="M1180.94,528.55s-1.079-5.532-12.357-5.685-14.016,4.176-14.016,4.176" transform="translate(-1012.503 -517.625)" fill="none" stroke="#afcfed" stroke-linecap="round" stroke-linejoin="round" stroke-width="2.344"/>
        <path id="Path_123541" data-name="Path 123541" d="M1263.457,564.947s-1.08-5.532-12.357-5.685-14.016,4.177-14.016,4.177" transform="translate(-1150.253 -529.659)" fill="none" stroke="#afcfed" stroke-linecap="round" stroke-linejoin="round" stroke-width="2.344"/>
        <path id="Path_123542" data-name="Path 123542" d="M1339.382,607.378s-1.08-5.532-12.357-5.685-14.016,4.177-14.016,4.177" transform="translate(-1276.999 -543.689)" fill="none" stroke="#afcfed" stroke-linecap="round" stroke-linejoin="round" stroke-width="2.344"/>
        <path id="Path_123543" data-name="Path 123543" d="M1180.3,544.078s-8.932,6-25.737.5" transform="translate(-1011.868 -524.64)" fill="none" stroke="#afcfed" stroke-linecap="round" stroke-linejoin="round" stroke-width="2.344"/>
        <path id="Path_123544" data-name="Path 123544" d="M1261.58,577.563s-8.933,6-25.738.5" transform="translate(-1147.544 -535.712)" fill="none" stroke="#afcfed" stroke-linecap="round" stroke-linejoin="round" stroke-width="2.344"/>
        <path id="Path_123545" data-name="Path 123545" d="M1339.221,624.058s-8.933,6-25.737.495" transform="translate(-1277.156 -551.085)" fill="none" stroke="#afcfed" stroke-linecap="round" stroke-linejoin="round" stroke-width="2.344"/>
      </g>
    </g>
  </g>
</svg>
